%TF.GenerationSoftware,KiCad,Pcbnew,(6.0.7)*%
%TF.CreationDate,2022-08-08T22:40:30-07:00*%
%TF.ProjectId,adatface_baseboard,61646174-6661-4636-955f-62617365626f,rev?*%
%TF.SameCoordinates,Original*%
%TF.FileFunction,Legend,Top*%
%TF.FilePolarity,Positive*%
%FSLAX46Y46*%
G04 Gerber Fmt 4.6, Leading zero omitted, Abs format (unit mm)*
G04 Created by KiCad (PCBNEW (6.0.7)) date 2022-08-08 22:40:30*
%MOMM*%
%LPD*%
G01*
G04 APERTURE LIST*
G04 Aperture macros list*
%AMRoundRect*
0 Rectangle with rounded corners*
0 $1 Rounding radius*
0 $2 $3 $4 $5 $6 $7 $8 $9 X,Y pos of 4 corners*
0 Add a 4 corners polygon primitive as box body*
4,1,4,$2,$3,$4,$5,$6,$7,$8,$9,$2,$3,0*
0 Add four circle primitives for the rounded corners*
1,1,$1+$1,$2,$3*
1,1,$1+$1,$4,$5*
1,1,$1+$1,$6,$7*
1,1,$1+$1,$8,$9*
0 Add four rect primitives between the rounded corners*
20,1,$1+$1,$2,$3,$4,$5,0*
20,1,$1+$1,$4,$5,$6,$7,0*
20,1,$1+$1,$6,$7,$8,$9,0*
20,1,$1+$1,$8,$9,$2,$3,0*%
G04 Aperture macros list end*
%ADD10C,1.000000*%
%ADD11C,0.150000*%
%ADD12C,0.300000*%
%ADD13C,0.010000*%
%ADD14C,0.120000*%
%ADD15C,0.127000*%
%ADD16C,0.200000*%
%ADD17RoundRect,0.418750X0.218750X0.256250X-0.218750X0.256250X-0.218750X-0.256250X0.218750X-0.256250X0*%
%ADD18C,2.100000*%
%ADD19C,1.708000*%
%ADD20C,1.700000*%
%ADD21C,2.050000*%
%ADD22RoundRect,0.200000X-0.679000X0.679000X-0.679000X-0.679000X0.679000X-0.679000X0.679000X0.679000X0*%
%ADD23C,1.758000*%
%ADD24C,2.125000*%
%ADD25RoundRect,0.443750X-0.456250X0.243750X-0.456250X-0.243750X0.456250X-0.243750X0.456250X0.243750X0*%
%ADD26RoundRect,0.418750X-0.256250X0.218750X-0.256250X-0.218750X0.256250X-0.218750X0.256250X0.218750X0*%
%ADD27RoundRect,0.200000X0.850000X-0.850000X0.850000X0.850000X-0.850000X0.850000X-0.850000X-0.850000X0*%
%ADD28O,2.100000X2.100000*%
%ADD29RoundRect,0.450000X0.625000X-0.375000X0.625000X0.375000X-0.625000X0.375000X-0.625000X-0.375000X0*%
%ADD30RoundRect,0.200000X-0.530000X-0.325000X0.530000X-0.325000X0.530000X0.325000X-0.530000X0.325000X0*%
%ADD31C,1.200000*%
%ADD32C,6.800000*%
%ADD33RoundRect,0.418750X0.256250X-0.218750X0.256250X0.218750X-0.256250X0.218750X-0.256250X-0.218750X0*%
%ADD34RoundRect,0.418750X-0.218750X-0.256250X0.218750X-0.256250X0.218750X0.256250X-0.218750X0.256250X0*%
%ADD35RoundRect,0.443750X-0.243750X-0.456250X0.243750X-0.456250X0.243750X0.456250X-0.243750X0.456250X0*%
%ADD36RoundRect,0.200000X-0.850000X-0.850000X0.850000X-0.850000X0.850000X0.850000X-0.850000X0.850000X0*%
%ADD37C,1.900000*%
%ADD38C,1.050000*%
%ADD39RoundRect,0.200000X0.575000X-0.150000X0.575000X0.150000X-0.575000X0.150000X-0.575000X-0.150000X0*%
%ADD40O,2.500000X1.400000*%
%ADD41O,2.000000X1.400000*%
%ADD42RoundRect,0.200000X1.250000X0.900000X-1.250000X0.900000X-1.250000X-0.900000X1.250000X-0.900000X0*%
%ADD43RoundRect,0.200000X0.850000X0.850000X-0.850000X0.850000X-0.850000X-0.850000X0.850000X-0.850000X0*%
%ADD44RoundRect,0.262500X-0.375000X-0.062500X0.375000X-0.062500X0.375000X0.062500X-0.375000X0.062500X0*%
%ADD45RoundRect,0.262500X-0.062500X-0.375000X0.062500X-0.375000X0.062500X0.375000X-0.062500X0.375000X0*%
%ADD46RoundRect,0.200000X-1.650000X-1.650000X1.650000X-1.650000X1.650000X1.650000X-1.650000X1.650000X0*%
%ADD47C,0.860000*%
%ADD48C,1.060000*%
%ADD49C,1.480000*%
%ADD50C,1.260000*%
G04 APERTURE END LIST*
D10*
X134500000Y-131600000D02*
X161450000Y-131600000D01*
X161450000Y-131600000D02*
X161450000Y-147600000D01*
X161450000Y-147600000D02*
X134500000Y-147600000D01*
X134500000Y-147600000D02*
X134500000Y-131600000D01*
X101300000Y-131600000D02*
X129025000Y-131600000D01*
X129025000Y-131600000D02*
X129025000Y-147600000D01*
X129025000Y-147600000D02*
X101300000Y-147600000D01*
X101300000Y-147600000D02*
X101300000Y-131600000D01*
D11*
X74745238Y-141122380D02*
X74745238Y-140122380D01*
X74745238Y-140598571D02*
X75316666Y-140598571D01*
X75316666Y-141122380D02*
X75316666Y-140122380D01*
X76221428Y-141122380D02*
X76221428Y-140598571D01*
X76173809Y-140503333D01*
X76078571Y-140455714D01*
X75888095Y-140455714D01*
X75792857Y-140503333D01*
X76221428Y-141074761D02*
X76126190Y-141122380D01*
X75888095Y-141122380D01*
X75792857Y-141074761D01*
X75745238Y-140979523D01*
X75745238Y-140884285D01*
X75792857Y-140789047D01*
X75888095Y-140741428D01*
X76126190Y-140741428D01*
X76221428Y-140693809D01*
X76697619Y-140455714D02*
X76697619Y-141122380D01*
X76697619Y-140550952D02*
X76745238Y-140503333D01*
X76840476Y-140455714D01*
X76983333Y-140455714D01*
X77078571Y-140503333D01*
X77126190Y-140598571D01*
X77126190Y-141122380D01*
X77554761Y-141074761D02*
X77650000Y-141122380D01*
X77840476Y-141122380D01*
X77935714Y-141074761D01*
X77983333Y-140979523D01*
X77983333Y-140931904D01*
X77935714Y-140836666D01*
X77840476Y-140789047D01*
X77697619Y-140789047D01*
X77602380Y-140741428D01*
X77554761Y-140646190D01*
X77554761Y-140598571D01*
X77602380Y-140503333D01*
X77697619Y-140455714D01*
X77840476Y-140455714D01*
X77935714Y-140503333D01*
X79507142Y-140598571D02*
X79650000Y-140646190D01*
X79697619Y-140693809D01*
X79745238Y-140789047D01*
X79745238Y-140931904D01*
X79697619Y-141027142D01*
X79650000Y-141074761D01*
X79554761Y-141122380D01*
X79173809Y-141122380D01*
X79173809Y-140122380D01*
X79507142Y-140122380D01*
X79602380Y-140170000D01*
X79650000Y-140217619D01*
X79697619Y-140312857D01*
X79697619Y-140408095D01*
X79650000Y-140503333D01*
X79602380Y-140550952D01*
X79507142Y-140598571D01*
X79173809Y-140598571D01*
X80602380Y-141122380D02*
X80602380Y-140598571D01*
X80554761Y-140503333D01*
X80459523Y-140455714D01*
X80269047Y-140455714D01*
X80173809Y-140503333D01*
X80602380Y-141074761D02*
X80507142Y-141122380D01*
X80269047Y-141122380D01*
X80173809Y-141074761D01*
X80126190Y-140979523D01*
X80126190Y-140884285D01*
X80173809Y-140789047D01*
X80269047Y-140741428D01*
X80507142Y-140741428D01*
X80602380Y-140693809D01*
X81078571Y-141122380D02*
X81078571Y-140455714D01*
X81078571Y-140122380D02*
X81030952Y-140170000D01*
X81078571Y-140217619D01*
X81126190Y-140170000D01*
X81078571Y-140122380D01*
X81078571Y-140217619D01*
X81935714Y-141074761D02*
X81840476Y-141122380D01*
X81650000Y-141122380D01*
X81554761Y-141074761D01*
X81507142Y-140979523D01*
X81507142Y-140598571D01*
X81554761Y-140503333D01*
X81650000Y-140455714D01*
X81840476Y-140455714D01*
X81935714Y-140503333D01*
X81983333Y-140598571D01*
X81983333Y-140693809D01*
X81507142Y-140789047D01*
X82411904Y-141122380D02*
X82411904Y-140455714D01*
X82411904Y-140646190D02*
X82459523Y-140550952D01*
X82507142Y-140503333D01*
X82602380Y-140455714D01*
X82697619Y-140455714D01*
X73792857Y-141827619D02*
X73840476Y-141780000D01*
X73935714Y-141732380D01*
X74173809Y-141732380D01*
X74269047Y-141780000D01*
X74316666Y-141827619D01*
X74364285Y-141922857D01*
X74364285Y-142018095D01*
X74316666Y-142160952D01*
X73745238Y-142732380D01*
X74364285Y-142732380D01*
X74983333Y-141732380D02*
X75078571Y-141732380D01*
X75173809Y-141780000D01*
X75221428Y-141827619D01*
X75269047Y-141922857D01*
X75316666Y-142113333D01*
X75316666Y-142351428D01*
X75269047Y-142541904D01*
X75221428Y-142637142D01*
X75173809Y-142684761D01*
X75078571Y-142732380D01*
X74983333Y-142732380D01*
X74888095Y-142684761D01*
X74840476Y-142637142D01*
X74792857Y-142541904D01*
X74745238Y-142351428D01*
X74745238Y-142113333D01*
X74792857Y-141922857D01*
X74840476Y-141827619D01*
X74888095Y-141780000D01*
X74983333Y-141732380D01*
X75697619Y-141827619D02*
X75745238Y-141780000D01*
X75840476Y-141732380D01*
X76078571Y-141732380D01*
X76173809Y-141780000D01*
X76221428Y-141827619D01*
X76269047Y-141922857D01*
X76269047Y-142018095D01*
X76221428Y-142160952D01*
X75650000Y-142732380D01*
X76269047Y-142732380D01*
X76650000Y-141827619D02*
X76697619Y-141780000D01*
X76792857Y-141732380D01*
X77030952Y-141732380D01*
X77126190Y-141780000D01*
X77173809Y-141827619D01*
X77221428Y-141922857D01*
X77221428Y-142018095D01*
X77173809Y-142160952D01*
X76602380Y-142732380D01*
X77221428Y-142732380D01*
X77650000Y-142351428D02*
X78411904Y-142351428D01*
X79078571Y-141732380D02*
X79173809Y-141732380D01*
X79269047Y-141780000D01*
X79316666Y-141827619D01*
X79364285Y-141922857D01*
X79411904Y-142113333D01*
X79411904Y-142351428D01*
X79364285Y-142541904D01*
X79316666Y-142637142D01*
X79269047Y-142684761D01*
X79173809Y-142732380D01*
X79078571Y-142732380D01*
X78983333Y-142684761D01*
X78935714Y-142637142D01*
X78888095Y-142541904D01*
X78840476Y-142351428D01*
X78840476Y-142113333D01*
X78888095Y-141922857D01*
X78935714Y-141827619D01*
X78983333Y-141780000D01*
X79078571Y-141732380D01*
X79983333Y-142160952D02*
X79888095Y-142113333D01*
X79840476Y-142065714D01*
X79792857Y-141970476D01*
X79792857Y-141922857D01*
X79840476Y-141827619D01*
X79888095Y-141780000D01*
X79983333Y-141732380D01*
X80173809Y-141732380D01*
X80269047Y-141780000D01*
X80316666Y-141827619D01*
X80364285Y-141922857D01*
X80364285Y-141970476D01*
X80316666Y-142065714D01*
X80269047Y-142113333D01*
X80173809Y-142160952D01*
X79983333Y-142160952D01*
X79888095Y-142208571D01*
X79840476Y-142256190D01*
X79792857Y-142351428D01*
X79792857Y-142541904D01*
X79840476Y-142637142D01*
X79888095Y-142684761D01*
X79983333Y-142732380D01*
X80173809Y-142732380D01*
X80269047Y-142684761D01*
X80316666Y-142637142D01*
X80364285Y-142541904D01*
X80364285Y-142351428D01*
X80316666Y-142256190D01*
X80269047Y-142208571D01*
X80173809Y-142160952D01*
X80792857Y-142351428D02*
X81554761Y-142351428D01*
X82221428Y-141732380D02*
X82316666Y-141732380D01*
X82411904Y-141780000D01*
X82459523Y-141827619D01*
X82507142Y-141922857D01*
X82554761Y-142113333D01*
X82554761Y-142351428D01*
X82507142Y-142541904D01*
X82459523Y-142637142D01*
X82411904Y-142684761D01*
X82316666Y-142732380D01*
X82221428Y-142732380D01*
X82126190Y-142684761D01*
X82078571Y-142637142D01*
X82030952Y-142541904D01*
X81983333Y-142351428D01*
X81983333Y-142113333D01*
X82030952Y-141922857D01*
X82078571Y-141827619D01*
X82126190Y-141780000D01*
X82221428Y-141732380D01*
X83030952Y-142732380D02*
X83221428Y-142732380D01*
X83316666Y-142684761D01*
X83364285Y-142637142D01*
X83459523Y-142494285D01*
X83507142Y-142303809D01*
X83507142Y-141922857D01*
X83459523Y-141827619D01*
X83411904Y-141780000D01*
X83316666Y-141732380D01*
X83126190Y-141732380D01*
X83030952Y-141780000D01*
X82983333Y-141827619D01*
X82935714Y-141922857D01*
X82935714Y-142160952D01*
X82983333Y-142256190D01*
X83030952Y-142303809D01*
X83126190Y-142351428D01*
X83316666Y-142351428D01*
X83411904Y-142303809D01*
X83459523Y-142256190D01*
X83507142Y-142160952D01*
D12*
X42726190Y-97904761D02*
X43869047Y-97904761D01*
X43297619Y-99904761D02*
X43297619Y-97904761D01*
X44345238Y-97904761D02*
X45678571Y-99904761D01*
X45678571Y-97904761D02*
X44345238Y-99904761D01*
D11*
X75357142Y-130161666D02*
X75833333Y-130161666D01*
X75261904Y-130447380D02*
X75595238Y-129447380D01*
X75928571Y-130447380D01*
X76261904Y-130447380D02*
X76261904Y-129447380D01*
X76500000Y-129447380D01*
X76642857Y-129495000D01*
X76738095Y-129590238D01*
X76785714Y-129685476D01*
X76833333Y-129875952D01*
X76833333Y-130018809D01*
X76785714Y-130209285D01*
X76738095Y-130304523D01*
X76642857Y-130399761D01*
X76500000Y-130447380D01*
X76261904Y-130447380D01*
X77214285Y-130161666D02*
X77690476Y-130161666D01*
X77119047Y-130447380D02*
X77452380Y-129447380D01*
X77785714Y-130447380D01*
X77976190Y-129447380D02*
X78547619Y-129447380D01*
X78261904Y-130447380D02*
X78261904Y-129447380D01*
X78738095Y-129780714D02*
X79119047Y-129780714D01*
X78880952Y-130447380D02*
X78880952Y-129590238D01*
X78928571Y-129495000D01*
X79023809Y-129447380D01*
X79119047Y-129447380D01*
X79880952Y-130447380D02*
X79880952Y-129923571D01*
X79833333Y-129828333D01*
X79738095Y-129780714D01*
X79547619Y-129780714D01*
X79452380Y-129828333D01*
X79880952Y-130399761D02*
X79785714Y-130447380D01*
X79547619Y-130447380D01*
X79452380Y-130399761D01*
X79404761Y-130304523D01*
X79404761Y-130209285D01*
X79452380Y-130114047D01*
X79547619Y-130066428D01*
X79785714Y-130066428D01*
X79880952Y-130018809D01*
X80785714Y-130399761D02*
X80690476Y-130447380D01*
X80500000Y-130447380D01*
X80404761Y-130399761D01*
X80357142Y-130352142D01*
X80309523Y-130256904D01*
X80309523Y-129971190D01*
X80357142Y-129875952D01*
X80404761Y-129828333D01*
X80500000Y-129780714D01*
X80690476Y-129780714D01*
X80785714Y-129828333D01*
X81595238Y-130399761D02*
X81500000Y-130447380D01*
X81309523Y-130447380D01*
X81214285Y-130399761D01*
X81166666Y-130304523D01*
X81166666Y-129923571D01*
X81214285Y-129828333D01*
X81309523Y-129780714D01*
X81500000Y-129780714D01*
X81595238Y-129828333D01*
X81642857Y-129923571D01*
X81642857Y-130018809D01*
X81166666Y-130114047D01*
X77238095Y-132057380D02*
X77238095Y-131390714D01*
X77238095Y-131581190D02*
X77285714Y-131485952D01*
X77333333Y-131438333D01*
X77428571Y-131390714D01*
X77523809Y-131390714D01*
X78047619Y-131057380D02*
X78142857Y-131057380D01*
X78238095Y-131105000D01*
X78285714Y-131152619D01*
X78333333Y-131247857D01*
X78380952Y-131438333D01*
X78380952Y-131676428D01*
X78333333Y-131866904D01*
X78285714Y-131962142D01*
X78238095Y-132009761D01*
X78142857Y-132057380D01*
X78047619Y-132057380D01*
X77952380Y-132009761D01*
X77904761Y-131962142D01*
X77857142Y-131866904D01*
X77809523Y-131676428D01*
X77809523Y-131438333D01*
X77857142Y-131247857D01*
X77904761Y-131152619D01*
X77952380Y-131105000D01*
X78047619Y-131057380D01*
X78809523Y-131962142D02*
X78857142Y-132009761D01*
X78809523Y-132057380D01*
X78761904Y-132009761D01*
X78809523Y-131962142D01*
X78809523Y-132057380D01*
X79809523Y-132057380D02*
X79238095Y-132057380D01*
X79523809Y-132057380D02*
X79523809Y-131057380D01*
X79428571Y-131200238D01*
X79333333Y-131295476D01*
X79238095Y-131343095D01*
D12*
X44154762Y-84904761D02*
X43488096Y-83952380D01*
X43011905Y-84904761D02*
X43011905Y-82904761D01*
X43773810Y-82904761D01*
X43964286Y-83000000D01*
X44059524Y-83095238D01*
X44154762Y-83285714D01*
X44154762Y-83571428D01*
X44059524Y-83761904D01*
X43964286Y-83857142D01*
X43773810Y-83952380D01*
X43011905Y-83952380D01*
X44821429Y-82904761D02*
X46154762Y-84904761D01*
X46154762Y-82904761D02*
X44821429Y-84904761D01*
X42726190Y-42404761D02*
X43869047Y-42404761D01*
X43297619Y-44404761D02*
X43297619Y-42404761D01*
X44345238Y-42404761D02*
X45678571Y-44404761D01*
X45678571Y-42404761D02*
X44345238Y-44404761D01*
D11*
X96875238Y-42001428D02*
X97637142Y-42001428D01*
X99399047Y-41430000D02*
X99303809Y-41382380D01*
X99160952Y-41382380D01*
X99018095Y-41430000D01*
X98922857Y-41525238D01*
X98875238Y-41620476D01*
X98827619Y-41810952D01*
X98827619Y-41953809D01*
X98875238Y-42144285D01*
X98922857Y-42239523D01*
X99018095Y-42334761D01*
X99160952Y-42382380D01*
X99256190Y-42382380D01*
X99399047Y-42334761D01*
X99446666Y-42287142D01*
X99446666Y-41953809D01*
X99256190Y-41953809D01*
X99875238Y-42382380D02*
X99875238Y-41382380D01*
X100446666Y-42382380D01*
X100446666Y-41382380D01*
X100922857Y-42382380D02*
X100922857Y-41382380D01*
X101160952Y-41382380D01*
X101303809Y-41430000D01*
X101399047Y-41525238D01*
X101446666Y-41620476D01*
X101494285Y-41810952D01*
X101494285Y-41953809D01*
X101446666Y-42144285D01*
X101399047Y-42239523D01*
X101303809Y-42334761D01*
X101160952Y-42382380D01*
X100922857Y-42382380D01*
D12*
X44154762Y-112904761D02*
X43488096Y-111952380D01*
X43011905Y-112904761D02*
X43011905Y-110904761D01*
X43773810Y-110904761D01*
X43964286Y-111000000D01*
X44059524Y-111095238D01*
X44154762Y-111285714D01*
X44154762Y-111571428D01*
X44059524Y-111761904D01*
X43964286Y-111857142D01*
X43773810Y-111952380D01*
X43011905Y-111952380D01*
X44821429Y-110904761D02*
X46154762Y-112904761D01*
X46154762Y-110904761D02*
X44821429Y-112904761D01*
X43202380Y-133583333D02*
X44154761Y-133583333D01*
X43011904Y-134154761D02*
X43678571Y-132154761D01*
X44345238Y-134154761D01*
X45011904Y-134154761D02*
X45011904Y-132154761D01*
X45488095Y-132154761D01*
X45773809Y-132250000D01*
X45964285Y-132440476D01*
X46059523Y-132630952D01*
X46154761Y-133011904D01*
X46154761Y-133297619D01*
X46059523Y-133678571D01*
X45964285Y-133869047D01*
X45773809Y-134059523D01*
X45488095Y-134154761D01*
X45011904Y-134154761D01*
X46916666Y-133583333D02*
X47869047Y-133583333D01*
X46726190Y-134154761D02*
X47392857Y-132154761D01*
X48059523Y-134154761D01*
X48440476Y-132154761D02*
X49583333Y-132154761D01*
X49011904Y-134154761D02*
X49011904Y-132154761D01*
X51297619Y-134154761D02*
X50154761Y-134154761D01*
X50726190Y-134154761D02*
X50726190Y-132154761D01*
X50535714Y-132440476D01*
X50345238Y-132630952D01*
X50154761Y-132726190D01*
D11*
X109615238Y-41826428D02*
X110377142Y-41826428D01*
X112139047Y-41255000D02*
X112043809Y-41207380D01*
X111900952Y-41207380D01*
X111758095Y-41255000D01*
X111662857Y-41350238D01*
X111615238Y-41445476D01*
X111567619Y-41635952D01*
X111567619Y-41778809D01*
X111615238Y-41969285D01*
X111662857Y-42064523D01*
X111758095Y-42159761D01*
X111900952Y-42207380D01*
X111996190Y-42207380D01*
X112139047Y-42159761D01*
X112186666Y-42112142D01*
X112186666Y-41778809D01*
X111996190Y-41778809D01*
X112615238Y-42207380D02*
X112615238Y-41207380D01*
X113186666Y-42207380D01*
X113186666Y-41207380D01*
X113662857Y-42207380D02*
X113662857Y-41207380D01*
X113900952Y-41207380D01*
X114043809Y-41255000D01*
X114139047Y-41350238D01*
X114186666Y-41445476D01*
X114234285Y-41635952D01*
X114234285Y-41778809D01*
X114186666Y-41969285D01*
X114139047Y-42064523D01*
X114043809Y-42159761D01*
X113900952Y-42207380D01*
X113662857Y-42207380D01*
D12*
X43202380Y-105583333D02*
X44154761Y-105583333D01*
X43011904Y-106154761D02*
X43678571Y-104154761D01*
X44345238Y-106154761D01*
X45011904Y-106154761D02*
X45011904Y-104154761D01*
X45488095Y-104154761D01*
X45773809Y-104250000D01*
X45964285Y-104440476D01*
X46059523Y-104630952D01*
X46154761Y-105011904D01*
X46154761Y-105297619D01*
X46059523Y-105678571D01*
X45964285Y-105869047D01*
X45773809Y-106059523D01*
X45488095Y-106154761D01*
X45011904Y-106154761D01*
X46916666Y-105583333D02*
X47869047Y-105583333D01*
X46726190Y-106154761D02*
X47392857Y-104154761D01*
X48059523Y-106154761D01*
X48440476Y-104154761D02*
X49583333Y-104154761D01*
X49011904Y-106154761D02*
X49011904Y-104154761D01*
X50154761Y-104345238D02*
X50250000Y-104250000D01*
X50440476Y-104154761D01*
X50916666Y-104154761D01*
X51107142Y-104250000D01*
X51202380Y-104345238D01*
X51297619Y-104535714D01*
X51297619Y-104726190D01*
X51202380Y-105011904D01*
X50059523Y-106154761D01*
X51297619Y-106154761D01*
X42726190Y-125904761D02*
X43869047Y-125904761D01*
X43297619Y-127904761D02*
X43297619Y-125904761D01*
X44345238Y-125904761D02*
X45678571Y-127904761D01*
X45678571Y-125904761D02*
X44345238Y-127904761D01*
X44154762Y-56904761D02*
X43488096Y-55952380D01*
X43011905Y-56904761D02*
X43011905Y-54904761D01*
X43773810Y-54904761D01*
X43964286Y-55000000D01*
X44059524Y-55095238D01*
X44154762Y-55285714D01*
X44154762Y-55571428D01*
X44059524Y-55761904D01*
X43964286Y-55857142D01*
X43773810Y-55952380D01*
X43011905Y-55952380D01*
X44821429Y-54904761D02*
X46154762Y-56904761D01*
X46154762Y-54904761D02*
X44821429Y-56904761D01*
X42726190Y-69904761D02*
X43869047Y-69904761D01*
X43297619Y-71904761D02*
X43297619Y-69904761D01*
X44345238Y-69904761D02*
X45678571Y-71904761D01*
X45678571Y-69904761D02*
X44345238Y-71904761D01*
X43202380Y-77833333D02*
X44154761Y-77833333D01*
X43011904Y-78404761D02*
X43678571Y-76404761D01*
X44345238Y-78404761D01*
X45011904Y-78404761D02*
X45011904Y-76404761D01*
X45488095Y-76404761D01*
X45773809Y-76500000D01*
X45964285Y-76690476D01*
X46059523Y-76880952D01*
X46154761Y-77261904D01*
X46154761Y-77547619D01*
X46059523Y-77928571D01*
X45964285Y-78119047D01*
X45773809Y-78309523D01*
X45488095Y-78404761D01*
X45011904Y-78404761D01*
X46916666Y-77833333D02*
X47869047Y-77833333D01*
X46726190Y-78404761D02*
X47392857Y-76404761D01*
X48059523Y-78404761D01*
X48440476Y-76404761D02*
X49583333Y-76404761D01*
X49011904Y-78404761D02*
X49011904Y-76404761D01*
X50059523Y-76404761D02*
X51297619Y-76404761D01*
X50630952Y-77166666D01*
X50916666Y-77166666D01*
X51107142Y-77261904D01*
X51202380Y-77357142D01*
X51297619Y-77547619D01*
X51297619Y-78023809D01*
X51202380Y-78214285D01*
X51107142Y-78309523D01*
X50916666Y-78404761D01*
X50345238Y-78404761D01*
X50154761Y-78309523D01*
X50059523Y-78214285D01*
X44154762Y-141054761D02*
X43488096Y-140102380D01*
X43011905Y-141054761D02*
X43011905Y-139054761D01*
X43773810Y-139054761D01*
X43964286Y-139150000D01*
X44059524Y-139245238D01*
X44154762Y-139435714D01*
X44154762Y-139721428D01*
X44059524Y-139911904D01*
X43964286Y-140007142D01*
X43773810Y-140102380D01*
X43011905Y-140102380D01*
X44821429Y-139054761D02*
X46154762Y-141054761D01*
X46154762Y-139054761D02*
X44821429Y-141054761D01*
X43452380Y-50083333D02*
X44404761Y-50083333D01*
X43261904Y-50654761D02*
X43928571Y-48654761D01*
X44595238Y-50654761D01*
X45261904Y-50654761D02*
X45261904Y-48654761D01*
X45738095Y-48654761D01*
X46023809Y-48750000D01*
X46214285Y-48940476D01*
X46309523Y-49130952D01*
X46404761Y-49511904D01*
X46404761Y-49797619D01*
X46309523Y-50178571D01*
X46214285Y-50369047D01*
X46023809Y-50559523D01*
X45738095Y-50654761D01*
X45261904Y-50654761D01*
X47166666Y-50083333D02*
X48119047Y-50083333D01*
X46976190Y-50654761D02*
X47642857Y-48654761D01*
X48309523Y-50654761D01*
X48690476Y-48654761D02*
X49833333Y-48654761D01*
X49261904Y-50654761D02*
X49261904Y-48654761D01*
X51357142Y-49321428D02*
X51357142Y-50654761D01*
X50880952Y-48559523D02*
X50404761Y-49988095D01*
X51642857Y-49988095D01*
D11*
%TO.C,C10*%
X146757142Y-90782142D02*
X146709523Y-90829761D01*
X146566666Y-90877380D01*
X146471428Y-90877380D01*
X146328571Y-90829761D01*
X146233333Y-90734523D01*
X146185714Y-90639285D01*
X146138095Y-90448809D01*
X146138095Y-90305952D01*
X146185714Y-90115476D01*
X146233333Y-90020238D01*
X146328571Y-89925000D01*
X146471428Y-89877380D01*
X146566666Y-89877380D01*
X146709523Y-89925000D01*
X146757142Y-89972619D01*
X147709523Y-90877380D02*
X147138095Y-90877380D01*
X147423809Y-90877380D02*
X147423809Y-89877380D01*
X147328571Y-90020238D01*
X147233333Y-90115476D01*
X147138095Y-90163095D01*
X148328571Y-89877380D02*
X148423809Y-89877380D01*
X148519047Y-89925000D01*
X148566666Y-89972619D01*
X148614285Y-90067857D01*
X148661904Y-90258333D01*
X148661904Y-90496428D01*
X148614285Y-90686904D01*
X148566666Y-90782142D01*
X148519047Y-90829761D01*
X148423809Y-90877380D01*
X148328571Y-90877380D01*
X148233333Y-90829761D01*
X148185714Y-90782142D01*
X148138095Y-90686904D01*
X148090476Y-90496428D01*
X148090476Y-90258333D01*
X148138095Y-90067857D01*
X148185714Y-89972619D01*
X148233333Y-89925000D01*
X148328571Y-89877380D01*
%TO.C,R4*%
X138633333Y-114734046D02*
X138300000Y-114257856D01*
X138061904Y-114734046D02*
X138061904Y-113734046D01*
X138442857Y-113734046D01*
X138538095Y-113781666D01*
X138585714Y-113829285D01*
X138633333Y-113924523D01*
X138633333Y-114067380D01*
X138585714Y-114162618D01*
X138538095Y-114210237D01*
X138442857Y-114257856D01*
X138061904Y-114257856D01*
X139490476Y-114067380D02*
X139490476Y-114734046D01*
X139252380Y-113686427D02*
X139014285Y-114400713D01*
X139633333Y-114400713D01*
%TO.C,U1*%
X54537319Y-136031634D02*
X55347843Y-136031634D01*
X55443199Y-135983956D01*
X55490877Y-135936278D01*
X55538555Y-135840922D01*
X55538555Y-135650211D01*
X55490877Y-135554855D01*
X55443199Y-135507177D01*
X55347843Y-135459499D01*
X54537319Y-135459499D01*
X55538555Y-134458263D02*
X55538555Y-135030398D01*
X55538555Y-134744331D02*
X54537319Y-134744331D01*
X54680352Y-134839686D01*
X54775708Y-134935042D01*
X54823386Y-135030398D01*
%TO.C,TR2*%
X54552380Y-40861904D02*
X54552380Y-40290476D01*
X55552380Y-40576190D02*
X54552380Y-40576190D01*
X55552380Y-39385714D02*
X55076190Y-39719047D01*
X55552380Y-39957142D02*
X54552380Y-39957142D01*
X54552380Y-39576190D01*
X54600000Y-39480952D01*
X54647619Y-39433333D01*
X54742857Y-39385714D01*
X54885714Y-39385714D01*
X54980952Y-39433333D01*
X55028571Y-39480952D01*
X55076190Y-39576190D01*
X55076190Y-39957142D01*
X54647619Y-39004761D02*
X54600000Y-38957142D01*
X54552380Y-38861904D01*
X54552380Y-38623809D01*
X54600000Y-38528571D01*
X54647619Y-38480952D01*
X54742857Y-38433333D01*
X54838095Y-38433333D01*
X54980952Y-38480952D01*
X55552380Y-39052380D01*
X55552380Y-38433333D01*
%TO.C,L3*%
X59052380Y-84166666D02*
X59052380Y-84642857D01*
X58052380Y-84642857D01*
X58052380Y-83928571D02*
X58052380Y-83309523D01*
X58433333Y-83642857D01*
X58433333Y-83500000D01*
X58480952Y-83404761D01*
X58528571Y-83357142D01*
X58623809Y-83309523D01*
X58861904Y-83309523D01*
X58957142Y-83357142D01*
X59004761Y-83404761D01*
X59052380Y-83500000D01*
X59052380Y-83785714D01*
X59004761Y-83880952D01*
X58957142Y-83928571D01*
%TO.C,TR3*%
X54528083Y-68625544D02*
X54528083Y-68054116D01*
X55528083Y-68339830D02*
X54528083Y-68339830D01*
X55528083Y-67149354D02*
X55051893Y-67482687D01*
X55528083Y-67720782D02*
X54528083Y-67720782D01*
X54528083Y-67339830D01*
X54575703Y-67244592D01*
X54623322Y-67196973D01*
X54718560Y-67149354D01*
X54861417Y-67149354D01*
X54956655Y-67196973D01*
X55004274Y-67244592D01*
X55051893Y-67339830D01*
X55051893Y-67720782D01*
X54528083Y-66816020D02*
X54528083Y-66196973D01*
X54909036Y-66530306D01*
X54909036Y-66387449D01*
X54956655Y-66292211D01*
X55004274Y-66244592D01*
X55099512Y-66196973D01*
X55337607Y-66196973D01*
X55432845Y-66244592D01*
X55480464Y-66292211D01*
X55528083Y-66387449D01*
X55528083Y-66673163D01*
X55480464Y-66768401D01*
X55432845Y-66816020D01*
%TO.C,C9*%
X152757142Y-64466666D02*
X152804761Y-64514285D01*
X152852380Y-64657142D01*
X152852380Y-64752380D01*
X152804761Y-64895238D01*
X152709523Y-64990476D01*
X152614285Y-65038095D01*
X152423809Y-65085714D01*
X152280952Y-65085714D01*
X152090476Y-65038095D01*
X151995238Y-64990476D01*
X151900000Y-64895238D01*
X151852380Y-64752380D01*
X151852380Y-64657142D01*
X151900000Y-64514285D01*
X151947619Y-64466666D01*
X152852380Y-63990476D02*
X152852380Y-63800000D01*
X152804761Y-63704761D01*
X152757142Y-63657142D01*
X152614285Y-63561904D01*
X152423809Y-63514285D01*
X152042857Y-63514285D01*
X151947619Y-63561904D01*
X151900000Y-63609523D01*
X151852380Y-63704761D01*
X151852380Y-63895238D01*
X151900000Y-63990476D01*
X151947619Y-64038095D01*
X152042857Y-64085714D01*
X152280952Y-64085714D01*
X152376190Y-64038095D01*
X152423809Y-63990476D01*
X152471428Y-63895238D01*
X152471428Y-63704761D01*
X152423809Y-63609523D01*
X152376190Y-63561904D01*
X152280952Y-63514285D01*
%TO.C,J11*%
X93881309Y-41382380D02*
X93881309Y-42096666D01*
X93833690Y-42239523D01*
X93738452Y-42334761D01*
X93595595Y-42382380D01*
X93500357Y-42382380D01*
X94881309Y-42382380D02*
X94309880Y-42382380D01*
X94595595Y-42382380D02*
X94595595Y-41382380D01*
X94500357Y-41525238D01*
X94405119Y-41620476D01*
X94309880Y-41668095D01*
X95833690Y-42382380D02*
X95262261Y-42382380D01*
X95547976Y-42382380D02*
X95547976Y-41382380D01*
X95452738Y-41525238D01*
X95357500Y-41620476D01*
X95262261Y-41668095D01*
%TO.C,FB1*%
X160428571Y-97583333D02*
X160428571Y-97916666D01*
X160952380Y-97916666D02*
X159952380Y-97916666D01*
X159952380Y-97440476D01*
X160428571Y-96726190D02*
X160476190Y-96583333D01*
X160523809Y-96535714D01*
X160619047Y-96488095D01*
X160761904Y-96488095D01*
X160857142Y-96535714D01*
X160904761Y-96583333D01*
X160952380Y-96678571D01*
X160952380Y-97059523D01*
X159952380Y-97059523D01*
X159952380Y-96726190D01*
X160000000Y-96630952D01*
X160047619Y-96583333D01*
X160142857Y-96535714D01*
X160238095Y-96535714D01*
X160333333Y-96583333D01*
X160380952Y-96630952D01*
X160428571Y-96726190D01*
X160428571Y-97059523D01*
X160952380Y-95535714D02*
X160952380Y-96107142D01*
X160952380Y-95821428D02*
X159952380Y-95821428D01*
X160095238Y-95916666D01*
X160190476Y-96011904D01*
X160238095Y-96107142D01*
%TO.C,R8*%
X138533333Y-101580191D02*
X138200000Y-101104001D01*
X137961904Y-101580191D02*
X137961904Y-100580191D01*
X138342857Y-100580191D01*
X138438095Y-100627811D01*
X138485714Y-100675430D01*
X138533333Y-100770668D01*
X138533333Y-100913525D01*
X138485714Y-101008763D01*
X138438095Y-101056382D01*
X138342857Y-101104001D01*
X137961904Y-101104001D01*
X139104761Y-101008763D02*
X139009523Y-100961144D01*
X138961904Y-100913525D01*
X138914285Y-100818287D01*
X138914285Y-100770668D01*
X138961904Y-100675430D01*
X139009523Y-100627811D01*
X139104761Y-100580191D01*
X139295238Y-100580191D01*
X139390476Y-100627811D01*
X139438095Y-100675430D01*
X139485714Y-100770668D01*
X139485714Y-100818287D01*
X139438095Y-100913525D01*
X139390476Y-100961144D01*
X139295238Y-101008763D01*
X139104761Y-101008763D01*
X139009523Y-101056382D01*
X138961904Y-101104001D01*
X138914285Y-101199239D01*
X138914285Y-101389715D01*
X138961904Y-101484953D01*
X139009523Y-101532572D01*
X139104761Y-101580191D01*
X139295238Y-101580191D01*
X139390476Y-101532572D01*
X139438095Y-101484953D01*
X139485714Y-101389715D01*
X139485714Y-101199239D01*
X139438095Y-101104001D01*
X139390476Y-101056382D01*
X139295238Y-101008763D01*
%TO.C,C5*%
X56157142Y-131166666D02*
X56204761Y-131214285D01*
X56252380Y-131357142D01*
X56252380Y-131452380D01*
X56204761Y-131595238D01*
X56109523Y-131690476D01*
X56014285Y-131738095D01*
X55823809Y-131785714D01*
X55680952Y-131785714D01*
X55490476Y-131738095D01*
X55395238Y-131690476D01*
X55300000Y-131595238D01*
X55252380Y-131452380D01*
X55252380Y-131357142D01*
X55300000Y-131214285D01*
X55347619Y-131166666D01*
X55252380Y-130261904D02*
X55252380Y-130738095D01*
X55728571Y-130785714D01*
X55680952Y-130738095D01*
X55633333Y-130642857D01*
X55633333Y-130404761D01*
X55680952Y-130309523D01*
X55728571Y-130261904D01*
X55823809Y-130214285D01*
X56061904Y-130214285D01*
X56157142Y-130261904D01*
X56204761Y-130309523D01*
X56252380Y-130404761D01*
X56252380Y-130642857D01*
X56204761Y-130738095D01*
X56157142Y-130785714D01*
%TO.C,U7*%
X154413095Y-68127380D02*
X154413095Y-68936904D01*
X154460714Y-69032142D01*
X154508333Y-69079761D01*
X154603571Y-69127380D01*
X154794047Y-69127380D01*
X154889285Y-69079761D01*
X154936904Y-69032142D01*
X154984523Y-68936904D01*
X154984523Y-68127380D01*
X155365476Y-68127380D02*
X156032142Y-68127380D01*
X155603571Y-69127380D01*
%TO.C,H3*%
X61688095Y-59952380D02*
X61688095Y-58952380D01*
X61688095Y-59428571D02*
X62259523Y-59428571D01*
X62259523Y-59952380D02*
X62259523Y-58952380D01*
X62640476Y-58952380D02*
X63259523Y-58952380D01*
X62926190Y-59333333D01*
X63069047Y-59333333D01*
X63164285Y-59380952D01*
X63211904Y-59428571D01*
X63259523Y-59523809D01*
X63259523Y-59761904D01*
X63211904Y-59857142D01*
X63164285Y-59904761D01*
X63069047Y-59952380D01*
X62783333Y-59952380D01*
X62688095Y-59904761D01*
X62640476Y-59857142D01*
%TO.C,H4*%
X121031095Y-108901380D02*
X121031095Y-107901380D01*
X121031095Y-108377571D02*
X121602523Y-108377571D01*
X121602523Y-108901380D02*
X121602523Y-107901380D01*
X122507285Y-108234714D02*
X122507285Y-108901380D01*
X122269190Y-107853761D02*
X122031095Y-108568047D01*
X122650142Y-108568047D01*
%TO.C,D4*%
X153561904Y-114744046D02*
X153561904Y-113744046D01*
X153800000Y-113744046D01*
X153942857Y-113791666D01*
X154038095Y-113886904D01*
X154085714Y-113982142D01*
X154133333Y-114172618D01*
X154133333Y-114315475D01*
X154085714Y-114505951D01*
X154038095Y-114601189D01*
X153942857Y-114696427D01*
X153800000Y-114744046D01*
X153561904Y-114744046D01*
X154990476Y-114077380D02*
X154990476Y-114744046D01*
X154752380Y-113696427D02*
X154514285Y-114410713D01*
X155133333Y-114410713D01*
X147576190Y-114266666D02*
X148052380Y-114266666D01*
X147480952Y-114552380D02*
X147814285Y-113552380D01*
X148147619Y-114552380D01*
X148480952Y-114552380D02*
X148480952Y-113552380D01*
X148719047Y-113552380D01*
X148861904Y-113600000D01*
X148957142Y-113695238D01*
X149004761Y-113790476D01*
X149052380Y-113980952D01*
X149052380Y-114123809D01*
X149004761Y-114314285D01*
X148957142Y-114409523D01*
X148861904Y-114504761D01*
X148719047Y-114552380D01*
X148480952Y-114552380D01*
X149433333Y-114266666D02*
X149909523Y-114266666D01*
X149338095Y-114552380D02*
X149671428Y-113552380D01*
X150004761Y-114552380D01*
X150195238Y-113552380D02*
X150766666Y-113552380D01*
X150480952Y-114552380D02*
X150480952Y-113552380D01*
X151004761Y-113552380D02*
X151623809Y-113552380D01*
X151290476Y-113933333D01*
X151433333Y-113933333D01*
X151528571Y-113980952D01*
X151576190Y-114028571D01*
X151623809Y-114123809D01*
X151623809Y-114361904D01*
X151576190Y-114457142D01*
X151528571Y-114504761D01*
X151433333Y-114552380D01*
X151147619Y-114552380D01*
X151052380Y-114504761D01*
X151004761Y-114457142D01*
%TO.C,R13*%
X146732142Y-87752380D02*
X146398809Y-87276190D01*
X146160714Y-87752380D02*
X146160714Y-86752380D01*
X146541666Y-86752380D01*
X146636904Y-86800000D01*
X146684523Y-86847619D01*
X146732142Y-86942857D01*
X146732142Y-87085714D01*
X146684523Y-87180952D01*
X146636904Y-87228571D01*
X146541666Y-87276190D01*
X146160714Y-87276190D01*
X147684523Y-87752380D02*
X147113095Y-87752380D01*
X147398809Y-87752380D02*
X147398809Y-86752380D01*
X147303571Y-86895238D01*
X147208333Y-86990476D01*
X147113095Y-87038095D01*
X148017857Y-86752380D02*
X148636904Y-86752380D01*
X148303571Y-87133333D01*
X148446428Y-87133333D01*
X148541666Y-87180952D01*
X148589285Y-87228571D01*
X148636904Y-87323809D01*
X148636904Y-87561904D01*
X148589285Y-87657142D01*
X148541666Y-87704761D01*
X148446428Y-87752380D01*
X148160714Y-87752380D01*
X148065476Y-87704761D01*
X148017857Y-87657142D01*
%TO.C,D5*%
X153561904Y-117485712D02*
X153561904Y-116485712D01*
X153800000Y-116485712D01*
X153942857Y-116533332D01*
X154038095Y-116628570D01*
X154085714Y-116723808D01*
X154133333Y-116914284D01*
X154133333Y-117057141D01*
X154085714Y-117247617D01*
X154038095Y-117342855D01*
X153942857Y-117438093D01*
X153800000Y-117485712D01*
X153561904Y-117485712D01*
X155038095Y-116485712D02*
X154561904Y-116485712D01*
X154514285Y-116961903D01*
X154561904Y-116914284D01*
X154657142Y-116866665D01*
X154895238Y-116866665D01*
X154990476Y-116914284D01*
X155038095Y-116961903D01*
X155085714Y-117057141D01*
X155085714Y-117295236D01*
X155038095Y-117390474D01*
X154990476Y-117438093D01*
X154895238Y-117485712D01*
X154657142Y-117485712D01*
X154561904Y-117438093D01*
X154514285Y-117390474D01*
X147576190Y-117166666D02*
X148052380Y-117166666D01*
X147480952Y-117452380D02*
X147814285Y-116452380D01*
X148147619Y-117452380D01*
X148480952Y-117452380D02*
X148480952Y-116452380D01*
X148719047Y-116452380D01*
X148861904Y-116500000D01*
X148957142Y-116595238D01*
X149004761Y-116690476D01*
X149052380Y-116880952D01*
X149052380Y-117023809D01*
X149004761Y-117214285D01*
X148957142Y-117309523D01*
X148861904Y-117404761D01*
X148719047Y-117452380D01*
X148480952Y-117452380D01*
X149433333Y-117166666D02*
X149909523Y-117166666D01*
X149338095Y-117452380D02*
X149671428Y-116452380D01*
X150004761Y-117452380D01*
X150195238Y-116452380D02*
X150766666Y-116452380D01*
X150480952Y-117452380D02*
X150480952Y-116452380D01*
X151052380Y-116547619D02*
X151100000Y-116500000D01*
X151195238Y-116452380D01*
X151433333Y-116452380D01*
X151528571Y-116500000D01*
X151576190Y-116547619D01*
X151623809Y-116642857D01*
X151623809Y-116738095D01*
X151576190Y-116880952D01*
X151004761Y-117452380D01*
X151623809Y-117452380D01*
%TO.C,C7*%
X55957142Y-75466666D02*
X56004761Y-75514285D01*
X56052380Y-75657142D01*
X56052380Y-75752380D01*
X56004761Y-75895238D01*
X55909523Y-75990476D01*
X55814285Y-76038095D01*
X55623809Y-76085714D01*
X55480952Y-76085714D01*
X55290476Y-76038095D01*
X55195238Y-75990476D01*
X55100000Y-75895238D01*
X55052380Y-75752380D01*
X55052380Y-75657142D01*
X55100000Y-75514285D01*
X55147619Y-75466666D01*
X55052380Y-75133333D02*
X55052380Y-74466666D01*
X56052380Y-74895238D01*
%TO.C,J10*%
X106525476Y-41222380D02*
X106525476Y-41936666D01*
X106477857Y-42079523D01*
X106382619Y-42174761D01*
X106239761Y-42222380D01*
X106144523Y-42222380D01*
X107525476Y-42222380D02*
X106954047Y-42222380D01*
X107239761Y-42222380D02*
X107239761Y-41222380D01*
X107144523Y-41365238D01*
X107049285Y-41460476D01*
X106954047Y-41508095D01*
X108144523Y-41222380D02*
X108239761Y-41222380D01*
X108335000Y-41270000D01*
X108382619Y-41317619D01*
X108430238Y-41412857D01*
X108477857Y-41603333D01*
X108477857Y-41841428D01*
X108430238Y-42031904D01*
X108382619Y-42127142D01*
X108335000Y-42174761D01*
X108239761Y-42222380D01*
X108144523Y-42222380D01*
X108049285Y-42174761D01*
X108001666Y-42127142D01*
X107954047Y-42031904D01*
X107906428Y-41841428D01*
X107906428Y-41603333D01*
X107954047Y-41412857D01*
X108001666Y-41317619D01*
X108049285Y-41270000D01*
X108144523Y-41222380D01*
%TO.C,R14*%
X151077142Y-81672380D02*
X150743809Y-81196190D01*
X150505714Y-81672380D02*
X150505714Y-80672380D01*
X150886666Y-80672380D01*
X150981904Y-80720000D01*
X151029523Y-80767619D01*
X151077142Y-80862857D01*
X151077142Y-81005714D01*
X151029523Y-81100952D01*
X150981904Y-81148571D01*
X150886666Y-81196190D01*
X150505714Y-81196190D01*
X152029523Y-81672380D02*
X151458095Y-81672380D01*
X151743809Y-81672380D02*
X151743809Y-80672380D01*
X151648571Y-80815238D01*
X151553333Y-80910476D01*
X151458095Y-80958095D01*
X152886666Y-81005714D02*
X152886666Y-81672380D01*
X152648571Y-80624761D02*
X152410476Y-81339047D01*
X153029523Y-81339047D01*
%TO.C,C12*%
X137327142Y-84287142D02*
X137279523Y-84334761D01*
X137136666Y-84382380D01*
X137041428Y-84382380D01*
X136898571Y-84334761D01*
X136803333Y-84239523D01*
X136755714Y-84144285D01*
X136708095Y-83953809D01*
X136708095Y-83810952D01*
X136755714Y-83620476D01*
X136803333Y-83525238D01*
X136898571Y-83430000D01*
X137041428Y-83382380D01*
X137136666Y-83382380D01*
X137279523Y-83430000D01*
X137327142Y-83477619D01*
X138279523Y-84382380D02*
X137708095Y-84382380D01*
X137993809Y-84382380D02*
X137993809Y-83382380D01*
X137898571Y-83525238D01*
X137803333Y-83620476D01*
X137708095Y-83668095D01*
X138660476Y-83477619D02*
X138708095Y-83430000D01*
X138803333Y-83382380D01*
X139041428Y-83382380D01*
X139136666Y-83430000D01*
X139184285Y-83477619D01*
X139231904Y-83572857D01*
X139231904Y-83668095D01*
X139184285Y-83810952D01*
X138612857Y-84382380D01*
X139231904Y-84382380D01*
%TO.C,R17*%
X145312380Y-47582857D02*
X144836190Y-47916190D01*
X145312380Y-48154285D02*
X144312380Y-48154285D01*
X144312380Y-47773333D01*
X144360000Y-47678095D01*
X144407619Y-47630476D01*
X144502857Y-47582857D01*
X144645714Y-47582857D01*
X144740952Y-47630476D01*
X144788571Y-47678095D01*
X144836190Y-47773333D01*
X144836190Y-48154285D01*
X145312380Y-46630476D02*
X145312380Y-47201904D01*
X145312380Y-46916190D02*
X144312380Y-46916190D01*
X144455238Y-47011428D01*
X144550476Y-47106666D01*
X144598095Y-47201904D01*
X144312380Y-46297142D02*
X144312380Y-45630476D01*
X145312380Y-46059047D01*
%TO.C,C11*%
X148957142Y-71642857D02*
X149004761Y-71690476D01*
X149052380Y-71833333D01*
X149052380Y-71928571D01*
X149004761Y-72071428D01*
X148909523Y-72166666D01*
X148814285Y-72214285D01*
X148623809Y-72261904D01*
X148480952Y-72261904D01*
X148290476Y-72214285D01*
X148195238Y-72166666D01*
X148100000Y-72071428D01*
X148052380Y-71928571D01*
X148052380Y-71833333D01*
X148100000Y-71690476D01*
X148147619Y-71642857D01*
X149052380Y-70690476D02*
X149052380Y-71261904D01*
X149052380Y-70976190D02*
X148052380Y-70976190D01*
X148195238Y-71071428D01*
X148290476Y-71166666D01*
X148338095Y-71261904D01*
X149052380Y-69738095D02*
X149052380Y-70309523D01*
X149052380Y-70023809D02*
X148052380Y-70023809D01*
X148195238Y-70119047D01*
X148290476Y-70214285D01*
X148338095Y-70309523D01*
%TO.C,L4*%
X59252380Y-112166666D02*
X59252380Y-112642857D01*
X58252380Y-112642857D01*
X58585714Y-111404761D02*
X59252380Y-111404761D01*
X58204761Y-111642857D02*
X58919047Y-111880952D01*
X58919047Y-111261904D01*
%TO.C,R18*%
X145632142Y-79877380D02*
X145298809Y-79401190D01*
X145060714Y-79877380D02*
X145060714Y-78877380D01*
X145441666Y-78877380D01*
X145536904Y-78925000D01*
X145584523Y-78972619D01*
X145632142Y-79067857D01*
X145632142Y-79210714D01*
X145584523Y-79305952D01*
X145536904Y-79353571D01*
X145441666Y-79401190D01*
X145060714Y-79401190D01*
X146584523Y-79877380D02*
X146013095Y-79877380D01*
X146298809Y-79877380D02*
X146298809Y-78877380D01*
X146203571Y-79020238D01*
X146108333Y-79115476D01*
X146013095Y-79163095D01*
X147155952Y-79305952D02*
X147060714Y-79258333D01*
X147013095Y-79210714D01*
X146965476Y-79115476D01*
X146965476Y-79067857D01*
X147013095Y-78972619D01*
X147060714Y-78925000D01*
X147155952Y-78877380D01*
X147346428Y-78877380D01*
X147441666Y-78925000D01*
X147489285Y-78972619D01*
X147536904Y-79067857D01*
X147536904Y-79115476D01*
X147489285Y-79210714D01*
X147441666Y-79258333D01*
X147346428Y-79305952D01*
X147155952Y-79305952D01*
X147060714Y-79353571D01*
X147013095Y-79401190D01*
X146965476Y-79496428D01*
X146965476Y-79686904D01*
X147013095Y-79782142D01*
X147060714Y-79829761D01*
X147155952Y-79877380D01*
X147346428Y-79877380D01*
X147441666Y-79829761D01*
X147489285Y-79782142D01*
X147536904Y-79686904D01*
X147536904Y-79496428D01*
X147489285Y-79401190D01*
X147441666Y-79353571D01*
X147346428Y-79305952D01*
%TO.C,U2*%
X54551704Y-52362846D02*
X55362228Y-52362846D01*
X55457584Y-52315168D01*
X55505262Y-52267490D01*
X55552940Y-52172134D01*
X55552940Y-51981423D01*
X55505262Y-51886067D01*
X55457584Y-51838389D01*
X55362228Y-51790711D01*
X54551704Y-51790711D01*
X54647059Y-51361610D02*
X54599382Y-51313932D01*
X54551704Y-51218576D01*
X54551704Y-50980187D01*
X54599382Y-50884831D01*
X54647059Y-50837153D01*
X54742415Y-50789475D01*
X54837771Y-50789475D01*
X54980805Y-50837153D01*
X55552940Y-51409288D01*
X55552940Y-50789475D01*
%TO.C,D1*%
X153561904Y-129185716D02*
X153561904Y-128185716D01*
X153800000Y-128185716D01*
X153942857Y-128233336D01*
X154038095Y-128328574D01*
X154085714Y-128423812D01*
X154133333Y-128614288D01*
X154133333Y-128757145D01*
X154085714Y-128947621D01*
X154038095Y-129042859D01*
X153942857Y-129138097D01*
X153800000Y-129185716D01*
X153561904Y-129185716D01*
X155085714Y-129185716D02*
X154514285Y-129185716D01*
X154800000Y-129185716D02*
X154800000Y-128185716D01*
X154704761Y-128328574D01*
X154609523Y-128423812D01*
X154514285Y-128471431D01*
X147623809Y-129002380D02*
X147623809Y-128002380D01*
X147623809Y-128478571D02*
X148195238Y-128478571D01*
X148195238Y-129002380D02*
X148195238Y-128002380D01*
X148814285Y-129002380D02*
X148719047Y-128954761D01*
X148671428Y-128907142D01*
X148623809Y-128811904D01*
X148623809Y-128526190D01*
X148671428Y-128430952D01*
X148719047Y-128383333D01*
X148814285Y-128335714D01*
X148957142Y-128335714D01*
X149052381Y-128383333D01*
X149100000Y-128430952D01*
X149147619Y-128526190D01*
X149147619Y-128811904D01*
X149100000Y-128907142D01*
X149052381Y-128954761D01*
X148957142Y-129002380D01*
X148814285Y-129002380D01*
X149528571Y-128954761D02*
X149623809Y-129002380D01*
X149814285Y-129002380D01*
X149909523Y-128954761D01*
X149957142Y-128859523D01*
X149957142Y-128811904D01*
X149909523Y-128716666D01*
X149814285Y-128669047D01*
X149671428Y-128669047D01*
X149576190Y-128621428D01*
X149528571Y-128526190D01*
X149528571Y-128478571D01*
X149576190Y-128383333D01*
X149671428Y-128335714D01*
X149814285Y-128335714D01*
X149909523Y-128383333D01*
X150242857Y-128335714D02*
X150623809Y-128335714D01*
X150385714Y-128002380D02*
X150385714Y-128859523D01*
X150433333Y-128954761D01*
X150528571Y-129002380D01*
X150623809Y-129002380D01*
%TO.C,C3*%
X56157142Y-85766666D02*
X56204761Y-85814285D01*
X56252380Y-85957142D01*
X56252380Y-86052380D01*
X56204761Y-86195238D01*
X56109523Y-86290476D01*
X56014285Y-86338095D01*
X55823809Y-86385714D01*
X55680952Y-86385714D01*
X55490476Y-86338095D01*
X55395238Y-86290476D01*
X55300000Y-86195238D01*
X55252380Y-86052380D01*
X55252380Y-85957142D01*
X55300000Y-85814285D01*
X55347619Y-85766666D01*
X55252380Y-85433333D02*
X55252380Y-84814285D01*
X55633333Y-85147619D01*
X55633333Y-85004761D01*
X55680952Y-84909523D01*
X55728571Y-84861904D01*
X55823809Y-84814285D01*
X56061904Y-84814285D01*
X56157142Y-84861904D01*
X56204761Y-84909523D01*
X56252380Y-85004761D01*
X56252380Y-85290476D01*
X56204761Y-85385714D01*
X56157142Y-85433333D01*
%TO.C,C21*%
X151457142Y-97607142D02*
X151409523Y-97654761D01*
X151266666Y-97702380D01*
X151171428Y-97702380D01*
X151028571Y-97654761D01*
X150933333Y-97559523D01*
X150885714Y-97464285D01*
X150838095Y-97273809D01*
X150838095Y-97130952D01*
X150885714Y-96940476D01*
X150933333Y-96845238D01*
X151028571Y-96750000D01*
X151171428Y-96702380D01*
X151266666Y-96702380D01*
X151409523Y-96750000D01*
X151457142Y-96797619D01*
X151838095Y-96797619D02*
X151885714Y-96750000D01*
X151980952Y-96702380D01*
X152219047Y-96702380D01*
X152314285Y-96750000D01*
X152361904Y-96797619D01*
X152409523Y-96892857D01*
X152409523Y-96988095D01*
X152361904Y-97130952D01*
X151790476Y-97702380D01*
X152409523Y-97702380D01*
X153361904Y-97702380D02*
X152790476Y-97702380D01*
X153076190Y-97702380D02*
X153076190Y-96702380D01*
X152980952Y-96845238D01*
X152885714Y-96940476D01*
X152790476Y-96988095D01*
%TO.C,L1*%
X58852380Y-139966666D02*
X58852380Y-140442857D01*
X57852380Y-140442857D01*
X58852380Y-139109523D02*
X58852380Y-139680952D01*
X58852380Y-139395238D02*
X57852380Y-139395238D01*
X57995238Y-139490476D01*
X58090476Y-139585714D01*
X58138095Y-139680952D01*
%TO.C,J3*%
X129586666Y-39032380D02*
X129586666Y-39746666D01*
X129539047Y-39889523D01*
X129443809Y-39984761D01*
X129300952Y-40032380D01*
X129205714Y-40032380D01*
X129967619Y-39032380D02*
X130586666Y-39032380D01*
X130253333Y-39413333D01*
X130396190Y-39413333D01*
X130491428Y-39460952D01*
X130539047Y-39508571D01*
X130586666Y-39603809D01*
X130586666Y-39841904D01*
X130539047Y-39937142D01*
X130491428Y-39984761D01*
X130396190Y-40032380D01*
X130110476Y-40032380D01*
X130015238Y-39984761D01*
X129967619Y-39937142D01*
%TO.C,C14*%
X137017142Y-55827142D02*
X136969523Y-55874761D01*
X136826666Y-55922380D01*
X136731428Y-55922380D01*
X136588571Y-55874761D01*
X136493333Y-55779523D01*
X136445714Y-55684285D01*
X136398095Y-55493809D01*
X136398095Y-55350952D01*
X136445714Y-55160476D01*
X136493333Y-55065238D01*
X136588571Y-54970000D01*
X136731428Y-54922380D01*
X136826666Y-54922380D01*
X136969523Y-54970000D01*
X137017142Y-55017619D01*
X137969523Y-55922380D02*
X137398095Y-55922380D01*
X137683809Y-55922380D02*
X137683809Y-54922380D01*
X137588571Y-55065238D01*
X137493333Y-55160476D01*
X137398095Y-55208095D01*
X138826666Y-55255714D02*
X138826666Y-55922380D01*
X138588571Y-54874761D02*
X138350476Y-55589047D01*
X138969523Y-55589047D01*
%TO.C,C2*%
X56057142Y-58266666D02*
X56104761Y-58314285D01*
X56152380Y-58457142D01*
X56152380Y-58552380D01*
X56104761Y-58695238D01*
X56009523Y-58790476D01*
X55914285Y-58838095D01*
X55723809Y-58885714D01*
X55580952Y-58885714D01*
X55390476Y-58838095D01*
X55295238Y-58790476D01*
X55200000Y-58695238D01*
X55152380Y-58552380D01*
X55152380Y-58457142D01*
X55200000Y-58314285D01*
X55247619Y-58266666D01*
X55247619Y-57885714D02*
X55200000Y-57838095D01*
X55152380Y-57742857D01*
X55152380Y-57504761D01*
X55200000Y-57409523D01*
X55247619Y-57361904D01*
X55342857Y-57314285D01*
X55438095Y-57314285D01*
X55580952Y-57361904D01*
X56152380Y-57933333D01*
X56152380Y-57314285D01*
%TO.C,R3*%
X138633333Y-111742380D02*
X138300000Y-111266190D01*
X138061904Y-111742380D02*
X138061904Y-110742380D01*
X138442857Y-110742380D01*
X138538095Y-110790000D01*
X138585714Y-110837619D01*
X138633333Y-110932857D01*
X138633333Y-111075714D01*
X138585714Y-111170952D01*
X138538095Y-111218571D01*
X138442857Y-111266190D01*
X138061904Y-111266190D01*
X138966666Y-110742380D02*
X139585714Y-110742380D01*
X139252380Y-111123333D01*
X139395238Y-111123333D01*
X139490476Y-111170952D01*
X139538095Y-111218571D01*
X139585714Y-111313809D01*
X139585714Y-111551904D01*
X139538095Y-111647142D01*
X139490476Y-111694761D01*
X139395238Y-111742380D01*
X139109523Y-111742380D01*
X139014285Y-111694761D01*
X138966666Y-111647142D01*
%TO.C,J7*%
X84061666Y-38965380D02*
X84061666Y-39679666D01*
X84014047Y-39822523D01*
X83918809Y-39917761D01*
X83775952Y-39965380D01*
X83680714Y-39965380D01*
X84442619Y-38965380D02*
X85109285Y-38965380D01*
X84680714Y-39965380D01*
%TO.C,J6*%
X98656666Y-129632380D02*
X98656666Y-130346666D01*
X98609047Y-130489523D01*
X98513809Y-130584761D01*
X98370952Y-130632380D01*
X98275714Y-130632380D01*
X99561428Y-129632380D02*
X99370952Y-129632380D01*
X99275714Y-129680000D01*
X99228095Y-129727619D01*
X99132857Y-129870476D01*
X99085238Y-130060952D01*
X99085238Y-130441904D01*
X99132857Y-130537142D01*
X99180476Y-130584761D01*
X99275714Y-130632380D01*
X99466190Y-130632380D01*
X99561428Y-130584761D01*
X99609047Y-130537142D01*
X99656666Y-130441904D01*
X99656666Y-130203809D01*
X99609047Y-130108571D01*
X99561428Y-130060952D01*
X99466190Y-130013333D01*
X99275714Y-130013333D01*
X99180476Y-130060952D01*
X99132857Y-130108571D01*
X99085238Y-130203809D01*
%TO.C,R12*%
X157007142Y-62872380D02*
X156673809Y-62396190D01*
X156435714Y-62872380D02*
X156435714Y-61872380D01*
X156816666Y-61872380D01*
X156911904Y-61920000D01*
X156959523Y-61967619D01*
X157007142Y-62062857D01*
X157007142Y-62205714D01*
X156959523Y-62300952D01*
X156911904Y-62348571D01*
X156816666Y-62396190D01*
X156435714Y-62396190D01*
X157959523Y-62872380D02*
X157388095Y-62872380D01*
X157673809Y-62872380D02*
X157673809Y-61872380D01*
X157578571Y-62015238D01*
X157483333Y-62110476D01*
X157388095Y-62158095D01*
X158340476Y-61967619D02*
X158388095Y-61920000D01*
X158483333Y-61872380D01*
X158721428Y-61872380D01*
X158816666Y-61920000D01*
X158864285Y-61967619D01*
X158911904Y-62062857D01*
X158911904Y-62158095D01*
X158864285Y-62300952D01*
X158292857Y-62872380D01*
X158911904Y-62872380D01*
%TO.C,TP5*%
X156538095Y-65854380D02*
X157109523Y-65854380D01*
X156823809Y-66854380D02*
X156823809Y-65854380D01*
X157442857Y-66854380D02*
X157442857Y-65854380D01*
X157823809Y-65854380D01*
X157919047Y-65902000D01*
X157966666Y-65949619D01*
X158014285Y-66044857D01*
X158014285Y-66187714D01*
X157966666Y-66282952D01*
X157919047Y-66330571D01*
X157823809Y-66378190D01*
X157442857Y-66378190D01*
X158919047Y-65854380D02*
X158442857Y-65854380D01*
X158395238Y-66330571D01*
X158442857Y-66282952D01*
X158538095Y-66235333D01*
X158776190Y-66235333D01*
X158871428Y-66282952D01*
X158919047Y-66330571D01*
X158966666Y-66425809D01*
X158966666Y-66663904D01*
X158919047Y-66759142D01*
X158871428Y-66806761D01*
X158776190Y-66854380D01*
X158538095Y-66854380D01*
X158442857Y-66806761D01*
X158395238Y-66759142D01*
%TO.C,J4*%
X160666666Y-78952380D02*
X160666666Y-79666666D01*
X160619047Y-79809523D01*
X160523809Y-79904761D01*
X160380952Y-79952380D01*
X160285714Y-79952380D01*
X161571428Y-79285714D02*
X161571428Y-79952380D01*
X161333333Y-78904761D02*
X161095238Y-79619047D01*
X161714285Y-79619047D01*
%TO.C,C1*%
X56157142Y-141566666D02*
X56204761Y-141614285D01*
X56252380Y-141757142D01*
X56252380Y-141852380D01*
X56204761Y-141995238D01*
X56109523Y-142090476D01*
X56014285Y-142138095D01*
X55823809Y-142185714D01*
X55680952Y-142185714D01*
X55490476Y-142138095D01*
X55395238Y-142090476D01*
X55300000Y-141995238D01*
X55252380Y-141852380D01*
X55252380Y-141757142D01*
X55300000Y-141614285D01*
X55347619Y-141566666D01*
X56252380Y-140614285D02*
X56252380Y-141185714D01*
X56252380Y-140900000D02*
X55252380Y-140900000D01*
X55395238Y-140995238D01*
X55490476Y-141090476D01*
X55538095Y-141185714D01*
%TO.C,D2*%
X153561904Y-123352380D02*
X153561904Y-122352380D01*
X153800000Y-122352380D01*
X153942857Y-122400000D01*
X154038095Y-122495238D01*
X154085714Y-122590476D01*
X154133333Y-122780952D01*
X154133333Y-122923809D01*
X154085714Y-123114285D01*
X154038095Y-123209523D01*
X153942857Y-123304761D01*
X153800000Y-123352380D01*
X153561904Y-123352380D01*
X154514285Y-122447619D02*
X154561904Y-122400000D01*
X154657142Y-122352380D01*
X154895238Y-122352380D01*
X154990476Y-122400000D01*
X155038095Y-122447619D01*
X155085714Y-122542857D01*
X155085714Y-122638095D01*
X155038095Y-122780952D01*
X154466666Y-123352380D01*
X155085714Y-123352380D01*
X147623809Y-122219044D02*
X147623809Y-123028568D01*
X147671428Y-123123806D01*
X147719047Y-123171425D01*
X147814285Y-123219044D01*
X148004762Y-123219044D01*
X148100000Y-123171425D01*
X148147619Y-123123806D01*
X148195238Y-123028568D01*
X148195238Y-122219044D01*
X148623809Y-123171425D02*
X148766666Y-123219044D01*
X149004762Y-123219044D01*
X149100000Y-123171425D01*
X149147619Y-123123806D01*
X149195238Y-123028568D01*
X149195238Y-122933330D01*
X149147619Y-122838092D01*
X149100000Y-122790473D01*
X149004762Y-122742854D01*
X148814285Y-122695235D01*
X148719047Y-122647616D01*
X148671428Y-122599997D01*
X148623809Y-122504759D01*
X148623809Y-122409521D01*
X148671428Y-122314283D01*
X148719047Y-122266664D01*
X148814285Y-122219044D01*
X149052381Y-122219044D01*
X149195238Y-122266664D01*
X149957143Y-122695235D02*
X150100000Y-122742854D01*
X150147619Y-122790473D01*
X150195238Y-122885711D01*
X150195238Y-123028568D01*
X150147619Y-123123806D01*
X150100000Y-123171425D01*
X150004762Y-123219044D01*
X149623809Y-123219044D01*
X149623809Y-122219044D01*
X149957143Y-122219044D01*
X150052381Y-122266664D01*
X150100000Y-122314283D01*
X150147619Y-122409521D01*
X150147619Y-122504759D01*
X150100000Y-122599997D01*
X150052381Y-122647616D01*
X149957143Y-122695235D01*
X149623809Y-122695235D01*
X150576190Y-122314283D02*
X150623809Y-122266664D01*
X150719047Y-122219044D01*
X150957143Y-122219044D01*
X151052381Y-122266664D01*
X151100000Y-122314283D01*
X151147619Y-122409521D01*
X151147619Y-122504759D01*
X151100000Y-122647616D01*
X150528571Y-123219044D01*
X151147619Y-123219044D01*
%TO.C,D12*%
X158885714Y-46452380D02*
X158885714Y-45452380D01*
X159123809Y-45452380D01*
X159266666Y-45500000D01*
X159361904Y-45595238D01*
X159409523Y-45690476D01*
X159457142Y-45880952D01*
X159457142Y-46023809D01*
X159409523Y-46214285D01*
X159361904Y-46309523D01*
X159266666Y-46404761D01*
X159123809Y-46452380D01*
X158885714Y-46452380D01*
X160409523Y-46452380D02*
X159838095Y-46452380D01*
X160123809Y-46452380D02*
X160123809Y-45452380D01*
X160028571Y-45595238D01*
X159933333Y-45690476D01*
X159838095Y-45738095D01*
X160790476Y-45547619D02*
X160838095Y-45500000D01*
X160933333Y-45452380D01*
X161171428Y-45452380D01*
X161266666Y-45500000D01*
X161314285Y-45547619D01*
X161361904Y-45642857D01*
X161361904Y-45738095D01*
X161314285Y-45880952D01*
X160742857Y-46452380D01*
X161361904Y-46452380D01*
%TO.C,R24*%
X148182380Y-63067857D02*
X147706190Y-63401190D01*
X148182380Y-63639285D02*
X147182380Y-63639285D01*
X147182380Y-63258333D01*
X147230000Y-63163095D01*
X147277619Y-63115476D01*
X147372857Y-63067857D01*
X147515714Y-63067857D01*
X147610952Y-63115476D01*
X147658571Y-63163095D01*
X147706190Y-63258333D01*
X147706190Y-63639285D01*
X147277619Y-62686904D02*
X147230000Y-62639285D01*
X147182380Y-62544047D01*
X147182380Y-62305952D01*
X147230000Y-62210714D01*
X147277619Y-62163095D01*
X147372857Y-62115476D01*
X147468095Y-62115476D01*
X147610952Y-62163095D01*
X148182380Y-62734523D01*
X148182380Y-62115476D01*
X147515714Y-61258333D02*
X148182380Y-61258333D01*
X147134761Y-61496428D02*
X147849047Y-61734523D01*
X147849047Y-61115476D01*
%TO.C,R15*%
X149207142Y-60182380D02*
X148873809Y-59706190D01*
X148635714Y-60182380D02*
X148635714Y-59182380D01*
X149016666Y-59182380D01*
X149111904Y-59230000D01*
X149159523Y-59277619D01*
X149207142Y-59372857D01*
X149207142Y-59515714D01*
X149159523Y-59610952D01*
X149111904Y-59658571D01*
X149016666Y-59706190D01*
X148635714Y-59706190D01*
X150159523Y-60182380D02*
X149588095Y-60182380D01*
X149873809Y-60182380D02*
X149873809Y-59182380D01*
X149778571Y-59325238D01*
X149683333Y-59420476D01*
X149588095Y-59468095D01*
X151064285Y-59182380D02*
X150588095Y-59182380D01*
X150540476Y-59658571D01*
X150588095Y-59610952D01*
X150683333Y-59563333D01*
X150921428Y-59563333D01*
X151016666Y-59610952D01*
X151064285Y-59658571D01*
X151111904Y-59753809D01*
X151111904Y-59991904D01*
X151064285Y-60087142D01*
X151016666Y-60134761D01*
X150921428Y-60182380D01*
X150683333Y-60182380D01*
X150588095Y-60134761D01*
X150540476Y-60087142D01*
%TO.C,D9*%
X142286904Y-109204344D02*
X142286904Y-108204344D01*
X142525000Y-108204344D01*
X142667857Y-108251964D01*
X142763095Y-108347202D01*
X142810714Y-108442440D01*
X142858333Y-108632916D01*
X142858333Y-108775773D01*
X142810714Y-108966249D01*
X142763095Y-109061487D01*
X142667857Y-109156725D01*
X142525000Y-109204344D01*
X142286904Y-109204344D01*
X143334523Y-109204344D02*
X143525000Y-109204344D01*
X143620238Y-109156725D01*
X143667857Y-109109106D01*
X143763095Y-108966249D01*
X143810714Y-108775773D01*
X143810714Y-108394821D01*
X143763095Y-108299583D01*
X143715476Y-108251964D01*
X143620238Y-108204344D01*
X143429761Y-108204344D01*
X143334523Y-108251964D01*
X143286904Y-108299583D01*
X143239285Y-108394821D01*
X143239285Y-108632916D01*
X143286904Y-108728154D01*
X143334523Y-108775773D01*
X143429761Y-108823392D01*
X143620238Y-108823392D01*
X143715476Y-108775773D01*
X143763095Y-108728154D01*
X143810714Y-108632916D01*
X148259263Y-109155491D02*
X148402120Y-109203110D01*
X148640215Y-109203110D01*
X148735453Y-109155491D01*
X148783072Y-109107872D01*
X148830691Y-109012634D01*
X148830691Y-108917396D01*
X148783072Y-108822158D01*
X148735453Y-108774539D01*
X148640215Y-108726920D01*
X148449739Y-108679301D01*
X148354501Y-108631682D01*
X148306882Y-108584063D01*
X148259263Y-108488825D01*
X148259263Y-108393587D01*
X148306882Y-108298349D01*
X148354501Y-108250730D01*
X148449739Y-108203110D01*
X148687834Y-108203110D01*
X148830691Y-108250730D01*
X149259263Y-108203110D02*
X149259263Y-109012634D01*
X149306882Y-109107872D01*
X149354501Y-109155491D01*
X149449739Y-109203110D01*
X149640215Y-109203110D01*
X149735453Y-109155491D01*
X149783072Y-109107872D01*
X149830691Y-109012634D01*
X149830691Y-108203110D01*
X150259263Y-109155491D02*
X150402120Y-109203110D01*
X150640215Y-109203110D01*
X150735453Y-109155491D01*
X150783072Y-109107872D01*
X150830691Y-109012634D01*
X150830691Y-108917396D01*
X150783072Y-108822158D01*
X150735453Y-108774539D01*
X150640215Y-108726920D01*
X150449739Y-108679301D01*
X150354501Y-108631682D01*
X150306882Y-108584063D01*
X150259263Y-108488825D01*
X150259263Y-108393587D01*
X150306882Y-108298349D01*
X150354501Y-108250730D01*
X150449739Y-108203110D01*
X150687834Y-108203110D01*
X150830691Y-108250730D01*
X151259263Y-109203110D02*
X151259263Y-108203110D01*
X151640215Y-108203110D01*
X151735453Y-108250730D01*
X151783072Y-108298349D01*
X151830691Y-108393587D01*
X151830691Y-108536444D01*
X151783072Y-108631682D01*
X151735453Y-108679301D01*
X151640215Y-108726920D01*
X151259263Y-108726920D01*
X152783072Y-109203110D02*
X152211644Y-109203110D01*
X152497358Y-109203110D02*
X152497358Y-108203110D01*
X152402120Y-108345968D01*
X152306882Y-108441206D01*
X152211644Y-108488825D01*
%TO.C,R9*%
X138633333Y-104045738D02*
X138300000Y-103569548D01*
X138061904Y-104045738D02*
X138061904Y-103045738D01*
X138442857Y-103045738D01*
X138538095Y-103093358D01*
X138585714Y-103140977D01*
X138633333Y-103236215D01*
X138633333Y-103379072D01*
X138585714Y-103474310D01*
X138538095Y-103521929D01*
X138442857Y-103569548D01*
X138061904Y-103569548D01*
X139109523Y-104045738D02*
X139300000Y-104045738D01*
X139395238Y-103998119D01*
X139442857Y-103950500D01*
X139538095Y-103807643D01*
X139585714Y-103617167D01*
X139585714Y-103236215D01*
X139538095Y-103140977D01*
X139490476Y-103093358D01*
X139395238Y-103045738D01*
X139204761Y-103045738D01*
X139109523Y-103093358D01*
X139061904Y-103140977D01*
X139014285Y-103236215D01*
X139014285Y-103474310D01*
X139061904Y-103569548D01*
X139109523Y-103617167D01*
X139204761Y-103664786D01*
X139395238Y-103664786D01*
X139490476Y-103617167D01*
X139538095Y-103569548D01*
X139585714Y-103474310D01*
%TO.C,R1*%
X138633333Y-129142380D02*
X138300000Y-128666190D01*
X138061904Y-129142380D02*
X138061904Y-128142380D01*
X138442857Y-128142380D01*
X138538095Y-128190000D01*
X138585714Y-128237619D01*
X138633333Y-128332857D01*
X138633333Y-128475714D01*
X138585714Y-128570952D01*
X138538095Y-128618571D01*
X138442857Y-128666190D01*
X138061904Y-128666190D01*
X139585714Y-129142380D02*
X139014285Y-129142380D01*
X139300000Y-129142380D02*
X139300000Y-128142380D01*
X139204761Y-128285238D01*
X139109523Y-128380476D01*
X139014285Y-128428095D01*
%TO.C,U3*%
X54511296Y-80092601D02*
X55321820Y-80092601D01*
X55417176Y-80044923D01*
X55464854Y-79997245D01*
X55512532Y-79901889D01*
X55512532Y-79711178D01*
X55464854Y-79615822D01*
X55417176Y-79568144D01*
X55321820Y-79520466D01*
X54511296Y-79520466D01*
X54511296Y-79139043D02*
X54511296Y-78519230D01*
X54892719Y-78852975D01*
X54892719Y-78709942D01*
X54940397Y-78614586D01*
X54988075Y-78566908D01*
X55083430Y-78519230D01*
X55321820Y-78519230D01*
X55417176Y-78566908D01*
X55464854Y-78614586D01*
X55512532Y-78709942D01*
X55512532Y-78996009D01*
X55464854Y-79091365D01*
X55417176Y-79139043D01*
%TO.C,C8*%
X56757142Y-103166666D02*
X56804761Y-103214285D01*
X56852380Y-103357142D01*
X56852380Y-103452380D01*
X56804761Y-103595238D01*
X56709523Y-103690476D01*
X56614285Y-103738095D01*
X56423809Y-103785714D01*
X56280952Y-103785714D01*
X56090476Y-103738095D01*
X55995238Y-103690476D01*
X55900000Y-103595238D01*
X55852380Y-103452380D01*
X55852380Y-103357142D01*
X55900000Y-103214285D01*
X55947619Y-103166666D01*
X56280952Y-102595238D02*
X56233333Y-102690476D01*
X56185714Y-102738095D01*
X56090476Y-102785714D01*
X56042857Y-102785714D01*
X55947619Y-102738095D01*
X55900000Y-102690476D01*
X55852380Y-102595238D01*
X55852380Y-102404761D01*
X55900000Y-102309523D01*
X55947619Y-102261904D01*
X56042857Y-102214285D01*
X56090476Y-102214285D01*
X56185714Y-102261904D01*
X56233333Y-102309523D01*
X56280952Y-102404761D01*
X56280952Y-102595238D01*
X56328571Y-102690476D01*
X56376190Y-102738095D01*
X56471428Y-102785714D01*
X56661904Y-102785714D01*
X56757142Y-102738095D01*
X56804761Y-102690476D01*
X56852380Y-102595238D01*
X56852380Y-102404761D01*
X56804761Y-102309523D01*
X56757142Y-102261904D01*
X56661904Y-102214285D01*
X56471428Y-102214285D01*
X56376190Y-102261904D01*
X56328571Y-102309523D01*
X56280952Y-102404761D01*
%TO.C,R26*%
X147532380Y-77280357D02*
X147056190Y-77613690D01*
X147532380Y-77851785D02*
X146532380Y-77851785D01*
X146532380Y-77470833D01*
X146580000Y-77375595D01*
X146627619Y-77327976D01*
X146722857Y-77280357D01*
X146865714Y-77280357D01*
X146960952Y-77327976D01*
X147008571Y-77375595D01*
X147056190Y-77470833D01*
X147056190Y-77851785D01*
X146627619Y-76899404D02*
X146580000Y-76851785D01*
X146532380Y-76756547D01*
X146532380Y-76518452D01*
X146580000Y-76423214D01*
X146627619Y-76375595D01*
X146722857Y-76327976D01*
X146818095Y-76327976D01*
X146960952Y-76375595D01*
X147532380Y-76947023D01*
X147532380Y-76327976D01*
X146532380Y-75470833D02*
X146532380Y-75661309D01*
X146580000Y-75756547D01*
X146627619Y-75804166D01*
X146770476Y-75899404D01*
X146960952Y-75947023D01*
X147341904Y-75947023D01*
X147437142Y-75899404D01*
X147484761Y-75851785D01*
X147532380Y-75756547D01*
X147532380Y-75566071D01*
X147484761Y-75470833D01*
X147437142Y-75423214D01*
X147341904Y-75375595D01*
X147103809Y-75375595D01*
X147008571Y-75423214D01*
X146960952Y-75470833D01*
X146913333Y-75566071D01*
X146913333Y-75756547D01*
X146960952Y-75851785D01*
X147008571Y-75899404D01*
X147103809Y-75947023D01*
%TO.C,D6*%
X153561904Y-120302376D02*
X153561904Y-119302376D01*
X153800000Y-119302376D01*
X153942857Y-119349996D01*
X154038095Y-119445234D01*
X154085714Y-119540472D01*
X154133333Y-119730948D01*
X154133333Y-119873805D01*
X154085714Y-120064281D01*
X154038095Y-120159519D01*
X153942857Y-120254757D01*
X153800000Y-120302376D01*
X153561904Y-120302376D01*
X154990476Y-119302376D02*
X154800000Y-119302376D01*
X154704761Y-119349996D01*
X154657142Y-119397615D01*
X154561904Y-119540472D01*
X154514285Y-119730948D01*
X154514285Y-120111900D01*
X154561904Y-120207138D01*
X154609523Y-120254757D01*
X154704761Y-120302376D01*
X154895238Y-120302376D01*
X154990476Y-120254757D01*
X155038095Y-120207138D01*
X155085714Y-120111900D01*
X155085714Y-119873805D01*
X155038095Y-119778567D01*
X154990476Y-119730948D01*
X154895238Y-119683329D01*
X154704761Y-119683329D01*
X154609523Y-119730948D01*
X154561904Y-119778567D01*
X154514285Y-119873805D01*
X147476190Y-120166666D02*
X147952380Y-120166666D01*
X147380952Y-120452380D02*
X147714285Y-119452380D01*
X148047619Y-120452380D01*
X148380952Y-120452380D02*
X148380952Y-119452380D01*
X148619047Y-119452380D01*
X148761904Y-119500000D01*
X148857142Y-119595238D01*
X148904761Y-119690476D01*
X148952380Y-119880952D01*
X148952380Y-120023809D01*
X148904761Y-120214285D01*
X148857142Y-120309523D01*
X148761904Y-120404761D01*
X148619047Y-120452380D01*
X148380952Y-120452380D01*
X149333333Y-120166666D02*
X149809523Y-120166666D01*
X149238095Y-120452380D02*
X149571428Y-119452380D01*
X149904761Y-120452380D01*
X150095238Y-119452380D02*
X150666666Y-119452380D01*
X150380952Y-120452380D02*
X150380952Y-119452380D01*
X151523809Y-120452380D02*
X150952380Y-120452380D01*
X151238095Y-120452380D02*
X151238095Y-119452380D01*
X151142857Y-119595238D01*
X151047619Y-119690476D01*
X150952380Y-119738095D01*
%TO.C,R5*%
X138633333Y-117525712D02*
X138300000Y-117049522D01*
X138061904Y-117525712D02*
X138061904Y-116525712D01*
X138442857Y-116525712D01*
X138538095Y-116573332D01*
X138585714Y-116620951D01*
X138633333Y-116716189D01*
X138633333Y-116859046D01*
X138585714Y-116954284D01*
X138538095Y-117001903D01*
X138442857Y-117049522D01*
X138061904Y-117049522D01*
X139538095Y-116525712D02*
X139061904Y-116525712D01*
X139014285Y-117001903D01*
X139061904Y-116954284D01*
X139157142Y-116906665D01*
X139395238Y-116906665D01*
X139490476Y-116954284D01*
X139538095Y-117001903D01*
X139585714Y-117097141D01*
X139585714Y-117335236D01*
X139538095Y-117430474D01*
X139490476Y-117478093D01*
X139395238Y-117525712D01*
X139157142Y-117525712D01*
X139061904Y-117478093D01*
X139014285Y-117430474D01*
%TO.C,R23*%
X149257142Y-62982380D02*
X148923809Y-62506190D01*
X148685714Y-62982380D02*
X148685714Y-61982380D01*
X149066666Y-61982380D01*
X149161904Y-62030000D01*
X149209523Y-62077619D01*
X149257142Y-62172857D01*
X149257142Y-62315714D01*
X149209523Y-62410952D01*
X149161904Y-62458571D01*
X149066666Y-62506190D01*
X148685714Y-62506190D01*
X149638095Y-62077619D02*
X149685714Y-62030000D01*
X149780952Y-61982380D01*
X150019047Y-61982380D01*
X150114285Y-62030000D01*
X150161904Y-62077619D01*
X150209523Y-62172857D01*
X150209523Y-62268095D01*
X150161904Y-62410952D01*
X149590476Y-62982380D01*
X150209523Y-62982380D01*
X150542857Y-61982380D02*
X151161904Y-61982380D01*
X150828571Y-62363333D01*
X150971428Y-62363333D01*
X151066666Y-62410952D01*
X151114285Y-62458571D01*
X151161904Y-62553809D01*
X151161904Y-62791904D01*
X151114285Y-62887142D01*
X151066666Y-62934761D01*
X150971428Y-62982380D01*
X150685714Y-62982380D01*
X150590476Y-62934761D01*
X150542857Y-62887142D01*
%TO.C,C18*%
X147912142Y-51777857D02*
X147959761Y-51825476D01*
X148007380Y-51968333D01*
X148007380Y-52063571D01*
X147959761Y-52206428D01*
X147864523Y-52301666D01*
X147769285Y-52349285D01*
X147578809Y-52396904D01*
X147435952Y-52396904D01*
X147245476Y-52349285D01*
X147150238Y-52301666D01*
X147055000Y-52206428D01*
X147007380Y-52063571D01*
X147007380Y-51968333D01*
X147055000Y-51825476D01*
X147102619Y-51777857D01*
X148007380Y-50825476D02*
X148007380Y-51396904D01*
X148007380Y-51111190D02*
X147007380Y-51111190D01*
X147150238Y-51206428D01*
X147245476Y-51301666D01*
X147293095Y-51396904D01*
X147435952Y-50254047D02*
X147388333Y-50349285D01*
X147340714Y-50396904D01*
X147245476Y-50444523D01*
X147197857Y-50444523D01*
X147102619Y-50396904D01*
X147055000Y-50349285D01*
X147007380Y-50254047D01*
X147007380Y-50063571D01*
X147055000Y-49968333D01*
X147102619Y-49920714D01*
X147197857Y-49873095D01*
X147245476Y-49873095D01*
X147340714Y-49920714D01*
X147388333Y-49968333D01*
X147435952Y-50063571D01*
X147435952Y-50254047D01*
X147483571Y-50349285D01*
X147531190Y-50396904D01*
X147626428Y-50444523D01*
X147816904Y-50444523D01*
X147912142Y-50396904D01*
X147959761Y-50349285D01*
X148007380Y-50254047D01*
X148007380Y-50063571D01*
X147959761Y-49968333D01*
X147912142Y-49920714D01*
X147816904Y-49873095D01*
X147626428Y-49873095D01*
X147531190Y-49920714D01*
X147483571Y-49968333D01*
X147435952Y-50063571D01*
%TO.C,R11*%
X138628578Y-106552576D02*
X138295245Y-106076386D01*
X138057150Y-106552576D02*
X138057150Y-105552576D01*
X138438102Y-105552576D01*
X138533340Y-105600196D01*
X138580959Y-105647815D01*
X138628578Y-105743053D01*
X138628578Y-105885910D01*
X138580959Y-105981148D01*
X138533340Y-106028767D01*
X138438102Y-106076386D01*
X138057150Y-106076386D01*
X139580959Y-106552576D02*
X139009531Y-106552576D01*
X139295245Y-106552576D02*
X139295245Y-105552576D01*
X139200007Y-105695434D01*
X139104769Y-105790672D01*
X139009531Y-105838291D01*
X140533340Y-106552576D02*
X139961912Y-106552576D01*
X140247626Y-106552576D02*
X140247626Y-105552576D01*
X140152388Y-105695434D01*
X140057150Y-105790672D01*
X139961912Y-105838291D01*
%TO.C,R16*%
X150882142Y-53977380D02*
X150548809Y-53501190D01*
X150310714Y-53977380D02*
X150310714Y-52977380D01*
X150691666Y-52977380D01*
X150786904Y-53025000D01*
X150834523Y-53072619D01*
X150882142Y-53167857D01*
X150882142Y-53310714D01*
X150834523Y-53405952D01*
X150786904Y-53453571D01*
X150691666Y-53501190D01*
X150310714Y-53501190D01*
X151834523Y-53977380D02*
X151263095Y-53977380D01*
X151548809Y-53977380D02*
X151548809Y-52977380D01*
X151453571Y-53120238D01*
X151358333Y-53215476D01*
X151263095Y-53263095D01*
X152691666Y-52977380D02*
X152501190Y-52977380D01*
X152405952Y-53025000D01*
X152358333Y-53072619D01*
X152263095Y-53215476D01*
X152215476Y-53405952D01*
X152215476Y-53786904D01*
X152263095Y-53882142D01*
X152310714Y-53929761D01*
X152405952Y-53977380D01*
X152596428Y-53977380D01*
X152691666Y-53929761D01*
X152739285Y-53882142D01*
X152786904Y-53786904D01*
X152786904Y-53548809D01*
X152739285Y-53453571D01*
X152691666Y-53405952D01*
X152596428Y-53358333D01*
X152405952Y-53358333D01*
X152310714Y-53405952D01*
X152263095Y-53453571D01*
X152215476Y-53548809D01*
%TO.C,R19*%
X148994642Y-48052380D02*
X148661309Y-47576190D01*
X148423214Y-48052380D02*
X148423214Y-47052380D01*
X148804166Y-47052380D01*
X148899404Y-47100000D01*
X148947023Y-47147619D01*
X148994642Y-47242857D01*
X148994642Y-47385714D01*
X148947023Y-47480952D01*
X148899404Y-47528571D01*
X148804166Y-47576190D01*
X148423214Y-47576190D01*
X149947023Y-48052380D02*
X149375595Y-48052380D01*
X149661309Y-48052380D02*
X149661309Y-47052380D01*
X149566071Y-47195238D01*
X149470833Y-47290476D01*
X149375595Y-47338095D01*
X150423214Y-48052380D02*
X150613690Y-48052380D01*
X150708928Y-48004761D01*
X150756547Y-47957142D01*
X150851785Y-47814285D01*
X150899404Y-47623809D01*
X150899404Y-47242857D01*
X150851785Y-47147619D01*
X150804166Y-47100000D01*
X150708928Y-47052380D01*
X150518452Y-47052380D01*
X150423214Y-47100000D01*
X150375595Y-47147619D01*
X150327976Y-47242857D01*
X150327976Y-47480952D01*
X150375595Y-47576190D01*
X150423214Y-47623809D01*
X150518452Y-47671428D01*
X150708928Y-47671428D01*
X150804166Y-47623809D01*
X150851785Y-47576190D01*
X150899404Y-47480952D01*
%TO.C,D10*%
X141610714Y-106627022D02*
X141610714Y-105627022D01*
X141848809Y-105627022D01*
X141991666Y-105674642D01*
X142086904Y-105769880D01*
X142134523Y-105865118D01*
X142182142Y-106055594D01*
X142182142Y-106198451D01*
X142134523Y-106388927D01*
X142086904Y-106484165D01*
X141991666Y-106579403D01*
X141848809Y-106627022D01*
X141610714Y-106627022D01*
X143134523Y-106627022D02*
X142563095Y-106627022D01*
X142848809Y-106627022D02*
X142848809Y-105627022D01*
X142753571Y-105769880D01*
X142658333Y-105865118D01*
X142563095Y-105912737D01*
X143753571Y-105627022D02*
X143848809Y-105627022D01*
X143944047Y-105674642D01*
X143991666Y-105722261D01*
X144039285Y-105817499D01*
X144086904Y-106007975D01*
X144086904Y-106246070D01*
X144039285Y-106436546D01*
X143991666Y-106531784D01*
X143944047Y-106579403D01*
X143848809Y-106627022D01*
X143753571Y-106627022D01*
X143658333Y-106579403D01*
X143610714Y-106531784D01*
X143563095Y-106436546D01*
X143515476Y-106246070D01*
X143515476Y-106007975D01*
X143563095Y-105817499D01*
X143610714Y-105722261D01*
X143658333Y-105674642D01*
X143753571Y-105627022D01*
X148429761Y-106341308D02*
X148905952Y-106341308D01*
X148334523Y-106627022D02*
X148667857Y-105627022D01*
X149001190Y-106627022D01*
X149905952Y-106531784D02*
X149858333Y-106579403D01*
X149715476Y-106627022D01*
X149620238Y-106627022D01*
X149477380Y-106579403D01*
X149382142Y-106484165D01*
X149334523Y-106388927D01*
X149286904Y-106198451D01*
X149286904Y-106055594D01*
X149334523Y-105865118D01*
X149382142Y-105769880D01*
X149477380Y-105674642D01*
X149620238Y-105627022D01*
X149715476Y-105627022D01*
X149858333Y-105674642D01*
X149905952Y-105722261D01*
X150191666Y-105627022D02*
X150763095Y-105627022D01*
X150477380Y-106627022D02*
X150477380Y-105627022D01*
X151620238Y-106627022D02*
X151048809Y-106627022D01*
X151334523Y-106627022D02*
X151334523Y-105627022D01*
X151239285Y-105769880D01*
X151144047Y-105865118D01*
X151048809Y-105912737D01*
%TO.C,R10*%
X138628497Y-109204541D02*
X138295164Y-108728351D01*
X138057069Y-109204541D02*
X138057069Y-108204541D01*
X138438021Y-108204541D01*
X138533259Y-108252161D01*
X138580878Y-108299780D01*
X138628497Y-108395018D01*
X138628497Y-108537875D01*
X138580878Y-108633113D01*
X138533259Y-108680732D01*
X138438021Y-108728351D01*
X138057069Y-108728351D01*
X139580878Y-109204541D02*
X139009450Y-109204541D01*
X139295164Y-109204541D02*
X139295164Y-108204541D01*
X139199926Y-108347399D01*
X139104688Y-108442637D01*
X139009450Y-108490256D01*
X140199926Y-108204541D02*
X140295164Y-108204541D01*
X140390402Y-108252161D01*
X140438021Y-108299780D01*
X140485640Y-108395018D01*
X140533259Y-108585494D01*
X140533259Y-108823589D01*
X140485640Y-109014065D01*
X140438021Y-109109303D01*
X140390402Y-109156922D01*
X140295164Y-109204541D01*
X140199926Y-109204541D01*
X140104688Y-109156922D01*
X140057069Y-109109303D01*
X140009450Y-109014065D01*
X139961831Y-108823589D01*
X139961831Y-108585494D01*
X140009450Y-108395018D01*
X140057069Y-108299780D01*
X140104688Y-108252161D01*
X140199926Y-108204541D01*
%TO.C,D7*%
X142286904Y-101472380D02*
X142286904Y-100472380D01*
X142525000Y-100472380D01*
X142667857Y-100520000D01*
X142763095Y-100615238D01*
X142810714Y-100710476D01*
X142858333Y-100900952D01*
X142858333Y-101043809D01*
X142810714Y-101234285D01*
X142763095Y-101329523D01*
X142667857Y-101424761D01*
X142525000Y-101472380D01*
X142286904Y-101472380D01*
X143191666Y-100472380D02*
X143858333Y-100472380D01*
X143429761Y-101472380D01*
X148272675Y-101280360D02*
X148748866Y-101280360D01*
X148177437Y-101566074D02*
X148510771Y-100566074D01*
X148844104Y-101566074D01*
X149748866Y-101470836D02*
X149701247Y-101518455D01*
X149558390Y-101566074D01*
X149463152Y-101566074D01*
X149320294Y-101518455D01*
X149225056Y-101423217D01*
X149177437Y-101327979D01*
X149129818Y-101137503D01*
X149129818Y-100994646D01*
X149177437Y-100804170D01*
X149225056Y-100708932D01*
X149320294Y-100613694D01*
X149463152Y-100566074D01*
X149558390Y-100566074D01*
X149701247Y-100613694D01*
X149748866Y-100661313D01*
X150034580Y-100566074D02*
X150606009Y-100566074D01*
X150320294Y-101566074D02*
X150320294Y-100566074D01*
X150891723Y-100661313D02*
X150939342Y-100613694D01*
X151034580Y-100566074D01*
X151272675Y-100566074D01*
X151367914Y-100613694D01*
X151415533Y-100661313D01*
X151463152Y-100756551D01*
X151463152Y-100851789D01*
X151415533Y-100994646D01*
X150844104Y-101566074D01*
X151463152Y-101566074D01*
%TO.C,J9*%
X120966666Y-40252380D02*
X120966666Y-40966666D01*
X120919047Y-41109523D01*
X120823809Y-41204761D01*
X120680952Y-41252380D01*
X120585714Y-41252380D01*
X121490476Y-41252380D02*
X121680952Y-41252380D01*
X121776190Y-41204761D01*
X121823809Y-41157142D01*
X121919047Y-41014285D01*
X121966666Y-40823809D01*
X121966666Y-40442857D01*
X121919047Y-40347619D01*
X121871428Y-40300000D01*
X121776190Y-40252380D01*
X121585714Y-40252380D01*
X121490476Y-40300000D01*
X121442857Y-40347619D01*
X121395238Y-40442857D01*
X121395238Y-40680952D01*
X121442857Y-40776190D01*
X121490476Y-40823809D01*
X121585714Y-40871428D01*
X121776190Y-40871428D01*
X121871428Y-40823809D01*
X121919047Y-40776190D01*
X121966666Y-40680952D01*
%TO.C,H2*%
X63688095Y-139852380D02*
X63688095Y-138852380D01*
X63688095Y-139328571D02*
X64259523Y-139328571D01*
X64259523Y-139852380D02*
X64259523Y-138852380D01*
X64688095Y-138947619D02*
X64735714Y-138900000D01*
X64830952Y-138852380D01*
X65069047Y-138852380D01*
X65164285Y-138900000D01*
X65211904Y-138947619D01*
X65259523Y-139042857D01*
X65259523Y-139138095D01*
X65211904Y-139280952D01*
X64640476Y-139852380D01*
X65259523Y-139852380D01*
%TO.C,J1*%
X132046666Y-129832380D02*
X132046666Y-130546666D01*
X131999047Y-130689523D01*
X131903809Y-130784761D01*
X131760952Y-130832380D01*
X131665714Y-130832380D01*
X133046666Y-130832380D02*
X132475238Y-130832380D01*
X132760952Y-130832380D02*
X132760952Y-129832380D01*
X132665714Y-129975238D01*
X132570476Y-130070476D01*
X132475238Y-130118095D01*
%TO.C,C4*%
X55957142Y-113766666D02*
X56004761Y-113814285D01*
X56052380Y-113957142D01*
X56052380Y-114052380D01*
X56004761Y-114195238D01*
X55909523Y-114290476D01*
X55814285Y-114338095D01*
X55623809Y-114385714D01*
X55480952Y-114385714D01*
X55290476Y-114338095D01*
X55195238Y-114290476D01*
X55100000Y-114195238D01*
X55052380Y-114052380D01*
X55052380Y-113957142D01*
X55100000Y-113814285D01*
X55147619Y-113766666D01*
X55385714Y-112909523D02*
X56052380Y-112909523D01*
X55004761Y-113147619D02*
X55719047Y-113385714D01*
X55719047Y-112766666D01*
%TO.C,D11*%
X152609524Y-126244046D02*
X152609524Y-125244046D01*
X152847619Y-125244046D01*
X152990476Y-125291666D01*
X153085714Y-125386904D01*
X153133333Y-125482142D01*
X153180952Y-125672618D01*
X153180952Y-125815475D01*
X153133333Y-126005951D01*
X153085714Y-126101189D01*
X152990476Y-126196427D01*
X152847619Y-126244046D01*
X152609524Y-126244046D01*
X154133333Y-126244046D02*
X153561905Y-126244046D01*
X153847619Y-126244046D02*
X153847619Y-125244046D01*
X153752381Y-125386904D01*
X153657143Y-125482142D01*
X153561905Y-125529761D01*
X155085714Y-126244046D02*
X154514286Y-126244046D01*
X154800000Y-126244046D02*
X154800000Y-125244046D01*
X154704762Y-125386904D01*
X154609524Y-125482142D01*
X154514286Y-125529761D01*
X147623809Y-125110710D02*
X147623809Y-125920234D01*
X147671428Y-126015472D01*
X147719047Y-126063091D01*
X147814285Y-126110710D01*
X148004762Y-126110710D01*
X148100000Y-126063091D01*
X148147619Y-126015472D01*
X148195238Y-125920234D01*
X148195238Y-125110710D01*
X148623809Y-126063091D02*
X148766666Y-126110710D01*
X149004762Y-126110710D01*
X149100000Y-126063091D01*
X149147619Y-126015472D01*
X149195238Y-125920234D01*
X149195238Y-125824996D01*
X149147619Y-125729758D01*
X149100000Y-125682139D01*
X149004762Y-125634520D01*
X148814285Y-125586901D01*
X148719047Y-125539282D01*
X148671428Y-125491663D01*
X148623809Y-125396425D01*
X148623809Y-125301187D01*
X148671428Y-125205949D01*
X148719047Y-125158330D01*
X148814285Y-125110710D01*
X149052381Y-125110710D01*
X149195238Y-125158330D01*
X149957143Y-125586901D02*
X150100000Y-125634520D01*
X150147619Y-125682139D01*
X150195238Y-125777377D01*
X150195238Y-125920234D01*
X150147619Y-126015472D01*
X150100000Y-126063091D01*
X150004762Y-126110710D01*
X149623809Y-126110710D01*
X149623809Y-125110710D01*
X149957143Y-125110710D01*
X150052381Y-125158330D01*
X150100000Y-125205949D01*
X150147619Y-125301187D01*
X150147619Y-125396425D01*
X150100000Y-125491663D01*
X150052381Y-125539282D01*
X149957143Y-125586901D01*
X149623809Y-125586901D01*
X151147619Y-126110710D02*
X150576190Y-126110710D01*
X150861905Y-126110710D02*
X150861905Y-125110710D01*
X150766666Y-125253568D01*
X150671428Y-125348806D01*
X150576190Y-125396425D01*
%TO.C,C16*%
X148617142Y-84272857D02*
X148664761Y-84320476D01*
X148712380Y-84463333D01*
X148712380Y-84558571D01*
X148664761Y-84701428D01*
X148569523Y-84796666D01*
X148474285Y-84844285D01*
X148283809Y-84891904D01*
X148140952Y-84891904D01*
X147950476Y-84844285D01*
X147855238Y-84796666D01*
X147760000Y-84701428D01*
X147712380Y-84558571D01*
X147712380Y-84463333D01*
X147760000Y-84320476D01*
X147807619Y-84272857D01*
X148712380Y-83320476D02*
X148712380Y-83891904D01*
X148712380Y-83606190D02*
X147712380Y-83606190D01*
X147855238Y-83701428D01*
X147950476Y-83796666D01*
X147998095Y-83891904D01*
X147712380Y-82463333D02*
X147712380Y-82653809D01*
X147760000Y-82749047D01*
X147807619Y-82796666D01*
X147950476Y-82891904D01*
X148140952Y-82939523D01*
X148521904Y-82939523D01*
X148617142Y-82891904D01*
X148664761Y-82844285D01*
X148712380Y-82749047D01*
X148712380Y-82558571D01*
X148664761Y-82463333D01*
X148617142Y-82415714D01*
X148521904Y-82368095D01*
X148283809Y-82368095D01*
X148188571Y-82415714D01*
X148140952Y-82463333D01*
X148093333Y-82558571D01*
X148093333Y-82749047D01*
X148140952Y-82844285D01*
X148188571Y-82891904D01*
X148283809Y-82939523D01*
%TO.C,C17*%
X138762142Y-50317142D02*
X138714523Y-50364761D01*
X138571666Y-50412380D01*
X138476428Y-50412380D01*
X138333571Y-50364761D01*
X138238333Y-50269523D01*
X138190714Y-50174285D01*
X138143095Y-49983809D01*
X138143095Y-49840952D01*
X138190714Y-49650476D01*
X138238333Y-49555238D01*
X138333571Y-49460000D01*
X138476428Y-49412380D01*
X138571666Y-49412380D01*
X138714523Y-49460000D01*
X138762142Y-49507619D01*
X139714523Y-50412380D02*
X139143095Y-50412380D01*
X139428809Y-50412380D02*
X139428809Y-49412380D01*
X139333571Y-49555238D01*
X139238333Y-49650476D01*
X139143095Y-49698095D01*
X140047857Y-49412380D02*
X140714523Y-49412380D01*
X140285952Y-50412380D01*
%TO.C,D3*%
X153561904Y-111747301D02*
X153561904Y-110747301D01*
X153800000Y-110747301D01*
X153942857Y-110794921D01*
X154038095Y-110890159D01*
X154085714Y-110985397D01*
X154133333Y-111175873D01*
X154133333Y-111318730D01*
X154085714Y-111509206D01*
X154038095Y-111604444D01*
X153942857Y-111699682D01*
X153800000Y-111747301D01*
X153561904Y-111747301D01*
X154466666Y-110747301D02*
X155085714Y-110747301D01*
X154752380Y-111128254D01*
X154895238Y-111128254D01*
X154990476Y-111175873D01*
X155038095Y-111223492D01*
X155085714Y-111318730D01*
X155085714Y-111556825D01*
X155038095Y-111652063D01*
X154990476Y-111699682D01*
X154895238Y-111747301D01*
X154609523Y-111747301D01*
X154514285Y-111699682D01*
X154466666Y-111652063D01*
X147576190Y-111316666D02*
X148052380Y-111316666D01*
X147480952Y-111602380D02*
X147814285Y-110602380D01*
X148147619Y-111602380D01*
X148480952Y-111602380D02*
X148480952Y-110602380D01*
X148719047Y-110602380D01*
X148861904Y-110650000D01*
X148957142Y-110745238D01*
X149004761Y-110840476D01*
X149052380Y-111030952D01*
X149052380Y-111173809D01*
X149004761Y-111364285D01*
X148957142Y-111459523D01*
X148861904Y-111554761D01*
X148719047Y-111602380D01*
X148480952Y-111602380D01*
X149433333Y-111316666D02*
X149909523Y-111316666D01*
X149338095Y-111602380D02*
X149671428Y-110602380D01*
X150004761Y-111602380D01*
X150195238Y-110602380D02*
X150766666Y-110602380D01*
X150480952Y-111602380D02*
X150480952Y-110602380D01*
X151528571Y-110935714D02*
X151528571Y-111602380D01*
X151290476Y-110554761D02*
X151052380Y-111269047D01*
X151671428Y-111269047D01*
%TO.C,C6*%
X55957142Y-48166666D02*
X56004761Y-48214285D01*
X56052380Y-48357142D01*
X56052380Y-48452380D01*
X56004761Y-48595238D01*
X55909523Y-48690476D01*
X55814285Y-48738095D01*
X55623809Y-48785714D01*
X55480952Y-48785714D01*
X55290476Y-48738095D01*
X55195238Y-48690476D01*
X55100000Y-48595238D01*
X55052380Y-48452380D01*
X55052380Y-48357142D01*
X55100000Y-48214285D01*
X55147619Y-48166666D01*
X55052380Y-47309523D02*
X55052380Y-47500000D01*
X55100000Y-47595238D01*
X55147619Y-47642857D01*
X55290476Y-47738095D01*
X55480952Y-47785714D01*
X55861904Y-47785714D01*
X55957142Y-47738095D01*
X56004761Y-47690476D01*
X56052380Y-47595238D01*
X56052380Y-47404761D01*
X56004761Y-47309523D01*
X55957142Y-47261904D01*
X55861904Y-47214285D01*
X55623809Y-47214285D01*
X55528571Y-47261904D01*
X55480952Y-47309523D01*
X55433333Y-47404761D01*
X55433333Y-47595238D01*
X55480952Y-47690476D01*
X55528571Y-47738095D01*
X55623809Y-47785714D01*
%TO.C,TR4*%
X54448502Y-96347753D02*
X54448502Y-95776325D01*
X55448502Y-96062039D02*
X54448502Y-96062039D01*
X55448502Y-94871563D02*
X54972312Y-95204896D01*
X55448502Y-95442991D02*
X54448502Y-95442991D01*
X54448502Y-95062039D01*
X54496122Y-94966801D01*
X54543741Y-94919182D01*
X54638979Y-94871563D01*
X54781836Y-94871563D01*
X54877074Y-94919182D01*
X54924693Y-94966801D01*
X54972312Y-95062039D01*
X54972312Y-95442991D01*
X54781836Y-94014420D02*
X55448502Y-94014420D01*
X54400883Y-94252515D02*
X55115169Y-94490610D01*
X55115169Y-93871563D01*
%TO.C,R6*%
X138633333Y-120517378D02*
X138300000Y-120041188D01*
X138061904Y-120517378D02*
X138061904Y-119517378D01*
X138442857Y-119517378D01*
X138538095Y-119564998D01*
X138585714Y-119612617D01*
X138633333Y-119707855D01*
X138633333Y-119850712D01*
X138585714Y-119945950D01*
X138538095Y-119993569D01*
X138442857Y-120041188D01*
X138061904Y-120041188D01*
X139490476Y-119517378D02*
X139300000Y-119517378D01*
X139204761Y-119564998D01*
X139157142Y-119612617D01*
X139061904Y-119755474D01*
X139014285Y-119945950D01*
X139014285Y-120326902D01*
X139061904Y-120422140D01*
X139109523Y-120469759D01*
X139204761Y-120517378D01*
X139395238Y-120517378D01*
X139490476Y-120469759D01*
X139538095Y-120422140D01*
X139585714Y-120326902D01*
X139585714Y-120088807D01*
X139538095Y-119993569D01*
X139490476Y-119945950D01*
X139395238Y-119898331D01*
X139204761Y-119898331D01*
X139109523Y-119945950D01*
X139061904Y-119993569D01*
X139014285Y-120088807D01*
%TO.C,R25*%
X150282142Y-79244880D02*
X149948809Y-78768690D01*
X149710714Y-79244880D02*
X149710714Y-78244880D01*
X150091666Y-78244880D01*
X150186904Y-78292500D01*
X150234523Y-78340119D01*
X150282142Y-78435357D01*
X150282142Y-78578214D01*
X150234523Y-78673452D01*
X150186904Y-78721071D01*
X150091666Y-78768690D01*
X149710714Y-78768690D01*
X150663095Y-78340119D02*
X150710714Y-78292500D01*
X150805952Y-78244880D01*
X151044047Y-78244880D01*
X151139285Y-78292500D01*
X151186904Y-78340119D01*
X151234523Y-78435357D01*
X151234523Y-78530595D01*
X151186904Y-78673452D01*
X150615476Y-79244880D01*
X151234523Y-79244880D01*
X152139285Y-78244880D02*
X151663095Y-78244880D01*
X151615476Y-78721071D01*
X151663095Y-78673452D01*
X151758333Y-78625833D01*
X151996428Y-78625833D01*
X152091666Y-78673452D01*
X152139285Y-78721071D01*
X152186904Y-78816309D01*
X152186904Y-79054404D01*
X152139285Y-79149642D01*
X152091666Y-79197261D01*
X151996428Y-79244880D01*
X151758333Y-79244880D01*
X151663095Y-79197261D01*
X151615476Y-79149642D01*
%TO.C,J8*%
X121066666Y-49352380D02*
X121066666Y-50066666D01*
X121019047Y-50209523D01*
X120923809Y-50304761D01*
X120780952Y-50352380D01*
X120685714Y-50352380D01*
X121685714Y-49780952D02*
X121590476Y-49733333D01*
X121542857Y-49685714D01*
X121495238Y-49590476D01*
X121495238Y-49542857D01*
X121542857Y-49447619D01*
X121590476Y-49400000D01*
X121685714Y-49352380D01*
X121876190Y-49352380D01*
X121971428Y-49400000D01*
X122019047Y-49447619D01*
X122066666Y-49542857D01*
X122066666Y-49590476D01*
X122019047Y-49685714D01*
X121971428Y-49733333D01*
X121876190Y-49780952D01*
X121685714Y-49780952D01*
X121590476Y-49828571D01*
X121542857Y-49876190D01*
X121495238Y-49971428D01*
X121495238Y-50161904D01*
X121542857Y-50257142D01*
X121590476Y-50304761D01*
X121685714Y-50352380D01*
X121876190Y-50352380D01*
X121971428Y-50304761D01*
X122019047Y-50257142D01*
X122066666Y-50161904D01*
X122066666Y-49971428D01*
X122019047Y-49876190D01*
X121971428Y-49828571D01*
X121876190Y-49780952D01*
%TO.C,C15*%
X139457142Y-79557142D02*
X139409523Y-79604761D01*
X139266666Y-79652380D01*
X139171428Y-79652380D01*
X139028571Y-79604761D01*
X138933333Y-79509523D01*
X138885714Y-79414285D01*
X138838095Y-79223809D01*
X138838095Y-79080952D01*
X138885714Y-78890476D01*
X138933333Y-78795238D01*
X139028571Y-78700000D01*
X139171428Y-78652380D01*
X139266666Y-78652380D01*
X139409523Y-78700000D01*
X139457142Y-78747619D01*
X140409523Y-79652380D02*
X139838095Y-79652380D01*
X140123809Y-79652380D02*
X140123809Y-78652380D01*
X140028571Y-78795238D01*
X139933333Y-78890476D01*
X139838095Y-78938095D01*
X141314285Y-78652380D02*
X140838095Y-78652380D01*
X140790476Y-79128571D01*
X140838095Y-79080952D01*
X140933333Y-79033333D01*
X141171428Y-79033333D01*
X141266666Y-79080952D01*
X141314285Y-79128571D01*
X141361904Y-79223809D01*
X141361904Y-79461904D01*
X141314285Y-79557142D01*
X141266666Y-79604761D01*
X141171428Y-79652380D01*
X140933333Y-79652380D01*
X140838095Y-79604761D01*
X140790476Y-79557142D01*
%TO.C,R7*%
X157595833Y-78272380D02*
X157262500Y-77796190D01*
X157024404Y-78272380D02*
X157024404Y-77272380D01*
X157405357Y-77272380D01*
X157500595Y-77320000D01*
X157548214Y-77367619D01*
X157595833Y-77462857D01*
X157595833Y-77605714D01*
X157548214Y-77700952D01*
X157500595Y-77748571D01*
X157405357Y-77796190D01*
X157024404Y-77796190D01*
X157929166Y-77272380D02*
X158595833Y-77272380D01*
X158167261Y-78272380D01*
%TO.C,C20*%
X151457142Y-99607142D02*
X151409523Y-99654761D01*
X151266666Y-99702380D01*
X151171428Y-99702380D01*
X151028571Y-99654761D01*
X150933333Y-99559523D01*
X150885714Y-99464285D01*
X150838095Y-99273809D01*
X150838095Y-99130952D01*
X150885714Y-98940476D01*
X150933333Y-98845238D01*
X151028571Y-98750000D01*
X151171428Y-98702380D01*
X151266666Y-98702380D01*
X151409523Y-98750000D01*
X151457142Y-98797619D01*
X151838095Y-98797619D02*
X151885714Y-98750000D01*
X151980952Y-98702380D01*
X152219047Y-98702380D01*
X152314285Y-98750000D01*
X152361904Y-98797619D01*
X152409523Y-98892857D01*
X152409523Y-98988095D01*
X152361904Y-99130952D01*
X151790476Y-99702380D01*
X152409523Y-99702380D01*
X153028571Y-98702380D02*
X153123809Y-98702380D01*
X153219047Y-98750000D01*
X153266666Y-98797619D01*
X153314285Y-98892857D01*
X153361904Y-99083333D01*
X153361904Y-99321428D01*
X153314285Y-99511904D01*
X153266666Y-99607142D01*
X153219047Y-99654761D01*
X153123809Y-99702380D01*
X153028571Y-99702380D01*
X152933333Y-99654761D01*
X152885714Y-99607142D01*
X152838095Y-99511904D01*
X152790476Y-99321428D01*
X152790476Y-99083333D01*
X152838095Y-98892857D01*
X152885714Y-98797619D01*
X152933333Y-98750000D01*
X153028571Y-98702380D01*
%TO.C,H1*%
X137163095Y-38352380D02*
X137163095Y-37352380D01*
X137163095Y-37828571D02*
X137734523Y-37828571D01*
X137734523Y-38352380D02*
X137734523Y-37352380D01*
X138734523Y-38352380D02*
X138163095Y-38352380D01*
X138448809Y-38352380D02*
X138448809Y-37352380D01*
X138353571Y-37495238D01*
X138258333Y-37590476D01*
X138163095Y-37638095D01*
%TO.C,R21*%
X138633333Y-126698014D02*
X138300000Y-126221824D01*
X138061905Y-126698014D02*
X138061905Y-125698014D01*
X138442857Y-125698014D01*
X138538095Y-125745634D01*
X138585714Y-125793253D01*
X138633333Y-125888491D01*
X138633333Y-126031348D01*
X138585714Y-126126586D01*
X138538095Y-126174205D01*
X138442857Y-126221824D01*
X138061905Y-126221824D01*
X139014286Y-125793253D02*
X139061905Y-125745634D01*
X139157143Y-125698014D01*
X139395238Y-125698014D01*
X139490476Y-125745634D01*
X139538095Y-125793253D01*
X139585714Y-125888491D01*
X139585714Y-125983729D01*
X139538095Y-126126586D01*
X138966667Y-126698014D01*
X139585714Y-126698014D01*
X140538095Y-126698014D02*
X139966667Y-126698014D01*
X140252381Y-126698014D02*
X140252381Y-125698014D01*
X140157143Y-125840872D01*
X140061905Y-125936110D01*
X139966667Y-125983729D01*
%TO.C,U4*%
X54537319Y-108031634D02*
X55347843Y-108031634D01*
X55443199Y-107983956D01*
X55490877Y-107936278D01*
X55538555Y-107840922D01*
X55538555Y-107650211D01*
X55490877Y-107554855D01*
X55443199Y-107507177D01*
X55347843Y-107459499D01*
X54537319Y-107459499D01*
X54871064Y-106553619D02*
X55538555Y-106553619D01*
X54489641Y-106792008D02*
X55204809Y-107030398D01*
X55204809Y-106410585D01*
%TO.C,C13*%
X159907142Y-71917857D02*
X159954761Y-71965476D01*
X160002380Y-72108333D01*
X160002380Y-72203571D01*
X159954761Y-72346428D01*
X159859523Y-72441666D01*
X159764285Y-72489285D01*
X159573809Y-72536904D01*
X159430952Y-72536904D01*
X159240476Y-72489285D01*
X159145238Y-72441666D01*
X159050000Y-72346428D01*
X159002380Y-72203571D01*
X159002380Y-72108333D01*
X159050000Y-71965476D01*
X159097619Y-71917857D01*
X160002380Y-70965476D02*
X160002380Y-71536904D01*
X160002380Y-71251190D02*
X159002380Y-71251190D01*
X159145238Y-71346428D01*
X159240476Y-71441666D01*
X159288095Y-71536904D01*
X159002380Y-70632142D02*
X159002380Y-70013095D01*
X159383333Y-70346428D01*
X159383333Y-70203571D01*
X159430952Y-70108333D01*
X159478571Y-70060714D01*
X159573809Y-70013095D01*
X159811904Y-70013095D01*
X159907142Y-70060714D01*
X159954761Y-70108333D01*
X160002380Y-70203571D01*
X160002380Y-70489285D01*
X159954761Y-70584523D01*
X159907142Y-70632142D01*
%TO.C,D8*%
X142386904Y-104149701D02*
X142386904Y-103149701D01*
X142625000Y-103149701D01*
X142767857Y-103197321D01*
X142863095Y-103292559D01*
X142910714Y-103387797D01*
X142958333Y-103578273D01*
X142958333Y-103721130D01*
X142910714Y-103911606D01*
X142863095Y-104006844D01*
X142767857Y-104102082D01*
X142625000Y-104149701D01*
X142386904Y-104149701D01*
X143529761Y-103578273D02*
X143434523Y-103530654D01*
X143386904Y-103483035D01*
X143339285Y-103387797D01*
X143339285Y-103340178D01*
X143386904Y-103244940D01*
X143434523Y-103197321D01*
X143529761Y-103149701D01*
X143720238Y-103149701D01*
X143815476Y-103197321D01*
X143863095Y-103244940D01*
X143910714Y-103340178D01*
X143910714Y-103387797D01*
X143863095Y-103483035D01*
X143815476Y-103530654D01*
X143720238Y-103578273D01*
X143529761Y-103578273D01*
X143434523Y-103625892D01*
X143386904Y-103673511D01*
X143339285Y-103768749D01*
X143339285Y-103959225D01*
X143386904Y-104054463D01*
X143434523Y-104102082D01*
X143529761Y-104149701D01*
X143720238Y-104149701D01*
X143815476Y-104102082D01*
X143863095Y-104054463D01*
X143910714Y-103959225D01*
X143910714Y-103768749D01*
X143863095Y-103673511D01*
X143815476Y-103625892D01*
X143720238Y-103578273D01*
X148237793Y-104019935D02*
X148380650Y-104067554D01*
X148618745Y-104067554D01*
X148713983Y-104019935D01*
X148761602Y-103972316D01*
X148809221Y-103877078D01*
X148809221Y-103781840D01*
X148761602Y-103686602D01*
X148713983Y-103638983D01*
X148618745Y-103591364D01*
X148428269Y-103543745D01*
X148333031Y-103496126D01*
X148285412Y-103448507D01*
X148237793Y-103353269D01*
X148237793Y-103258031D01*
X148285412Y-103162793D01*
X148333031Y-103115174D01*
X148428269Y-103067554D01*
X148666364Y-103067554D01*
X148809221Y-103115174D01*
X149237793Y-103067554D02*
X149237793Y-103877078D01*
X149285412Y-103972316D01*
X149333031Y-104019935D01*
X149428269Y-104067554D01*
X149618745Y-104067554D01*
X149713983Y-104019935D01*
X149761602Y-103972316D01*
X149809221Y-103877078D01*
X149809221Y-103067554D01*
X150237793Y-104019935D02*
X150380650Y-104067554D01*
X150618745Y-104067554D01*
X150713983Y-104019935D01*
X150761602Y-103972316D01*
X150809221Y-103877078D01*
X150809221Y-103781840D01*
X150761602Y-103686602D01*
X150713983Y-103638983D01*
X150618745Y-103591364D01*
X150428269Y-103543745D01*
X150333031Y-103496126D01*
X150285412Y-103448507D01*
X150237793Y-103353269D01*
X150237793Y-103258031D01*
X150285412Y-103162793D01*
X150333031Y-103115174D01*
X150428269Y-103067554D01*
X150666364Y-103067554D01*
X150809221Y-103115174D01*
X151237793Y-104067554D02*
X151237793Y-103067554D01*
X151618745Y-103067554D01*
X151713983Y-103115174D01*
X151761602Y-103162793D01*
X151809221Y-103258031D01*
X151809221Y-103400888D01*
X151761602Y-103496126D01*
X151713983Y-103543745D01*
X151618745Y-103591364D01*
X151237793Y-103591364D01*
X152190174Y-103162793D02*
X152237793Y-103115174D01*
X152333031Y-103067554D01*
X152571126Y-103067554D01*
X152666364Y-103115174D01*
X152713983Y-103162793D01*
X152761602Y-103258031D01*
X152761602Y-103353269D01*
X152713983Y-103496126D01*
X152142555Y-104067554D01*
X152761602Y-104067554D01*
%TO.C,TR1*%
X54537995Y-124055692D02*
X54537995Y-123484264D01*
X55537995Y-123769978D02*
X54537995Y-123769978D01*
X55537995Y-122579502D02*
X55061805Y-122912835D01*
X55537995Y-123150930D02*
X54537995Y-123150930D01*
X54537995Y-122769978D01*
X54585615Y-122674740D01*
X54633234Y-122627121D01*
X54728472Y-122579502D01*
X54871329Y-122579502D01*
X54966567Y-122627121D01*
X55014186Y-122674740D01*
X55061805Y-122769978D01*
X55061805Y-123150930D01*
X55537995Y-121627121D02*
X55537995Y-122198549D01*
X55537995Y-121912835D02*
X54537995Y-121912835D01*
X54680853Y-122008073D01*
X54776091Y-122103311D01*
X54823710Y-122198549D01*
%TO.C,J2*%
X68881666Y-39032380D02*
X68881666Y-39746666D01*
X68834047Y-39889523D01*
X68738809Y-39984761D01*
X68595952Y-40032380D01*
X68500714Y-40032380D01*
X69310238Y-39127619D02*
X69357857Y-39080000D01*
X69453095Y-39032380D01*
X69691190Y-39032380D01*
X69786428Y-39080000D01*
X69834047Y-39127619D01*
X69881666Y-39222857D01*
X69881666Y-39318095D01*
X69834047Y-39460952D01*
X69262619Y-40032380D01*
X69881666Y-40032380D01*
%TO.C,U5*%
X145118095Y-59342380D02*
X145118095Y-60151904D01*
X145165714Y-60247142D01*
X145213333Y-60294761D01*
X145308571Y-60342380D01*
X145499047Y-60342380D01*
X145594285Y-60294761D01*
X145641904Y-60247142D01*
X145689523Y-60151904D01*
X145689523Y-59342380D01*
X146641904Y-59342380D02*
X146165714Y-59342380D01*
X146118095Y-59818571D01*
X146165714Y-59770952D01*
X146260952Y-59723333D01*
X146499047Y-59723333D01*
X146594285Y-59770952D01*
X146641904Y-59818571D01*
X146689523Y-59913809D01*
X146689523Y-60151904D01*
X146641904Y-60247142D01*
X146594285Y-60294761D01*
X146499047Y-60342380D01*
X146260952Y-60342380D01*
X146165714Y-60294761D01*
X146118095Y-60247142D01*
%TO.C,C19*%
X156671907Y-104304987D02*
X156624288Y-104352606D01*
X156481431Y-104400225D01*
X156386193Y-104400225D01*
X156243336Y-104352606D01*
X156148098Y-104257368D01*
X156100479Y-104162130D01*
X156052860Y-103971654D01*
X156052860Y-103828797D01*
X156100479Y-103638321D01*
X156148098Y-103543083D01*
X156243336Y-103447845D01*
X156386193Y-103400225D01*
X156481431Y-103400225D01*
X156624288Y-103447845D01*
X156671907Y-103495464D01*
X157624288Y-104400225D02*
X157052860Y-104400225D01*
X157338574Y-104400225D02*
X157338574Y-103400225D01*
X157243336Y-103543083D01*
X157148098Y-103638321D01*
X157052860Y-103685940D01*
X158100479Y-104400225D02*
X158290955Y-104400225D01*
X158386193Y-104352606D01*
X158433812Y-104304987D01*
X158529050Y-104162130D01*
X158576669Y-103971654D01*
X158576669Y-103590702D01*
X158529050Y-103495464D01*
X158481431Y-103447845D01*
X158386193Y-103400225D01*
X158195717Y-103400225D01*
X158100479Y-103447845D01*
X158052860Y-103495464D01*
X158005241Y-103590702D01*
X158005241Y-103828797D01*
X158052860Y-103924035D01*
X158100479Y-103971654D01*
X158195717Y-104019273D01*
X158386193Y-104019273D01*
X158481431Y-103971654D01*
X158529050Y-103924035D01*
X158576669Y-103828797D01*
%TO.C,R2*%
X138633333Y-123209044D02*
X138300000Y-122732854D01*
X138061904Y-123209044D02*
X138061904Y-122209044D01*
X138442857Y-122209044D01*
X138538095Y-122256664D01*
X138585714Y-122304283D01*
X138633333Y-122399521D01*
X138633333Y-122542378D01*
X138585714Y-122637616D01*
X138538095Y-122685235D01*
X138442857Y-122732854D01*
X138061904Y-122732854D01*
X139014285Y-122304283D02*
X139061904Y-122256664D01*
X139157142Y-122209044D01*
X139395238Y-122209044D01*
X139490476Y-122256664D01*
X139538095Y-122304283D01*
X139585714Y-122399521D01*
X139585714Y-122494759D01*
X139538095Y-122637616D01*
X138966666Y-123209044D01*
X139585714Y-123209044D01*
%TO.C,J5*%
X160916666Y-50202380D02*
X160916666Y-50916666D01*
X160869047Y-51059523D01*
X160773809Y-51154761D01*
X160630952Y-51202380D01*
X160535714Y-51202380D01*
X161869047Y-50202380D02*
X161392857Y-50202380D01*
X161345238Y-50678571D01*
X161392857Y-50630952D01*
X161488095Y-50583333D01*
X161726190Y-50583333D01*
X161821428Y-50630952D01*
X161869047Y-50678571D01*
X161916666Y-50773809D01*
X161916666Y-51011904D01*
X161869047Y-51107142D01*
X161821428Y-51154761D01*
X161726190Y-51202380D01*
X161488095Y-51202380D01*
X161392857Y-51154761D01*
X161345238Y-51107142D01*
%TO.C,U6*%
X142013095Y-88577380D02*
X142013095Y-89386904D01*
X142060714Y-89482142D01*
X142108333Y-89529761D01*
X142203571Y-89577380D01*
X142394047Y-89577380D01*
X142489285Y-89529761D01*
X142536904Y-89482142D01*
X142584523Y-89386904D01*
X142584523Y-88577380D01*
X143489285Y-88577380D02*
X143298809Y-88577380D01*
X143203571Y-88625000D01*
X143155952Y-88672619D01*
X143060714Y-88815476D01*
X143013095Y-89005952D01*
X143013095Y-89386904D01*
X143060714Y-89482142D01*
X143108333Y-89529761D01*
X143203571Y-89577380D01*
X143394047Y-89577380D01*
X143489285Y-89529761D01*
X143536904Y-89482142D01*
X143584523Y-89386904D01*
X143584523Y-89148809D01*
X143536904Y-89053571D01*
X143489285Y-89005952D01*
X143394047Y-88958333D01*
X143203571Y-88958333D01*
X143108333Y-89005952D01*
X143060714Y-89053571D01*
X143013095Y-89148809D01*
%TO.C,D13*%
X150535714Y-94702380D02*
X150535714Y-93702380D01*
X150773809Y-93702380D01*
X150916666Y-93750000D01*
X151011904Y-93845238D01*
X151059523Y-93940476D01*
X151107142Y-94130952D01*
X151107142Y-94273809D01*
X151059523Y-94464285D01*
X151011904Y-94559523D01*
X150916666Y-94654761D01*
X150773809Y-94702380D01*
X150535714Y-94702380D01*
X152059523Y-94702380D02*
X151488095Y-94702380D01*
X151773809Y-94702380D02*
X151773809Y-93702380D01*
X151678571Y-93845238D01*
X151583333Y-93940476D01*
X151488095Y-93988095D01*
X152392857Y-93702380D02*
X153011904Y-93702380D01*
X152678571Y-94083333D01*
X152821428Y-94083333D01*
X152916666Y-94130952D01*
X152964285Y-94178571D01*
X153011904Y-94273809D01*
X153011904Y-94511904D01*
X152964285Y-94607142D01*
X152916666Y-94654761D01*
X152821428Y-94702380D01*
X152535714Y-94702380D01*
X152440476Y-94654761D01*
X152392857Y-94607142D01*
%TO.C,R20*%
X146732142Y-89302380D02*
X146398809Y-88826190D01*
X146160714Y-89302380D02*
X146160714Y-88302380D01*
X146541666Y-88302380D01*
X146636904Y-88350000D01*
X146684523Y-88397619D01*
X146732142Y-88492857D01*
X146732142Y-88635714D01*
X146684523Y-88730952D01*
X146636904Y-88778571D01*
X146541666Y-88826190D01*
X146160714Y-88826190D01*
X147113095Y-88397619D02*
X147160714Y-88350000D01*
X147255952Y-88302380D01*
X147494047Y-88302380D01*
X147589285Y-88350000D01*
X147636904Y-88397619D01*
X147684523Y-88492857D01*
X147684523Y-88588095D01*
X147636904Y-88730952D01*
X147065476Y-89302380D01*
X147684523Y-89302380D01*
X148303571Y-88302380D02*
X148398809Y-88302380D01*
X148494047Y-88350000D01*
X148541666Y-88397619D01*
X148589285Y-88492857D01*
X148636904Y-88683333D01*
X148636904Y-88921428D01*
X148589285Y-89111904D01*
X148541666Y-89207142D01*
X148494047Y-89254761D01*
X148398809Y-89302380D01*
X148303571Y-89302380D01*
X148208333Y-89254761D01*
X148160714Y-89207142D01*
X148113095Y-89111904D01*
X148065476Y-88921428D01*
X148065476Y-88683333D01*
X148113095Y-88492857D01*
X148160714Y-88397619D01*
X148208333Y-88350000D01*
X148303571Y-88302380D01*
%TO.C,L2*%
X59152380Y-56366666D02*
X59152380Y-56842857D01*
X58152380Y-56842857D01*
X58247619Y-56080952D02*
X58200000Y-56033333D01*
X58152380Y-55938095D01*
X58152380Y-55700000D01*
X58200000Y-55604761D01*
X58247619Y-55557142D01*
X58342857Y-55509523D01*
X58438095Y-55509523D01*
X58580952Y-55557142D01*
X59152380Y-56128571D01*
X59152380Y-55509523D01*
%TO.C,N1*%
G36*
X78980814Y-133543931D02*
G01*
X79064635Y-133988555D01*
X79373920Y-134116053D01*
X79683206Y-134243551D01*
X80054246Y-133991246D01*
X80158157Y-133920996D01*
X80252087Y-133858272D01*
X80331652Y-133805938D01*
X80392470Y-133766857D01*
X80430157Y-133743893D01*
X80440421Y-133738942D01*
X80458910Y-133751676D01*
X80498420Y-133786882D01*
X80554522Y-133840062D01*
X80622787Y-133906718D01*
X80698786Y-133982354D01*
X80778092Y-134062472D01*
X80856275Y-134142574D01*
X80928907Y-134218164D01*
X80991559Y-134284745D01*
X81039803Y-134337818D01*
X81069210Y-134372887D01*
X81076241Y-134384623D01*
X81066123Y-134406260D01*
X81037759Y-134453662D01*
X80994129Y-134522193D01*
X80938218Y-134607215D01*
X80873006Y-134704093D01*
X80835219Y-134759350D01*
X80766343Y-134860248D01*
X80705140Y-134951299D01*
X80654578Y-135027970D01*
X80617628Y-135085728D01*
X80597258Y-135120043D01*
X80594197Y-135127254D01*
X80601136Y-135147748D01*
X80620051Y-135195513D01*
X80648087Y-135263832D01*
X80682391Y-135345989D01*
X80720109Y-135435270D01*
X80758387Y-135524958D01*
X80794370Y-135608338D01*
X80825206Y-135678694D01*
X80848039Y-135729310D01*
X80860017Y-135753471D01*
X80860724Y-135754422D01*
X80879531Y-135759036D01*
X80929618Y-135769328D01*
X81005793Y-135784287D01*
X81102865Y-135802901D01*
X81215643Y-135824159D01*
X81281442Y-135836418D01*
X81401950Y-135859362D01*
X81510797Y-135881195D01*
X81602476Y-135900722D01*
X81671481Y-135916748D01*
X81712304Y-135928079D01*
X81720511Y-135931674D01*
X81728548Y-135956006D01*
X81735033Y-136010959D01*
X81739970Y-136090108D01*
X81743364Y-136187026D01*
X81745218Y-136295287D01*
X81745538Y-136408465D01*
X81744327Y-136520135D01*
X81741590Y-136623868D01*
X81737331Y-136713241D01*
X81731555Y-136781826D01*
X81724267Y-136823197D01*
X81719895Y-136831810D01*
X81693764Y-136842133D01*
X81638393Y-136856892D01*
X81561107Y-136874352D01*
X81469230Y-136892780D01*
X81437158Y-136898741D01*
X81282524Y-136927066D01*
X81160375Y-136949876D01*
X81066673Y-136968080D01*
X80997384Y-136982583D01*
X80948471Y-136994292D01*
X80915897Y-137004115D01*
X80895628Y-137012956D01*
X80883626Y-137021724D01*
X80881947Y-137023457D01*
X80865184Y-137051371D01*
X80839614Y-137105695D01*
X80807788Y-137179777D01*
X80772260Y-137266965D01*
X80735583Y-137360608D01*
X80700311Y-137454052D01*
X80668996Y-137540647D01*
X80644193Y-137613740D01*
X80628454Y-137666678D01*
X80624332Y-137692811D01*
X80624676Y-137693726D01*
X80638641Y-137715086D01*
X80670322Y-137762084D01*
X80716391Y-137829827D01*
X80773518Y-137913423D01*
X80838373Y-138007982D01*
X80856843Y-138034854D01*
X80922699Y-138132275D01*
X80980650Y-138221163D01*
X81027538Y-138296412D01*
X81060207Y-138352920D01*
X81075500Y-138385581D01*
X81076241Y-138389593D01*
X81063392Y-138410684D01*
X81027888Y-138452464D01*
X80974293Y-138510445D01*
X80907171Y-138580135D01*
X80831087Y-138657045D01*
X80750604Y-138736683D01*
X80670287Y-138814561D01*
X80594699Y-138886186D01*
X80528405Y-138947070D01*
X80475969Y-138992721D01*
X80441955Y-139018650D01*
X80432545Y-139022883D01*
X80410643Y-139012912D01*
X80365800Y-138986020D01*
X80305321Y-138946736D01*
X80258789Y-138915117D01*
X80174475Y-138857098D01*
X80074626Y-138788784D01*
X79974473Y-138720579D01*
X79920627Y-138684075D01*
X79738371Y-138560800D01*
X79585381Y-138643520D01*
X79515682Y-138679759D01*
X79456414Y-138707926D01*
X79416311Y-138723991D01*
X79406103Y-138726226D01*
X79393829Y-138709722D01*
X79369613Y-138663082D01*
X79335263Y-138590609D01*
X79292588Y-138496606D01*
X79243394Y-138385374D01*
X79189490Y-138261215D01*
X79132684Y-138128432D01*
X79074782Y-137991327D01*
X79017593Y-137854202D01*
X78962924Y-137721358D01*
X78912584Y-137597098D01*
X78868380Y-137485725D01*
X78832119Y-137391539D01*
X78805609Y-137318844D01*
X78790658Y-137271941D01*
X78788254Y-137255833D01*
X78807311Y-137235286D01*
X78849036Y-137201933D01*
X78904706Y-137162702D01*
X78909378Y-137159599D01*
X79053264Y-137044423D01*
X79169283Y-136910053D01*
X79256430Y-136760784D01*
X79313699Y-136600913D01*
X79340086Y-136434737D01*
X79334585Y-136266552D01*
X79296190Y-136100655D01*
X79223895Y-135941342D01*
X79202626Y-135906487D01*
X79091996Y-135765737D01*
X78961302Y-135652714D01*
X78815064Y-135568003D01*
X78657808Y-135512194D01*
X78494057Y-135485874D01*
X78328333Y-135489630D01*
X78165162Y-135524050D01*
X78009065Y-135589723D01*
X77864567Y-135687235D01*
X77819869Y-135726813D01*
X77706112Y-135850703D01*
X77623218Y-135981124D01*
X77566356Y-136127315D01*
X77534687Y-136272088D01*
X77526869Y-136434860D01*
X77552938Y-136598440D01*
X77610245Y-136757298D01*
X77696144Y-136905906D01*
X77807986Y-137038735D01*
X77943123Y-137150256D01*
X77960883Y-137162011D01*
X78017150Y-137200508D01*
X78059923Y-137233863D01*
X78080372Y-137255160D01*
X78080669Y-137255833D01*
X78076279Y-137278871D01*
X78058876Y-137331157D01*
X78030268Y-137408390D01*
X77992265Y-137506268D01*
X77946674Y-137620491D01*
X77895303Y-137746758D01*
X77839962Y-137880767D01*
X77782458Y-138018218D01*
X77724601Y-138154808D01*
X77668198Y-138286237D01*
X77615058Y-138408205D01*
X77566990Y-138516409D01*
X77525801Y-138606549D01*
X77493301Y-138674323D01*
X77471297Y-138715430D01*
X77462436Y-138726226D01*
X77435360Y-138717819D01*
X77384697Y-138695272D01*
X77319183Y-138662613D01*
X77283159Y-138643520D01*
X77130168Y-138560800D01*
X76947912Y-138684075D01*
X76854875Y-138747228D01*
X76753015Y-138816727D01*
X76657562Y-138882165D01*
X76609750Y-138915117D01*
X76542505Y-138960273D01*
X76485564Y-138996057D01*
X76446354Y-139017938D01*
X76433619Y-139022563D01*
X76415083Y-139010085D01*
X76374059Y-138975252D01*
X76314525Y-138921678D01*
X76240458Y-138852983D01*
X76155835Y-138772781D01*
X76102315Y-138721286D01*
X76008681Y-138629286D01*
X75927759Y-138546999D01*
X75862823Y-138477945D01*
X75817142Y-138425644D01*
X75793989Y-138393616D01*
X75791768Y-138387116D01*
X75802076Y-138362394D01*
X75830561Y-138312405D01*
X75874063Y-138242212D01*
X75929423Y-138156875D01*
X75993480Y-138061456D01*
X76011697Y-138034854D01*
X76078073Y-137938167D01*
X76137622Y-137851117D01*
X76187016Y-137778595D01*
X76222925Y-137725493D01*
X76242019Y-137696703D01*
X76243864Y-137693726D01*
X76241105Y-137670782D01*
X76226462Y-137620336D01*
X76202487Y-137549041D01*
X76171734Y-137463547D01*
X76136756Y-137370507D01*
X76100107Y-137276574D01*
X76064339Y-137188399D01*
X76032006Y-137112634D01*
X76005662Y-137055931D01*
X75987858Y-137024943D01*
X75986593Y-137023457D01*
X75975706Y-137014601D01*
X75957318Y-137005843D01*
X75927394Y-136996277D01*
X75881897Y-136984996D01*
X75816791Y-136971093D01*
X75728039Y-136953663D01*
X75611607Y-136931798D01*
X75463458Y-136904591D01*
X75431382Y-136898741D01*
X75336314Y-136880374D01*
X75253435Y-136862405D01*
X75190070Y-136846569D01*
X75153542Y-136834600D01*
X75148644Y-136831810D01*
X75140573Y-136807072D01*
X75134013Y-136751790D01*
X75128967Y-136672389D01*
X75125441Y-136575296D01*
X75123439Y-136466938D01*
X75122964Y-136353740D01*
X75124023Y-136242128D01*
X75126618Y-136138529D01*
X75130754Y-136049368D01*
X75136437Y-135981072D01*
X75143669Y-135940066D01*
X75148029Y-135931674D01*
X75172302Y-135923208D01*
X75227574Y-135909435D01*
X75308338Y-135891550D01*
X75409088Y-135870748D01*
X75524317Y-135848223D01*
X75587098Y-135836418D01*
X75706213Y-135814151D01*
X75812435Y-135793979D01*
X75900573Y-135776915D01*
X75965434Y-135763969D01*
X76001826Y-135756155D01*
X76007816Y-135754422D01*
X76017939Y-135734890D01*
X76039338Y-135687843D01*
X76069161Y-135620003D01*
X76104555Y-135538091D01*
X76142668Y-135448828D01*
X76180647Y-135358935D01*
X76215640Y-135275135D01*
X76244794Y-135204147D01*
X76265257Y-135152694D01*
X76274177Y-135127497D01*
X76274343Y-135126396D01*
X76264231Y-135106519D01*
X76235883Y-135060777D01*
X76192277Y-134993717D01*
X76136394Y-134909884D01*
X76071213Y-134813826D01*
X76033321Y-134758650D01*
X75964275Y-134657481D01*
X75902950Y-134565630D01*
X75852337Y-134487744D01*
X75815429Y-134428469D01*
X75795218Y-134392451D01*
X75792299Y-134384377D01*
X75804847Y-134365584D01*
X75839537Y-134325457D01*
X75891937Y-134268493D01*
X75957616Y-134199185D01*
X76032144Y-134122031D01*
X76111087Y-134041525D01*
X76190017Y-133962163D01*
X76264500Y-133888440D01*
X76330106Y-133824852D01*
X76382404Y-133775894D01*
X76416961Y-133746061D01*
X76428522Y-133738942D01*
X76447346Y-133748953D01*
X76492369Y-133777078D01*
X76559213Y-133820454D01*
X76643501Y-133876218D01*
X76740856Y-133941506D01*
X76814293Y-133991246D01*
X77185333Y-134243551D01*
X77803905Y-133988555D01*
X77887725Y-133543931D01*
X77971546Y-133099307D01*
X78896994Y-133099307D01*
X78980814Y-133543931D01*
G37*
D13*
X78980814Y-133543931D02*
X79064635Y-133988555D01*
X79373920Y-134116053D01*
X79683206Y-134243551D01*
X80054246Y-133991246D01*
X80158157Y-133920996D01*
X80252087Y-133858272D01*
X80331652Y-133805938D01*
X80392470Y-133766857D01*
X80430157Y-133743893D01*
X80440421Y-133738942D01*
X80458910Y-133751676D01*
X80498420Y-133786882D01*
X80554522Y-133840062D01*
X80622787Y-133906718D01*
X80698786Y-133982354D01*
X80778092Y-134062472D01*
X80856275Y-134142574D01*
X80928907Y-134218164D01*
X80991559Y-134284745D01*
X81039803Y-134337818D01*
X81069210Y-134372887D01*
X81076241Y-134384623D01*
X81066123Y-134406260D01*
X81037759Y-134453662D01*
X80994129Y-134522193D01*
X80938218Y-134607215D01*
X80873006Y-134704093D01*
X80835219Y-134759350D01*
X80766343Y-134860248D01*
X80705140Y-134951299D01*
X80654578Y-135027970D01*
X80617628Y-135085728D01*
X80597258Y-135120043D01*
X80594197Y-135127254D01*
X80601136Y-135147748D01*
X80620051Y-135195513D01*
X80648087Y-135263832D01*
X80682391Y-135345989D01*
X80720109Y-135435270D01*
X80758387Y-135524958D01*
X80794370Y-135608338D01*
X80825206Y-135678694D01*
X80848039Y-135729310D01*
X80860017Y-135753471D01*
X80860724Y-135754422D01*
X80879531Y-135759036D01*
X80929618Y-135769328D01*
X81005793Y-135784287D01*
X81102865Y-135802901D01*
X81215643Y-135824159D01*
X81281442Y-135836418D01*
X81401950Y-135859362D01*
X81510797Y-135881195D01*
X81602476Y-135900722D01*
X81671481Y-135916748D01*
X81712304Y-135928079D01*
X81720511Y-135931674D01*
X81728548Y-135956006D01*
X81735033Y-136010959D01*
X81739970Y-136090108D01*
X81743364Y-136187026D01*
X81745218Y-136295287D01*
X81745538Y-136408465D01*
X81744327Y-136520135D01*
X81741590Y-136623868D01*
X81737331Y-136713241D01*
X81731555Y-136781826D01*
X81724267Y-136823197D01*
X81719895Y-136831810D01*
X81693764Y-136842133D01*
X81638393Y-136856892D01*
X81561107Y-136874352D01*
X81469230Y-136892780D01*
X81437158Y-136898741D01*
X81282524Y-136927066D01*
X81160375Y-136949876D01*
X81066673Y-136968080D01*
X80997384Y-136982583D01*
X80948471Y-136994292D01*
X80915897Y-137004115D01*
X80895628Y-137012956D01*
X80883626Y-137021724D01*
X80881947Y-137023457D01*
X80865184Y-137051371D01*
X80839614Y-137105695D01*
X80807788Y-137179777D01*
X80772260Y-137266965D01*
X80735583Y-137360608D01*
X80700311Y-137454052D01*
X80668996Y-137540647D01*
X80644193Y-137613740D01*
X80628454Y-137666678D01*
X80624332Y-137692811D01*
X80624676Y-137693726D01*
X80638641Y-137715086D01*
X80670322Y-137762084D01*
X80716391Y-137829827D01*
X80773518Y-137913423D01*
X80838373Y-138007982D01*
X80856843Y-138034854D01*
X80922699Y-138132275D01*
X80980650Y-138221163D01*
X81027538Y-138296412D01*
X81060207Y-138352920D01*
X81075500Y-138385581D01*
X81076241Y-138389593D01*
X81063392Y-138410684D01*
X81027888Y-138452464D01*
X80974293Y-138510445D01*
X80907171Y-138580135D01*
X80831087Y-138657045D01*
X80750604Y-138736683D01*
X80670287Y-138814561D01*
X80594699Y-138886186D01*
X80528405Y-138947070D01*
X80475969Y-138992721D01*
X80441955Y-139018650D01*
X80432545Y-139022883D01*
X80410643Y-139012912D01*
X80365800Y-138986020D01*
X80305321Y-138946736D01*
X80258789Y-138915117D01*
X80174475Y-138857098D01*
X80074626Y-138788784D01*
X79974473Y-138720579D01*
X79920627Y-138684075D01*
X79738371Y-138560800D01*
X79585381Y-138643520D01*
X79515682Y-138679759D01*
X79456414Y-138707926D01*
X79416311Y-138723991D01*
X79406103Y-138726226D01*
X79393829Y-138709722D01*
X79369613Y-138663082D01*
X79335263Y-138590609D01*
X79292588Y-138496606D01*
X79243394Y-138385374D01*
X79189490Y-138261215D01*
X79132684Y-138128432D01*
X79074782Y-137991327D01*
X79017593Y-137854202D01*
X78962924Y-137721358D01*
X78912584Y-137597098D01*
X78868380Y-137485725D01*
X78832119Y-137391539D01*
X78805609Y-137318844D01*
X78790658Y-137271941D01*
X78788254Y-137255833D01*
X78807311Y-137235286D01*
X78849036Y-137201933D01*
X78904706Y-137162702D01*
X78909378Y-137159599D01*
X79053264Y-137044423D01*
X79169283Y-136910053D01*
X79256430Y-136760784D01*
X79313699Y-136600913D01*
X79340086Y-136434737D01*
X79334585Y-136266552D01*
X79296190Y-136100655D01*
X79223895Y-135941342D01*
X79202626Y-135906487D01*
X79091996Y-135765737D01*
X78961302Y-135652714D01*
X78815064Y-135568003D01*
X78657808Y-135512194D01*
X78494057Y-135485874D01*
X78328333Y-135489630D01*
X78165162Y-135524050D01*
X78009065Y-135589723D01*
X77864567Y-135687235D01*
X77819869Y-135726813D01*
X77706112Y-135850703D01*
X77623218Y-135981124D01*
X77566356Y-136127315D01*
X77534687Y-136272088D01*
X77526869Y-136434860D01*
X77552938Y-136598440D01*
X77610245Y-136757298D01*
X77696144Y-136905906D01*
X77807986Y-137038735D01*
X77943123Y-137150256D01*
X77960883Y-137162011D01*
X78017150Y-137200508D01*
X78059923Y-137233863D01*
X78080372Y-137255160D01*
X78080669Y-137255833D01*
X78076279Y-137278871D01*
X78058876Y-137331157D01*
X78030268Y-137408390D01*
X77992265Y-137506268D01*
X77946674Y-137620491D01*
X77895303Y-137746758D01*
X77839962Y-137880767D01*
X77782458Y-138018218D01*
X77724601Y-138154808D01*
X77668198Y-138286237D01*
X77615058Y-138408205D01*
X77566990Y-138516409D01*
X77525801Y-138606549D01*
X77493301Y-138674323D01*
X77471297Y-138715430D01*
X77462436Y-138726226D01*
X77435360Y-138717819D01*
X77384697Y-138695272D01*
X77319183Y-138662613D01*
X77283159Y-138643520D01*
X77130168Y-138560800D01*
X76947912Y-138684075D01*
X76854875Y-138747228D01*
X76753015Y-138816727D01*
X76657562Y-138882165D01*
X76609750Y-138915117D01*
X76542505Y-138960273D01*
X76485564Y-138996057D01*
X76446354Y-139017938D01*
X76433619Y-139022563D01*
X76415083Y-139010085D01*
X76374059Y-138975252D01*
X76314525Y-138921678D01*
X76240458Y-138852983D01*
X76155835Y-138772781D01*
X76102315Y-138721286D01*
X76008681Y-138629286D01*
X75927759Y-138546999D01*
X75862823Y-138477945D01*
X75817142Y-138425644D01*
X75793989Y-138393616D01*
X75791768Y-138387116D01*
X75802076Y-138362394D01*
X75830561Y-138312405D01*
X75874063Y-138242212D01*
X75929423Y-138156875D01*
X75993480Y-138061456D01*
X76011697Y-138034854D01*
X76078073Y-137938167D01*
X76137622Y-137851117D01*
X76187016Y-137778595D01*
X76222925Y-137725493D01*
X76242019Y-137696703D01*
X76243864Y-137693726D01*
X76241105Y-137670782D01*
X76226462Y-137620336D01*
X76202487Y-137549041D01*
X76171734Y-137463547D01*
X76136756Y-137370507D01*
X76100107Y-137276574D01*
X76064339Y-137188399D01*
X76032006Y-137112634D01*
X76005662Y-137055931D01*
X75987858Y-137024943D01*
X75986593Y-137023457D01*
X75975706Y-137014601D01*
X75957318Y-137005843D01*
X75927394Y-136996277D01*
X75881897Y-136984996D01*
X75816791Y-136971093D01*
X75728039Y-136953663D01*
X75611607Y-136931798D01*
X75463458Y-136904591D01*
X75431382Y-136898741D01*
X75336314Y-136880374D01*
X75253435Y-136862405D01*
X75190070Y-136846569D01*
X75153542Y-136834600D01*
X75148644Y-136831810D01*
X75140573Y-136807072D01*
X75134013Y-136751790D01*
X75128967Y-136672389D01*
X75125441Y-136575296D01*
X75123439Y-136466938D01*
X75122964Y-136353740D01*
X75124023Y-136242128D01*
X75126618Y-136138529D01*
X75130754Y-136049368D01*
X75136437Y-135981072D01*
X75143669Y-135940066D01*
X75148029Y-135931674D01*
X75172302Y-135923208D01*
X75227574Y-135909435D01*
X75308338Y-135891550D01*
X75409088Y-135870748D01*
X75524317Y-135848223D01*
X75587098Y-135836418D01*
X75706213Y-135814151D01*
X75812435Y-135793979D01*
X75900573Y-135776915D01*
X75965434Y-135763969D01*
X76001826Y-135756155D01*
X76007816Y-135754422D01*
X76017939Y-135734890D01*
X76039338Y-135687843D01*
X76069161Y-135620003D01*
X76104555Y-135538091D01*
X76142668Y-135448828D01*
X76180647Y-135358935D01*
X76215640Y-135275135D01*
X76244794Y-135204147D01*
X76265257Y-135152694D01*
X76274177Y-135127497D01*
X76274343Y-135126396D01*
X76264231Y-135106519D01*
X76235883Y-135060777D01*
X76192277Y-134993717D01*
X76136394Y-134909884D01*
X76071213Y-134813826D01*
X76033321Y-134758650D01*
X75964275Y-134657481D01*
X75902950Y-134565630D01*
X75852337Y-134487744D01*
X75815429Y-134428469D01*
X75795218Y-134392451D01*
X75792299Y-134384377D01*
X75804847Y-134365584D01*
X75839537Y-134325457D01*
X75891937Y-134268493D01*
X75957616Y-134199185D01*
X76032144Y-134122031D01*
X76111087Y-134041525D01*
X76190017Y-133962163D01*
X76264500Y-133888440D01*
X76330106Y-133824852D01*
X76382404Y-133775894D01*
X76416961Y-133746061D01*
X76428522Y-133738942D01*
X76447346Y-133748953D01*
X76492369Y-133777078D01*
X76559213Y-133820454D01*
X76643501Y-133876218D01*
X76740856Y-133941506D01*
X76814293Y-133991246D01*
X77185333Y-134243551D01*
X77803905Y-133988555D01*
X77887725Y-133543931D01*
X77971546Y-133099307D01*
X78896994Y-133099307D01*
X78980814Y-133543931D01*
D14*
%TO.C,C10*%
X151462779Y-91010000D02*
X151137221Y-91010000D01*
X151462779Y-89990000D02*
X151137221Y-89990000D01*
%TO.C,R4*%
X135962779Y-114691666D02*
X135637221Y-114691666D01*
X135962779Y-113671666D02*
X135637221Y-113671666D01*
D15*
%TO.C,U1*%
X39936023Y-134939033D02*
X39936023Y-144639033D01*
X39936023Y-144639033D02*
X53436023Y-144639033D01*
X39936023Y-134939033D02*
X53436023Y-134939033D01*
X53436023Y-134939033D02*
X53436023Y-144639033D01*
%TO.C,TR2*%
X39940408Y-38507745D02*
X39940408Y-48207745D01*
X39940408Y-48207745D02*
X53440408Y-48207745D01*
X53440408Y-38507745D02*
X53440408Y-48207745D01*
X39940408Y-38507745D02*
X53440408Y-38507745D01*
D16*
X51150408Y-37957745D02*
G75*
G03*
X51150408Y-37957745I-100000J0D01*
G01*
D14*
%TO.C,L3*%
X57740000Y-80591422D02*
X57740000Y-81108578D01*
X59160000Y-80591422D02*
X59160000Y-81108578D01*
D15*
%TO.C,TR3*%
X39916111Y-75971385D02*
X53416111Y-75971385D01*
X53416111Y-66271385D02*
X53416111Y-75971385D01*
X39916111Y-66271385D02*
X53416111Y-66271385D01*
X39916111Y-66271385D02*
X39916111Y-75971385D01*
D16*
X51126111Y-65721385D02*
G75*
G03*
X51126111Y-65721385I-100000J0D01*
G01*
D14*
%TO.C,C9*%
X151890000Y-60187221D02*
X151890000Y-60512779D01*
X152910000Y-60187221D02*
X152910000Y-60512779D01*
%TO.C,J11*%
X93640000Y-40635000D02*
X92370000Y-40635000D01*
X92370000Y-40635000D02*
X92370000Y-39365000D01*
%TO.C,FB1*%
X159590000Y-101352064D02*
X159590000Y-100147936D01*
X161410000Y-101352064D02*
X161410000Y-100147936D01*
%TO.C,R8*%
X135962779Y-100517811D02*
X135637221Y-100517811D01*
X135962779Y-101537811D02*
X135637221Y-101537811D01*
%TO.C,C5*%
X56160000Y-127687221D02*
X56160000Y-128012779D01*
X55140000Y-127687221D02*
X55140000Y-128012779D01*
%TO.C,U7*%
X155050000Y-69777500D02*
X152600000Y-69777500D01*
X153250000Y-72997500D02*
X155050000Y-72997500D01*
%TO.C,D4*%
X158485000Y-113406666D02*
X156200000Y-113406666D01*
X158485000Y-114876666D02*
X158485000Y-113406666D01*
X156200000Y-114876666D02*
X158485000Y-114876666D01*
%TO.C,R13*%
X151450279Y-86690000D02*
X151124721Y-86690000D01*
X151450279Y-87710000D02*
X151124721Y-87710000D01*
%TO.C,D5*%
X158485000Y-116298332D02*
X156200000Y-116298332D01*
X158485000Y-117768332D02*
X158485000Y-116298332D01*
X156200000Y-117768332D02*
X158485000Y-117768332D01*
%TO.C,C7*%
X55960000Y-72487221D02*
X55960000Y-72812779D01*
X54940000Y-72487221D02*
X54940000Y-72812779D01*
%TO.C,J10*%
X107490000Y-40580000D02*
X106220000Y-40580000D01*
X106220000Y-40580000D02*
X106220000Y-39310000D01*
%TO.C,R14*%
X151887779Y-82165000D02*
X151562221Y-82165000D01*
X151887779Y-83185000D02*
X151562221Y-83185000D01*
%TO.C,C12*%
X138132779Y-81990000D02*
X137807221Y-81990000D01*
X138132779Y-83010000D02*
X137807221Y-83010000D01*
%TO.C,R17*%
X145310000Y-50562779D02*
X145310000Y-50237221D01*
X144290000Y-50562779D02*
X144290000Y-50237221D01*
%TO.C,C11*%
X149940000Y-70787221D02*
X149940000Y-71112779D01*
X150960000Y-70787221D02*
X150960000Y-71112779D01*
%TO.C,L4*%
X59260000Y-108553922D02*
X59260000Y-109071078D01*
X57840000Y-108553922D02*
X57840000Y-109071078D01*
%TO.C,R18*%
X145887221Y-80340000D02*
X146212779Y-80340000D01*
X145887221Y-81360000D02*
X146212779Y-81360000D01*
D15*
%TO.C,U2*%
X39950408Y-60970245D02*
X53450408Y-60970245D01*
X39950408Y-51270245D02*
X39950408Y-60970245D01*
X53450408Y-51270245D02*
X53450408Y-60970245D01*
X39950408Y-51270245D02*
X53450408Y-51270245D01*
D14*
%TO.C,D1*%
X156200000Y-129335000D02*
X158485000Y-129335000D01*
X158485000Y-129335000D02*
X158485000Y-127865000D01*
X158485000Y-127865000D02*
X156200000Y-127865000D01*
%TO.C,C3*%
X56160000Y-82800279D02*
X56160000Y-82474721D01*
X55140000Y-82800279D02*
X55140000Y-82474721D01*
%TO.C,C21*%
X157241422Y-96540000D02*
X157758578Y-96540000D01*
X157241422Y-97960000D02*
X157758578Y-97960000D01*
%TO.C,L1*%
X59110000Y-136591422D02*
X59110000Y-137108578D01*
X57690000Y-136591422D02*
X57690000Y-137108578D01*
%TO.C,J3*%
X127320000Y-43180000D02*
X129920000Y-43180000D01*
X127320000Y-121980000D02*
X132520000Y-121980000D01*
X129920000Y-40580000D02*
X132520000Y-40580000D01*
X127320000Y-40580000D02*
X128650000Y-40580000D01*
X132520000Y-40580000D02*
X132520000Y-121980000D01*
X127320000Y-43180000D02*
X127320000Y-121980000D01*
X127320000Y-41910000D02*
X127320000Y-40580000D01*
X129920000Y-43180000D02*
X129920000Y-40580000D01*
%TO.C,C14*%
X137882779Y-53180000D02*
X137557221Y-53180000D01*
X137882779Y-54200000D02*
X137557221Y-54200000D01*
%TO.C,C2*%
X55140000Y-55012779D02*
X55140000Y-54687221D01*
X56160000Y-55012779D02*
X56160000Y-54687221D01*
%TO.C,R3*%
X135962779Y-110780000D02*
X135637221Y-110780000D01*
X135962779Y-111800000D02*
X135637221Y-111800000D01*
%TO.C,J7*%
X90110000Y-47243000D02*
X84110000Y-47243000D01*
X81450000Y-60833000D02*
X84110000Y-60833000D01*
X81052929Y-65023000D02*
X81450000Y-65023000D01*
X81052929Y-80263000D02*
X81450000Y-80263000D01*
X90110000Y-84583000D02*
X90110000Y-85343000D01*
X84110000Y-41403000D02*
X90110000Y-41403000D01*
X81052929Y-92963000D02*
X81450000Y-92963000D01*
X81450000Y-63373000D02*
X84110000Y-63373000D01*
X90110000Y-92963000D02*
X84110000Y-92963000D01*
X90110000Y-67563000D02*
X84110000Y-67563000D01*
X81450000Y-86233000D02*
X84110000Y-86233000D01*
X90110000Y-82043000D02*
X90110000Y-82803000D01*
X84110000Y-66803000D02*
X90110000Y-66803000D01*
X90110000Y-98043000D02*
X84110000Y-98043000D01*
X90110000Y-99823000D02*
X90110000Y-100583000D01*
X90110000Y-97283000D02*
X90110000Y-98043000D01*
X81450000Y-68453000D02*
X84110000Y-68453000D01*
X90110000Y-49783000D02*
X84110000Y-49783000D01*
X81450000Y-98933000D02*
X84110000Y-98933000D01*
X90110000Y-66803000D02*
X90110000Y-67563000D01*
X81052929Y-59183000D02*
X81450000Y-59183000D01*
X81450000Y-50673000D02*
X84110000Y-50673000D01*
X81052929Y-49783000D02*
X81450000Y-49783000D01*
X90110000Y-65023000D02*
X84110000Y-65023000D01*
X90110000Y-90423000D02*
X84110000Y-90423000D01*
X90110000Y-77723000D02*
X84110000Y-77723000D01*
X81450000Y-70993000D02*
X84110000Y-70993000D01*
X81052929Y-103123000D02*
X81450000Y-103123000D01*
X84110000Y-104903000D02*
X90110000Y-104903000D01*
X90110000Y-80263000D02*
X84110000Y-80263000D01*
X81052929Y-82803000D02*
X81450000Y-82803000D01*
X90110000Y-46483000D02*
X90110000Y-47243000D01*
X84110000Y-84583000D02*
X90110000Y-84583000D01*
X81052929Y-59943000D02*
X81450000Y-59943000D01*
X81052929Y-98043000D02*
X81450000Y-98043000D01*
X81052929Y-105663000D02*
X81450000Y-105663000D01*
X81450000Y-106613000D02*
X84110000Y-106613000D01*
X81450000Y-53213000D02*
X84110000Y-53213000D01*
X90110000Y-49023000D02*
X90110000Y-49783000D01*
X81052929Y-71883000D02*
X81450000Y-71883000D01*
X81052929Y-87883000D02*
X81450000Y-87883000D01*
X81052929Y-82043000D02*
X81450000Y-82043000D01*
X90110000Y-44703000D02*
X84110000Y-44703000D01*
X90110000Y-89663000D02*
X90110000Y-90423000D01*
X90110000Y-64263000D02*
X90110000Y-65023000D01*
X84110000Y-97283000D02*
X90110000Y-97283000D01*
X81052929Y-97283000D02*
X81450000Y-97283000D01*
X90110000Y-42163000D02*
X84110000Y-42163000D01*
X90110000Y-56643000D02*
X90110000Y-57403000D01*
X81052929Y-56643000D02*
X81450000Y-56643000D01*
X81052929Y-72643000D02*
X81450000Y-72643000D01*
X81052929Y-77723000D02*
X81450000Y-77723000D01*
X81052929Y-44703000D02*
X81450000Y-44703000D01*
X78740000Y-40513000D02*
X80010000Y-40513000D01*
X90110000Y-61723000D02*
X90110000Y-62483000D01*
X81450000Y-58293000D02*
X84110000Y-58293000D01*
X84110000Y-46483000D02*
X90110000Y-46483000D01*
X84110000Y-42063000D02*
X90110000Y-42063000D01*
X90110000Y-54103000D02*
X90110000Y-54863000D01*
X84110000Y-43943000D02*
X90110000Y-43943000D01*
X90110000Y-82803000D02*
X84110000Y-82803000D01*
X81052929Y-87123000D02*
X81450000Y-87123000D01*
X84110000Y-41823000D02*
X90110000Y-41823000D01*
X81052929Y-95503000D02*
X81450000Y-95503000D01*
X90110000Y-74423000D02*
X90110000Y-75183000D01*
X84110000Y-102363000D02*
X90110000Y-102363000D01*
X90110000Y-102363000D02*
X90110000Y-103123000D01*
X84110000Y-61723000D02*
X90110000Y-61723000D01*
X90110000Y-85343000D02*
X84110000Y-85343000D01*
X90110000Y-71883000D02*
X90110000Y-72643000D01*
X84110000Y-56643000D02*
X90110000Y-56643000D01*
X84110000Y-76963000D02*
X90110000Y-76963000D01*
X84110000Y-41583000D02*
X90110000Y-41583000D01*
X90110000Y-41403000D02*
X90110000Y-42163000D01*
X90110000Y-95503000D02*
X84110000Y-95503000D01*
X84110000Y-41943000D02*
X90110000Y-41943000D01*
X84110000Y-51563000D02*
X90110000Y-51563000D01*
X81450000Y-73533000D02*
X84110000Y-73533000D01*
X84110000Y-69343000D02*
X90110000Y-69343000D01*
X81120000Y-42163000D02*
X81450000Y-42163000D01*
X81052929Y-94743000D02*
X81450000Y-94743000D01*
X90110000Y-54863000D02*
X84110000Y-54863000D01*
X81052929Y-67563000D02*
X81450000Y-67563000D01*
X81052929Y-74423000D02*
X81450000Y-74423000D01*
X81450000Y-45593000D02*
X84110000Y-45593000D01*
X84110000Y-89663000D02*
X90110000Y-89663000D01*
X81052929Y-92203000D02*
X81450000Y-92203000D01*
X90110000Y-92203000D02*
X90110000Y-92963000D01*
X81450000Y-40453000D02*
X81450000Y-106613000D01*
X84110000Y-106613000D02*
X84110000Y-40453000D01*
X81450000Y-96393000D02*
X84110000Y-96393000D01*
X84110000Y-40453000D02*
X81450000Y-40453000D01*
X81052929Y-49023000D02*
X81450000Y-49023000D01*
X81052929Y-79503000D02*
X81450000Y-79503000D01*
X81052929Y-70103000D02*
X81450000Y-70103000D01*
X81052929Y-75183000D02*
X81450000Y-75183000D01*
X90110000Y-75183000D02*
X84110000Y-75183000D01*
X81450000Y-81153000D02*
X84110000Y-81153000D01*
X84110000Y-64263000D02*
X90110000Y-64263000D01*
X81120000Y-41403000D02*
X81450000Y-41403000D01*
X90110000Y-94743000D02*
X90110000Y-95503000D01*
X90110000Y-51563000D02*
X90110000Y-52323000D01*
X81052929Y-57403000D02*
X81450000Y-57403000D01*
X81052929Y-47243000D02*
X81450000Y-47243000D01*
X81052929Y-89663000D02*
X81450000Y-89663000D01*
X84110000Y-99823000D02*
X90110000Y-99823000D01*
X90110000Y-43943000D02*
X90110000Y-44703000D01*
X81450000Y-48133000D02*
X84110000Y-48133000D01*
X81052929Y-64263000D02*
X81450000Y-64263000D01*
X90110000Y-57403000D02*
X84110000Y-57403000D01*
X84110000Y-92203000D02*
X90110000Y-92203000D01*
X90110000Y-87123000D02*
X90110000Y-87883000D01*
X90110000Y-72643000D02*
X84110000Y-72643000D01*
X81052929Y-85343000D02*
X81450000Y-85343000D01*
X90110000Y-87883000D02*
X84110000Y-87883000D01*
X84110000Y-74423000D02*
X90110000Y-74423000D01*
X81450000Y-55753000D02*
X84110000Y-55753000D01*
X81052929Y-54863000D02*
X81450000Y-54863000D01*
X81052929Y-69343000D02*
X81450000Y-69343000D01*
X81450000Y-104013000D02*
X84110000Y-104013000D01*
X81052929Y-102363000D02*
X81450000Y-102363000D01*
X84110000Y-41703000D02*
X90110000Y-41703000D01*
X84110000Y-59183000D02*
X90110000Y-59183000D01*
X84110000Y-49023000D02*
X90110000Y-49023000D01*
X90110000Y-69343000D02*
X90110000Y-70103000D01*
X84110000Y-79503000D02*
X90110000Y-79503000D01*
X81052929Y-100583000D02*
X81450000Y-100583000D01*
X90110000Y-70103000D02*
X84110000Y-70103000D01*
X81450000Y-83693000D02*
X84110000Y-83693000D01*
X81052929Y-61723000D02*
X81450000Y-61723000D01*
X81052929Y-76963000D02*
X81450000Y-76963000D01*
X84110000Y-71883000D02*
X90110000Y-71883000D01*
X81450000Y-43053000D02*
X84110000Y-43053000D01*
X84110000Y-41463000D02*
X90110000Y-41463000D01*
X81450000Y-93853000D02*
X84110000Y-93853000D01*
X90110000Y-100583000D02*
X84110000Y-100583000D01*
X81052929Y-99823000D02*
X81450000Y-99823000D01*
X81052929Y-52323000D02*
X81450000Y-52323000D01*
X81052929Y-46483000D02*
X81450000Y-46483000D01*
X90110000Y-104903000D02*
X90110000Y-105663000D01*
X81052929Y-90423000D02*
X81450000Y-90423000D01*
X90110000Y-52323000D02*
X84110000Y-52323000D01*
X81052929Y-66803000D02*
X81450000Y-66803000D01*
X81052929Y-54103000D02*
X81450000Y-54103000D01*
X84110000Y-82043000D02*
X90110000Y-82043000D01*
X81450000Y-91313000D02*
X84110000Y-91313000D01*
X81052929Y-84583000D02*
X81450000Y-84583000D01*
X81052929Y-104903000D02*
X81450000Y-104903000D01*
X84110000Y-94743000D02*
X90110000Y-94743000D01*
X90110000Y-105663000D02*
X84110000Y-105663000D01*
X84110000Y-54103000D02*
X90110000Y-54103000D01*
X90110000Y-76963000D02*
X90110000Y-77723000D01*
X90110000Y-79503000D02*
X90110000Y-80263000D01*
X90110000Y-103123000D02*
X84110000Y-103123000D01*
X81450000Y-88773000D02*
X84110000Y-88773000D01*
X81052929Y-62483000D02*
X81450000Y-62483000D01*
X81450000Y-65913000D02*
X84110000Y-65913000D01*
X90110000Y-59943000D02*
X84110000Y-59943000D01*
X81450000Y-78613000D02*
X84110000Y-78613000D01*
X90110000Y-62483000D02*
X84110000Y-62483000D01*
X78740000Y-41783000D02*
X78740000Y-40513000D01*
X81052929Y-51563000D02*
X81450000Y-51563000D01*
X81450000Y-101473000D02*
X84110000Y-101473000D01*
X84110000Y-87123000D02*
X90110000Y-87123000D01*
X81052929Y-43943000D02*
X81450000Y-43943000D01*
X90110000Y-59183000D02*
X90110000Y-59943000D01*
X81450000Y-76073000D02*
X84110000Y-76073000D01*
%TO.C,J6*%
X97670000Y-132900000D02*
X97670000Y-131570000D01*
X97670000Y-131570000D02*
X99000000Y-131570000D01*
X97670000Y-134170000D02*
X97670000Y-146930000D01*
X100330000Y-134170000D02*
X100330000Y-146930000D01*
X97670000Y-134170000D02*
X100330000Y-134170000D01*
X97670000Y-146930000D02*
X100330000Y-146930000D01*
%TO.C,R12*%
X157487221Y-64360000D02*
X157812779Y-64360000D01*
X157487221Y-63340000D02*
X157812779Y-63340000D01*
%TO.C,TP5*%
X158750000Y-68050000D02*
G75*
G03*
X158750000Y-68050000I-950000J0D01*
G01*
%TO.C,J4*%
X158720000Y-81270000D02*
X156800000Y-81270000D01*
X162435000Y-81270000D02*
X162435000Y-90430000D01*
X160730000Y-81270000D02*
X162435000Y-81270000D01*
X162435000Y-90430000D02*
X160730000Y-90430000D01*
X156800000Y-90430000D02*
X158720000Y-90430000D01*
%TO.C,C1*%
X55140000Y-138762779D02*
X55140000Y-138437221D01*
X56160000Y-138762779D02*
X56160000Y-138437221D01*
%TO.C,D2*%
X158485000Y-123551664D02*
X158485000Y-122081664D01*
X158485000Y-122081664D02*
X156200000Y-122081664D01*
X156200000Y-123551664D02*
X158485000Y-123551664D01*
%TO.C,D12*%
X160300000Y-50550000D02*
X154900000Y-50550000D01*
X160300000Y-50550000D02*
X160300000Y-47250000D01*
X160300000Y-47250000D02*
X154900000Y-47250000D01*
%TO.C,R24*%
X146810000Y-62262221D02*
X146810000Y-62587779D01*
X145790000Y-62262221D02*
X145790000Y-62587779D01*
%TO.C,R15*%
X150012779Y-58810000D02*
X149687221Y-58810000D01*
X150012779Y-57790000D02*
X149687221Y-57790000D01*
%TO.C,D9*%
X145225000Y-109486964D02*
X147510000Y-109486964D01*
X147510000Y-108016964D02*
X145225000Y-108016964D01*
X147510000Y-109486964D02*
X147510000Y-108016964D01*
%TO.C,R9*%
X135962779Y-104103358D02*
X135637221Y-104103358D01*
X135962779Y-103083358D02*
X135637221Y-103083358D01*
%TO.C,R1*%
X135962779Y-129150000D02*
X135637221Y-129150000D01*
X135962779Y-128130000D02*
X135637221Y-128130000D01*
D15*
%TO.C,U3*%
X39910000Y-88700000D02*
X53410000Y-88700000D01*
X39910000Y-79000000D02*
X39910000Y-88700000D01*
X53410000Y-79000000D02*
X53410000Y-88700000D01*
X39910000Y-79000000D02*
X53410000Y-79000000D01*
D14*
%TO.C,C8*%
X55626737Y-100157764D02*
X55626737Y-100483322D01*
X56646737Y-100157764D02*
X56646737Y-100483322D01*
%TO.C,R26*%
X149020000Y-76800279D02*
X149020000Y-76474721D01*
X148000000Y-76800279D02*
X148000000Y-76474721D01*
%TO.C,D6*%
X158485000Y-119189998D02*
X156200000Y-119189998D01*
X156200000Y-120659998D02*
X158485000Y-120659998D01*
X158485000Y-120659998D02*
X158485000Y-119189998D01*
%TO.C,R5*%
X135962779Y-116563332D02*
X135637221Y-116563332D01*
X135962779Y-117583332D02*
X135637221Y-117583332D01*
%TO.C,R23*%
X150062779Y-60590000D02*
X149737221Y-60590000D01*
X150062779Y-61610000D02*
X149737221Y-61610000D01*
%TO.C,C18*%
X147040000Y-54832779D02*
X147040000Y-54507221D01*
X148060000Y-54832779D02*
X148060000Y-54507221D01*
%TO.C,R11*%
X135962779Y-106668905D02*
X135637221Y-106668905D01*
X135962779Y-105648905D02*
X135637221Y-105648905D01*
%TO.C,R16*%
X150057221Y-55580000D02*
X150382779Y-55580000D01*
X150057221Y-54560000D02*
X150382779Y-54560000D01*
%TO.C,R19*%
X149862779Y-48590000D02*
X149537221Y-48590000D01*
X149862779Y-49610000D02*
X149537221Y-49610000D01*
%TO.C,D10*%
X145225000Y-106909642D02*
X147510000Y-106909642D01*
X147510000Y-105439642D02*
X145225000Y-105439642D01*
X147510000Y-106909642D02*
X147510000Y-105439642D01*
%TO.C,R10*%
X135962779Y-108214452D02*
X135637221Y-108214452D01*
X135962779Y-109234452D02*
X135637221Y-109234452D01*
%TO.C,D7*%
X145225000Y-101755000D02*
X147510000Y-101755000D01*
X147510000Y-100285000D02*
X145225000Y-100285000D01*
X147510000Y-101755000D02*
X147510000Y-100285000D01*
%TO.C,J9*%
X120150000Y-43450000D02*
X114150000Y-43450000D01*
X120150000Y-43630000D02*
X114150000Y-43630000D01*
X123140000Y-42870000D02*
X122810000Y-42870000D01*
X120150000Y-42970000D02*
X114150000Y-42970000D01*
X114150000Y-42870000D02*
X120150000Y-42870000D01*
X120150000Y-43330000D02*
X114150000Y-43330000D01*
X120150000Y-43570000D02*
X114150000Y-43570000D01*
X120150000Y-43210000D02*
X114150000Y-43210000D01*
X122810000Y-41920000D02*
X120150000Y-41920000D01*
X120150000Y-43090000D02*
X114150000Y-43090000D01*
X114150000Y-43630000D02*
X114150000Y-42870000D01*
X125520000Y-43250000D02*
X125520000Y-44520000D01*
X120150000Y-44580000D02*
X122810000Y-44580000D01*
X120150000Y-41920000D02*
X120150000Y-44580000D01*
X122810000Y-44580000D02*
X122810000Y-41920000D01*
X123140000Y-43630000D02*
X122810000Y-43630000D01*
X125520000Y-44520000D02*
X124250000Y-44520000D01*
%TO.C,J1*%
X130920000Y-131570000D02*
X132250000Y-131570000D01*
X133580000Y-134170000D02*
X133580000Y-146930000D01*
X130920000Y-132900000D02*
X130920000Y-131570000D01*
X130920000Y-134170000D02*
X133580000Y-134170000D01*
X130920000Y-134170000D02*
X130920000Y-146930000D01*
X130920000Y-146930000D02*
X133580000Y-146930000D01*
%TO.C,C4*%
X56035979Y-110682671D02*
X56035979Y-110357113D01*
X55015979Y-110682671D02*
X55015979Y-110357113D01*
%TO.C,D11*%
X158485000Y-126443330D02*
X158485000Y-124973330D01*
X156200000Y-126443330D02*
X158485000Y-126443330D01*
X158485000Y-124973330D02*
X156200000Y-124973330D01*
%TO.C,C16*%
X146315000Y-84062779D02*
X146315000Y-83737221D01*
X147335000Y-84062779D02*
X147335000Y-83737221D01*
%TO.C,C17*%
X139612779Y-52250000D02*
X139287221Y-52250000D01*
X139612779Y-51230000D02*
X139287221Y-51230000D01*
%TO.C,D3*%
X158485000Y-110515000D02*
X156200000Y-110515000D01*
X158485000Y-111985000D02*
X158485000Y-110515000D01*
X156200000Y-111985000D02*
X158485000Y-111985000D01*
%TO.C,C6*%
X56010000Y-44512221D02*
X56010000Y-44837779D01*
X54990000Y-44512221D02*
X54990000Y-44837779D01*
D15*
%TO.C,TR4*%
X39836530Y-103693594D02*
X53336530Y-103693594D01*
X39836530Y-93993594D02*
X53336530Y-93993594D01*
X53336530Y-93993594D02*
X53336530Y-103693594D01*
X39836530Y-93993594D02*
X39836530Y-103693594D01*
D16*
X51046530Y-93443594D02*
G75*
G03*
X51046530Y-93443594I-100000J0D01*
G01*
D14*
%TO.C,R6*%
X135962779Y-120474998D02*
X135637221Y-120474998D01*
X135962779Y-119454998D02*
X135637221Y-119454998D01*
%TO.C,R25*%
X151087779Y-76852500D02*
X150762221Y-76852500D01*
X151087779Y-77872500D02*
X150762221Y-77872500D01*
%TO.C,J8*%
X120150000Y-46840000D02*
X114150000Y-46840000D01*
X120150000Y-47380000D02*
X114150000Y-47380000D01*
X120150000Y-45670000D02*
X120150000Y-48330000D01*
X114150000Y-47380000D02*
X114150000Y-46620000D01*
X125520000Y-48270000D02*
X124250000Y-48270000D01*
X123140000Y-46620000D02*
X122810000Y-46620000D01*
X125520000Y-47000000D02*
X125520000Y-48270000D01*
X120150000Y-48330000D02*
X122810000Y-48330000D01*
X120150000Y-47080000D02*
X114150000Y-47080000D01*
X122810000Y-48330000D02*
X122810000Y-45670000D01*
X120150000Y-46720000D02*
X114150000Y-46720000D01*
X120150000Y-46960000D02*
X114150000Y-46960000D01*
X120150000Y-47200000D02*
X114150000Y-47200000D01*
X123140000Y-47380000D02*
X122810000Y-47380000D01*
X114150000Y-46620000D02*
X120150000Y-46620000D01*
X120150000Y-47320000D02*
X114150000Y-47320000D01*
X122810000Y-45670000D02*
X120150000Y-45670000D01*
%TO.C,C15*%
X140372779Y-81240000D02*
X140047221Y-81240000D01*
X140372779Y-80220000D02*
X140047221Y-80220000D01*
%TO.C,R7*%
X157599721Y-78740000D02*
X157925279Y-78740000D01*
X157599721Y-79760000D02*
X157925279Y-79760000D01*
%TO.C,C20*%
X157337221Y-98740000D02*
X157662779Y-98740000D01*
X157337221Y-99760000D02*
X157662779Y-99760000D01*
%TO.C,R21*%
X135962779Y-125238330D02*
X135637221Y-125238330D01*
X135962779Y-126258330D02*
X135637221Y-126258330D01*
D15*
%TO.C,U4*%
X39936023Y-106939033D02*
X53436023Y-106939033D01*
X53436023Y-106939033D02*
X53436023Y-116639033D01*
X39936023Y-116639033D02*
X53436023Y-116639033D01*
X39936023Y-106939033D02*
X39936023Y-116639033D01*
D14*
%TO.C,C13*%
X158260000Y-71087221D02*
X158260000Y-71412779D01*
X157240000Y-71087221D02*
X157240000Y-71412779D01*
%TO.C,D8*%
X147510000Y-102862321D02*
X145225000Y-102862321D01*
X147510000Y-104332321D02*
X147510000Y-102862321D01*
X145225000Y-104332321D02*
X147510000Y-104332321D01*
D15*
%TO.C,TR1*%
X53426023Y-121701533D02*
X53426023Y-131401533D01*
X39926023Y-131401533D02*
X53426023Y-131401533D01*
X39926023Y-121701533D02*
X53426023Y-121701533D01*
X39926023Y-121701533D02*
X39926023Y-131401533D01*
D16*
X51136023Y-121151533D02*
G75*
G03*
X51136023Y-121151533I-100000J0D01*
G01*
D14*
%TO.C,J2*%
X71815000Y-40580000D02*
X71815000Y-121980000D01*
X69215000Y-40580000D02*
X71815000Y-40580000D01*
X66615000Y-43180000D02*
X69215000Y-43180000D01*
X66615000Y-121980000D02*
X71815000Y-121980000D01*
X66615000Y-40580000D02*
X67945000Y-40580000D01*
X66615000Y-43180000D02*
X66615000Y-121980000D01*
X69215000Y-43180000D02*
X69215000Y-40580000D01*
X66615000Y-41910000D02*
X66615000Y-40580000D01*
%TO.C,U5*%
X144785000Y-53240000D02*
X145260000Y-53240000D01*
X145260000Y-58460000D02*
X145260000Y-57985000D01*
X140515000Y-58460000D02*
X140040000Y-58460000D01*
X140515000Y-53240000D02*
X140040000Y-53240000D01*
X145260000Y-53240000D02*
X145260000Y-53715000D01*
X140040000Y-58460000D02*
X140040000Y-57985000D01*
X144785000Y-58460000D02*
X145260000Y-58460000D01*
%TO.C,C19*%
X156991422Y-102710000D02*
X157508578Y-102710000D01*
X156991422Y-101290000D02*
X157508578Y-101290000D01*
%TO.C,R2*%
X135962779Y-122346664D02*
X135637221Y-122346664D01*
X135962779Y-123366664D02*
X135637221Y-123366664D01*
%TO.C,J5*%
X160730000Y-52270000D02*
X162435000Y-52270000D01*
X156800000Y-61430000D02*
X158720000Y-61430000D01*
X158720000Y-52270000D02*
X156800000Y-52270000D01*
X162435000Y-52270000D02*
X162435000Y-61430000D01*
X162435000Y-61430000D02*
X160730000Y-61430000D01*
%TO.C,U6*%
X140565000Y-87485000D02*
X140090000Y-87485000D01*
X145310000Y-82265000D02*
X145310000Y-82740000D01*
X144835000Y-87485000D02*
X145310000Y-87485000D01*
X140565000Y-82265000D02*
X140090000Y-82265000D01*
X144835000Y-82265000D02*
X145310000Y-82265000D01*
X140090000Y-87485000D02*
X140090000Y-87010000D01*
X145310000Y-87485000D02*
X145310000Y-87010000D01*
%TO.C,D13*%
X160400000Y-95650000D02*
X155000000Y-95650000D01*
X160400000Y-92350000D02*
X155000000Y-92350000D01*
X160400000Y-95650000D02*
X160400000Y-92350000D01*
%TO.C,R20*%
X151425279Y-89410000D02*
X151099721Y-89410000D01*
X151425279Y-88390000D02*
X151099721Y-88390000D01*
%TO.C,L2*%
X59360000Y-52835172D02*
X59360000Y-53352328D01*
X57940000Y-52835172D02*
X57940000Y-53352328D01*
%TD*%
%LPC*%
D17*
%TO.C,C10*%
X152087500Y-90500000D03*
X150512500Y-90500000D03*
%TD*%
%TO.C,R4*%
X136587500Y-114181666D03*
X135012500Y-114181666D03*
%TD*%
D18*
%TO.C,U1*%
X45816023Y-142589033D03*
X45816023Y-136989033D03*
D19*
X51056023Y-137249033D03*
D20*
X51056023Y-139789033D03*
D19*
X51056023Y-142329033D03*
D21*
X48426023Y-137249033D03*
X48426023Y-142329033D03*
%TD*%
D18*
%TO.C,TR2*%
X45810408Y-40557745D03*
X45810408Y-46157745D03*
D22*
X51050408Y-40817745D03*
D23*
X51050408Y-43357745D03*
X51050408Y-45897745D03*
D24*
X48430408Y-40817745D03*
X48430408Y-45897745D03*
%TD*%
D25*
%TO.C,L3*%
X58450000Y-79912500D03*
X58450000Y-81787500D03*
%TD*%
D18*
%TO.C,TR3*%
X45786111Y-68321385D03*
X45786111Y-73921385D03*
D22*
X51026111Y-68581385D03*
D23*
X51026111Y-71121385D03*
X51026111Y-73661385D03*
D24*
X48406111Y-68581385D03*
X48406111Y-73661385D03*
%TD*%
D26*
%TO.C,C9*%
X152400000Y-59562500D03*
X152400000Y-61137500D03*
%TD*%
D27*
%TO.C,J11*%
X93640000Y-39365000D03*
D28*
X96180000Y-39365000D03*
X98720000Y-39365000D03*
X101260000Y-39365000D03*
%TD*%
D29*
%TO.C,FB1*%
X160500000Y-102150000D03*
X160500000Y-99350000D03*
%TD*%
D17*
%TO.C,R8*%
X136587500Y-101027811D03*
X135012500Y-101027811D03*
%TD*%
D26*
%TO.C,C5*%
X55650000Y-127062500D03*
X55650000Y-128637500D03*
%TD*%
D30*
%TO.C,U7*%
X153050000Y-70437500D03*
X153050000Y-71387500D03*
X153050000Y-72337500D03*
X155250000Y-72337500D03*
X155250000Y-70437500D03*
%TD*%
D31*
%TO.C,H3*%
X60050000Y-63700000D03*
X64147056Y-62002944D03*
X64850000Y-63700000D03*
X60752944Y-62002944D03*
X64147056Y-65397056D03*
D32*
X62450000Y-63700000D03*
D31*
X62450000Y-66100000D03*
X60752944Y-65397056D03*
X62450000Y-61300000D03*
%TD*%
%TO.C,H4*%
X121793000Y-115049000D03*
X123490056Y-110951944D03*
X124193000Y-112649000D03*
X123490056Y-114346056D03*
X120095944Y-110951944D03*
D32*
X121793000Y-112649000D03*
D31*
X121793000Y-110249000D03*
X119393000Y-112649000D03*
X120095944Y-114346056D03*
%TD*%
D17*
%TO.C,D4*%
X157787500Y-114141666D03*
X156212500Y-114141666D03*
%TD*%
%TO.C,R13*%
X152075000Y-87200000D03*
X150500000Y-87200000D03*
%TD*%
%TO.C,D5*%
X157787500Y-117033332D03*
X156212500Y-117033332D03*
%TD*%
D26*
%TO.C,C7*%
X55450000Y-71862500D03*
X55450000Y-73437500D03*
%TD*%
D27*
%TO.C,J10*%
X107490000Y-39310000D03*
D28*
X110030000Y-39310000D03*
X112570000Y-39310000D03*
X115110000Y-39310000D03*
%TD*%
D17*
%TO.C,R14*%
X152512500Y-82675000D03*
X150937500Y-82675000D03*
%TD*%
%TO.C,C12*%
X138757500Y-82500000D03*
X137182500Y-82500000D03*
%TD*%
D33*
%TO.C,R17*%
X144800000Y-51187500D03*
X144800000Y-49612500D03*
%TD*%
D26*
%TO.C,C11*%
X150450000Y-70162500D03*
X150450000Y-71737500D03*
%TD*%
D25*
%TO.C,L4*%
X58550000Y-107875000D03*
X58550000Y-109750000D03*
%TD*%
D34*
%TO.C,R18*%
X145262500Y-80850000D03*
X146837500Y-80850000D03*
%TD*%
D18*
%TO.C,U2*%
X45830408Y-58920245D03*
X45830408Y-53320245D03*
D19*
X51070408Y-53580245D03*
D20*
X51070408Y-56120245D03*
D19*
X51070408Y-58660245D03*
D21*
X48440408Y-53580245D03*
X48440408Y-58660245D03*
%TD*%
D17*
%TO.C,D1*%
X157787500Y-128600000D03*
X156212500Y-128600000D03*
%TD*%
D33*
%TO.C,C3*%
X55650000Y-83425000D03*
X55650000Y-81850000D03*
%TD*%
D35*
%TO.C,C21*%
X156562500Y-97250000D03*
X158437500Y-97250000D03*
%TD*%
D25*
%TO.C,L1*%
X58400000Y-135912500D03*
X58400000Y-137787500D03*
%TD*%
D36*
%TO.C,J3*%
X128650000Y-41910000D03*
D28*
X131190000Y-41910000D03*
X128650000Y-44450000D03*
X131190000Y-44450000D03*
X128650000Y-46990000D03*
X131190000Y-46990000D03*
X128650000Y-49530000D03*
X131190000Y-49530000D03*
X128650000Y-52070000D03*
X131190000Y-52070000D03*
X128650000Y-54610000D03*
X131190000Y-54610000D03*
X128650000Y-57150000D03*
X131190000Y-57150000D03*
X128650000Y-59690000D03*
X131190000Y-59690000D03*
X128650000Y-62230000D03*
X131190000Y-62230000D03*
X128650000Y-64770000D03*
X131190000Y-64770000D03*
X128650000Y-67310000D03*
X131190000Y-67310000D03*
X128650000Y-69850000D03*
X131190000Y-69850000D03*
X128650000Y-72390000D03*
X131190000Y-72390000D03*
X128650000Y-74930000D03*
X131190000Y-74930000D03*
X128650000Y-77470000D03*
X131190000Y-77470000D03*
X128650000Y-80010000D03*
X131190000Y-80010000D03*
X128650000Y-82550000D03*
X131190000Y-82550000D03*
X128650000Y-85090000D03*
X131190000Y-85090000D03*
X128650000Y-87630000D03*
X131190000Y-87630000D03*
X128650000Y-90170000D03*
X131190000Y-90170000D03*
X128650000Y-92710000D03*
X131190000Y-92710000D03*
X128650000Y-95250000D03*
X131190000Y-95250000D03*
X128650000Y-97790000D03*
X131190000Y-97790000D03*
X128650000Y-100330000D03*
X131190000Y-100330000D03*
X128650000Y-102870000D03*
X131190000Y-102870000D03*
X128650000Y-105410000D03*
X131190000Y-105410000D03*
X128650000Y-107950000D03*
X131190000Y-107950000D03*
X128650000Y-110490000D03*
X131190000Y-110490000D03*
X128650000Y-113030000D03*
X131190000Y-113030000D03*
X128650000Y-115570000D03*
X131190000Y-115570000D03*
X128650000Y-118110000D03*
X131190000Y-118110000D03*
X128650000Y-120650000D03*
X131190000Y-120650000D03*
%TD*%
D17*
%TO.C,C14*%
X138507500Y-53690000D03*
X136932500Y-53690000D03*
%TD*%
D33*
%TO.C,C2*%
X55650000Y-55637500D03*
X55650000Y-54062500D03*
%TD*%
D17*
%TO.C,R3*%
X136587500Y-111290000D03*
X135012500Y-111290000D03*
%TD*%
D36*
%TO.C,J7*%
X80010000Y-41783000D03*
D28*
X80010000Y-44323000D03*
X80010000Y-46863000D03*
X80010000Y-49403000D03*
X80010000Y-51943000D03*
X80010000Y-54483000D03*
X80010000Y-57023000D03*
X80010000Y-59563000D03*
X80010000Y-62103000D03*
X80010000Y-64643000D03*
X80010000Y-67183000D03*
X80010000Y-69723000D03*
X80010000Y-72263000D03*
X80010000Y-74803000D03*
X80010000Y-77343000D03*
X80010000Y-79883000D03*
X80010000Y-82423000D03*
X80010000Y-84963000D03*
X80010000Y-87503000D03*
X80010000Y-90043000D03*
X80010000Y-92583000D03*
X80010000Y-95123000D03*
X80010000Y-97663000D03*
X80010000Y-100203000D03*
X80010000Y-102743000D03*
X80010000Y-105283000D03*
%TD*%
D36*
%TO.C,J6*%
X99000000Y-132900000D03*
D28*
X99000000Y-135440000D03*
X99000000Y-137980000D03*
X99000000Y-140520000D03*
X99000000Y-143060000D03*
X99000000Y-145600000D03*
%TD*%
D34*
%TO.C,R12*%
X156862500Y-63850000D03*
X158437500Y-63850000D03*
%TD*%
D37*
%TO.C,TP5*%
X157800000Y-68050000D03*
%TD*%
D38*
%TO.C,J4*%
X156045000Y-82960000D03*
X156045000Y-88740000D03*
D39*
X154980000Y-89200000D03*
X154980000Y-88400000D03*
X154980000Y-87100000D03*
X154980000Y-86100000D03*
X154980000Y-85600000D03*
X154980000Y-84600000D03*
X154980000Y-83300000D03*
X154980000Y-82500000D03*
X154980000Y-82800000D03*
X154980000Y-83600000D03*
X154980000Y-84100000D03*
X154980000Y-85100000D03*
X154980000Y-86600000D03*
X154980000Y-87600000D03*
X154980000Y-88100000D03*
X154980000Y-88900000D03*
D40*
X155545000Y-90170000D03*
D41*
X159725000Y-90170000D03*
X159725000Y-81530000D03*
D40*
X155545000Y-81530000D03*
%TD*%
D33*
%TO.C,C1*%
X55650000Y-139387500D03*
X55650000Y-137812500D03*
%TD*%
D17*
%TO.C,D2*%
X157787500Y-122816664D03*
X156212500Y-122816664D03*
%TD*%
D42*
%TO.C,D12*%
X158900000Y-48900000D03*
X154900000Y-48900000D03*
%TD*%
D26*
%TO.C,R24*%
X146300000Y-61637500D03*
X146300000Y-63212500D03*
%TD*%
D17*
%TO.C,R15*%
X150637500Y-58300000D03*
X149062500Y-58300000D03*
%TD*%
%TO.C,D9*%
X146812500Y-108751964D03*
X145237500Y-108751964D03*
%TD*%
%TO.C,R9*%
X136587500Y-103593358D03*
X135012500Y-103593358D03*
%TD*%
%TO.C,R1*%
X136587500Y-128640000D03*
X135012500Y-128640000D03*
%TD*%
D18*
%TO.C,U3*%
X45790000Y-86650000D03*
X45790000Y-81050000D03*
D19*
X51030000Y-81310000D03*
D20*
X51030000Y-83850000D03*
D19*
X51030000Y-86390000D03*
D21*
X48400000Y-81310000D03*
X48400000Y-86390000D03*
%TD*%
D26*
%TO.C,C8*%
X56136737Y-99533043D03*
X56136737Y-101108043D03*
%TD*%
D33*
%TO.C,R26*%
X148510000Y-77425000D03*
X148510000Y-75850000D03*
%TD*%
D17*
%TO.C,D6*%
X157787500Y-119924998D03*
X156212500Y-119924998D03*
%TD*%
%TO.C,R5*%
X136587500Y-117073332D03*
X135012500Y-117073332D03*
%TD*%
%TO.C,R23*%
X150687500Y-61100000D03*
X149112500Y-61100000D03*
%TD*%
D33*
%TO.C,C18*%
X147550000Y-55457500D03*
X147550000Y-53882500D03*
%TD*%
D17*
%TO.C,R11*%
X136587500Y-106158905D03*
X135012500Y-106158905D03*
%TD*%
D34*
%TO.C,R16*%
X149432500Y-55070000D03*
X151007500Y-55070000D03*
%TD*%
D17*
%TO.C,R19*%
X150487500Y-49100000D03*
X148912500Y-49100000D03*
%TD*%
%TO.C,D10*%
X146812500Y-106174642D03*
X145237500Y-106174642D03*
%TD*%
%TO.C,R10*%
X136587500Y-108724452D03*
X135012500Y-108724452D03*
%TD*%
%TO.C,D7*%
X146812500Y-101020000D03*
X145237500Y-101020000D03*
%TD*%
D43*
%TO.C,J9*%
X124250000Y-43250000D03*
%TD*%
D31*
%TO.C,H2*%
X62752944Y-141902944D03*
X66850000Y-143600000D03*
X64450000Y-146000000D03*
X66147056Y-145297056D03*
X64450000Y-141200000D03*
X66147056Y-141902944D03*
X62752944Y-145297056D03*
X62050000Y-143600000D03*
D32*
X64450000Y-143600000D03*
%TD*%
D36*
%TO.C,J1*%
X132250000Y-132900000D03*
D28*
X132250000Y-135440000D03*
X132250000Y-137980000D03*
X132250000Y-140520000D03*
X132250000Y-143060000D03*
X132250000Y-145600000D03*
%TD*%
D33*
%TO.C,C4*%
X55525979Y-111307392D03*
X55525979Y-109732392D03*
%TD*%
D17*
%TO.C,D11*%
X157787500Y-125708330D03*
X156212500Y-125708330D03*
%TD*%
D33*
%TO.C,C16*%
X146825000Y-84687500D03*
X146825000Y-83112500D03*
%TD*%
D17*
%TO.C,C17*%
X140237500Y-51740000D03*
X138662500Y-51740000D03*
%TD*%
%TO.C,D3*%
X157787500Y-111250000D03*
X156212500Y-111250000D03*
%TD*%
D26*
%TO.C,C6*%
X55500000Y-43887500D03*
X55500000Y-45462500D03*
%TD*%
D18*
%TO.C,TR4*%
X45706530Y-96043594D03*
X45706530Y-101643594D03*
D22*
X50946530Y-96303594D03*
D23*
X50946530Y-98843594D03*
X50946530Y-101383594D03*
D24*
X48326530Y-96303594D03*
X48326530Y-101383594D03*
%TD*%
D17*
%TO.C,R6*%
X136587500Y-119964998D03*
X135012500Y-119964998D03*
%TD*%
%TO.C,R25*%
X151712500Y-77362500D03*
X150137500Y-77362500D03*
%TD*%
D43*
%TO.C,J8*%
X124250000Y-47000000D03*
%TD*%
D17*
%TO.C,C15*%
X140997500Y-80730000D03*
X139422500Y-80730000D03*
%TD*%
D34*
%TO.C,R7*%
X156975000Y-79250000D03*
X158550000Y-79250000D03*
%TD*%
%TO.C,C20*%
X156712500Y-99250000D03*
X158287500Y-99250000D03*
%TD*%
D32*
%TO.C,H1*%
X137925000Y-42100000D03*
D31*
X137925000Y-39700000D03*
X137925000Y-44500000D03*
X140325000Y-42100000D03*
X139622056Y-43797056D03*
X136227944Y-40402944D03*
X135525000Y-42100000D03*
X136227944Y-43797056D03*
X139622056Y-40402944D03*
%TD*%
D17*
%TO.C,R21*%
X136587500Y-125748330D03*
X135012500Y-125748330D03*
%TD*%
D18*
%TO.C,U4*%
X45816023Y-108989033D03*
X45816023Y-114589033D03*
D19*
X51056023Y-109249033D03*
D20*
X51056023Y-111789033D03*
D19*
X51056023Y-114329033D03*
D21*
X48426023Y-109249033D03*
X48426023Y-114329033D03*
%TD*%
D26*
%TO.C,C13*%
X157750000Y-70462500D03*
X157750000Y-72037500D03*
%TD*%
D17*
%TO.C,D8*%
X146812500Y-103597321D03*
X145237500Y-103597321D03*
%TD*%
D18*
%TO.C,TR1*%
X45796023Y-123751533D03*
X45796023Y-129351533D03*
D22*
X51036023Y-124011533D03*
D23*
X51036023Y-126551533D03*
X51036023Y-129091533D03*
D24*
X48416023Y-124011533D03*
X48416023Y-129091533D03*
%TD*%
D36*
%TO.C,J2*%
X67945000Y-41910000D03*
D28*
X70485000Y-41910000D03*
X67945000Y-44450000D03*
X70485000Y-44450000D03*
X67945000Y-46990000D03*
X70485000Y-46990000D03*
X67945000Y-49530000D03*
X70485000Y-49530000D03*
X67945000Y-52070000D03*
X70485000Y-52070000D03*
X67945000Y-54610000D03*
X70485000Y-54610000D03*
X67945000Y-57150000D03*
X70485000Y-57150000D03*
X67945000Y-59690000D03*
X70485000Y-59690000D03*
X67945000Y-62230000D03*
X70485000Y-62230000D03*
X67945000Y-64770000D03*
X70485000Y-64770000D03*
X67945000Y-67310000D03*
X70485000Y-67310000D03*
X67945000Y-69850000D03*
X70485000Y-69850000D03*
X67945000Y-72390000D03*
X70485000Y-72390000D03*
X67945000Y-74930000D03*
X70485000Y-74930000D03*
X67945000Y-77470000D03*
X70485000Y-77470000D03*
X67945000Y-80010000D03*
X70485000Y-80010000D03*
X67945000Y-82550000D03*
X70485000Y-82550000D03*
X67945000Y-85090000D03*
X70485000Y-85090000D03*
X67945000Y-87630000D03*
X70485000Y-87630000D03*
X67945000Y-90170000D03*
X70485000Y-90170000D03*
X67945000Y-92710000D03*
X70485000Y-92710000D03*
X67945000Y-95250000D03*
X70485000Y-95250000D03*
X67945000Y-97790000D03*
X70485000Y-97790000D03*
X67945000Y-100330000D03*
X70485000Y-100330000D03*
X67945000Y-102870000D03*
X70485000Y-102870000D03*
X67945000Y-105410000D03*
X70485000Y-105410000D03*
X67945000Y-107950000D03*
X70485000Y-107950000D03*
X67945000Y-110490000D03*
X70485000Y-110490000D03*
X67945000Y-113030000D03*
X70485000Y-113030000D03*
X67945000Y-115570000D03*
X70485000Y-115570000D03*
X67945000Y-118110000D03*
X70485000Y-118110000D03*
X67945000Y-120650000D03*
X70485000Y-120650000D03*
%TD*%
D44*
%TO.C,U5*%
X140212500Y-54100000D03*
X140212500Y-54600000D03*
X140212500Y-55100000D03*
X140212500Y-55600000D03*
X140212500Y-56100000D03*
X140212500Y-56600000D03*
X140212500Y-57100000D03*
X140212500Y-57600000D03*
D45*
X140900000Y-58287500D03*
X141400000Y-58287500D03*
X141900000Y-58287500D03*
X142400000Y-58287500D03*
X142900000Y-58287500D03*
X143400000Y-58287500D03*
X143900000Y-58287500D03*
X144400000Y-58287500D03*
D44*
X145087500Y-57600000D03*
X145087500Y-57100000D03*
X145087500Y-56600000D03*
X145087500Y-56100000D03*
X145087500Y-55600000D03*
X145087500Y-55100000D03*
X145087500Y-54600000D03*
X145087500Y-54100000D03*
D45*
X144400000Y-53412500D03*
X143900000Y-53412500D03*
X143400000Y-53412500D03*
X142900000Y-53412500D03*
X142400000Y-53412500D03*
X141900000Y-53412500D03*
X141400000Y-53412500D03*
X140900000Y-53412500D03*
D46*
X142650000Y-55850000D03*
%TD*%
D35*
%TO.C,C19*%
X156312500Y-102000000D03*
X158187500Y-102000000D03*
%TD*%
D17*
%TO.C,R2*%
X136587500Y-122856664D03*
X135012500Y-122856664D03*
%TD*%
D38*
%TO.C,J5*%
X156045000Y-53960000D03*
X156045000Y-59740000D03*
D39*
X154980000Y-60200000D03*
X154980000Y-59400000D03*
X154980000Y-58100000D03*
X154980000Y-57100000D03*
X154980000Y-56600000D03*
X154980000Y-55600000D03*
X154980000Y-54300000D03*
X154980000Y-53500000D03*
X154980000Y-53800000D03*
X154980000Y-54600000D03*
X154980000Y-55100000D03*
X154980000Y-56100000D03*
X154980000Y-57600000D03*
X154980000Y-58600000D03*
X154980000Y-59100000D03*
X154980000Y-59900000D03*
D40*
X155545000Y-52530000D03*
D41*
X159725000Y-61170000D03*
X159725000Y-52530000D03*
D40*
X155545000Y-61170000D03*
%TD*%
D44*
%TO.C,U6*%
X140262500Y-83125000D03*
X140262500Y-83625000D03*
X140262500Y-84125000D03*
X140262500Y-84625000D03*
X140262500Y-85125000D03*
X140262500Y-85625000D03*
X140262500Y-86125000D03*
X140262500Y-86625000D03*
D45*
X140950000Y-87312500D03*
X141450000Y-87312500D03*
X141950000Y-87312500D03*
X142450000Y-87312500D03*
X142950000Y-87312500D03*
X143450000Y-87312500D03*
X143950000Y-87312500D03*
X144450000Y-87312500D03*
D44*
X145137500Y-86625000D03*
X145137500Y-86125000D03*
X145137500Y-85625000D03*
X145137500Y-85125000D03*
X145137500Y-84625000D03*
X145137500Y-84125000D03*
X145137500Y-83625000D03*
X145137500Y-83125000D03*
D45*
X144450000Y-82437500D03*
X143950000Y-82437500D03*
X143450000Y-82437500D03*
X142950000Y-82437500D03*
X142450000Y-82437500D03*
X141950000Y-82437500D03*
X141450000Y-82437500D03*
X140950000Y-82437500D03*
D46*
X142700000Y-84875000D03*
%TD*%
D42*
%TO.C,D13*%
X159000000Y-94000000D03*
X155000000Y-94000000D03*
%TD*%
D17*
%TO.C,R20*%
X152050000Y-88900000D03*
X150475000Y-88900000D03*
%TD*%
D25*
%TO.C,L2*%
X58650000Y-52156250D03*
X58650000Y-54031250D03*
%TD*%
D47*
X155895500Y-85579500D03*
X156425000Y-86125000D03*
X156425000Y-85000000D03*
X156035000Y-86775000D03*
X143650000Y-54850000D03*
X141550000Y-61940000D03*
D37*
X155000000Y-97250000D03*
D47*
X142630000Y-91570000D03*
X138430000Y-88610000D03*
D48*
X133030000Y-47130000D03*
X135720000Y-47070000D03*
D47*
X141754384Y-83960199D03*
X137350000Y-93040000D03*
D20*
X150450000Y-73100000D03*
D47*
X143650000Y-55850000D03*
X149850000Y-50340000D03*
X142750000Y-85950000D03*
D48*
X148500000Y-74250000D03*
D47*
X143310000Y-60280000D03*
X137420000Y-86410000D03*
D49*
X144850000Y-63275000D03*
D47*
X133460000Y-66360000D03*
X142650000Y-56850000D03*
D48*
X132940000Y-54600000D03*
X153560000Y-82570000D03*
D47*
X132600000Y-59100000D03*
X133010000Y-82430000D03*
D37*
X155000000Y-99300000D03*
D50*
X153550000Y-89200000D03*
D47*
X139990000Y-89530000D03*
D49*
X159600000Y-119900000D03*
D47*
X140480000Y-94090000D03*
X135600000Y-77900000D03*
X133020000Y-69860000D03*
D48*
X144800000Y-48750000D03*
D47*
X138300000Y-84650000D03*
X138540000Y-64980000D03*
X139180000Y-95670000D03*
X143130000Y-89860000D03*
X135060000Y-66330000D03*
X141650000Y-54850000D03*
X141750000Y-84850000D03*
D48*
X135710000Y-53680000D03*
D47*
X132490000Y-63710000D03*
X141650000Y-55850000D03*
D50*
X153825000Y-53325000D03*
D47*
X142750000Y-83800000D03*
X143650000Y-84850000D03*
X141750000Y-85950000D03*
D48*
X137980000Y-80730000D03*
D47*
X136890000Y-64530000D03*
D48*
X137400000Y-51740000D03*
D47*
X133370000Y-90340000D03*
X132600000Y-95790000D03*
X143650000Y-85950000D03*
X132860000Y-79660000D03*
X147820000Y-87080000D03*
D37*
X154700000Y-102000000D03*
D47*
X147080000Y-60210000D03*
X142750000Y-84850000D03*
D49*
X149420000Y-53910000D03*
D48*
X149412500Y-87200000D03*
D47*
X141200000Y-49890000D03*
X133330000Y-77890000D03*
X143650000Y-56850000D03*
X135870000Y-91820000D03*
D48*
X136150000Y-82330000D03*
D47*
X138190000Y-92130000D03*
X139940000Y-61480000D03*
D48*
X146825000Y-81975000D03*
X149425000Y-90525000D03*
X135950000Y-55600000D03*
D47*
X137330000Y-49910000D03*
X143650000Y-83800000D03*
X141650000Y-56850000D03*
X140400000Y-91300000D03*
D20*
X155650000Y-63850000D03*
D47*
X132910000Y-75370000D03*
X137520000Y-75810000D03*
X135480000Y-80250000D03*
X141400000Y-89670000D03*
D48*
X147520000Y-52640000D03*
D47*
X142650000Y-55850000D03*
X135050000Y-93210000D03*
X142650000Y-54850000D03*
D20*
X155400000Y-79250000D03*
D49*
X152400000Y-62550000D03*
D47*
X137420000Y-84850000D03*
D20*
X157750000Y-73800000D03*
D49*
X147841950Y-58391950D03*
D50*
X153775000Y-60500000D03*
D47*
X141290000Y-92730000D03*
X135530000Y-67940000D03*
X133790000Y-49070000D03*
X141870000Y-76460000D03*
D20*
X58550000Y-106150000D03*
X57650000Y-71850000D03*
D47*
X143529500Y-88095000D03*
D48*
X139667911Y-58032917D03*
X143630000Y-59230000D03*
X139240000Y-53920500D03*
D47*
X142029500Y-88114428D03*
D20*
X58650000Y-50343750D03*
X58450000Y-78112500D03*
D48*
X142074144Y-59210155D03*
D20*
X153100000Y-68900000D03*
X57900000Y-127100000D03*
X153050000Y-73900000D03*
D48*
X140000000Y-82500000D03*
D20*
X58450000Y-99450000D03*
D48*
X139270000Y-87810000D03*
D20*
X58400000Y-134100000D03*
X57150000Y-43850000D03*
D48*
X146350000Y-55850000D03*
X145975000Y-84900000D03*
D37*
X159775000Y-68050000D03*
D20*
X145737840Y-67109048D03*
D47*
X142954263Y-80810000D03*
D48*
X141705105Y-52364145D03*
D47*
X141795263Y-81290000D03*
D48*
X142760000Y-51420000D03*
D50*
X133000000Y-127500000D03*
D48*
X133500000Y-121000000D03*
X142460000Y-61320000D03*
X137490000Y-47380000D03*
D47*
X143479500Y-52170000D03*
X153070000Y-55710000D03*
D48*
X148912500Y-52427598D03*
X146600000Y-54800000D03*
D47*
X148350000Y-83875000D03*
D48*
X149425000Y-88900000D03*
D47*
X155975000Y-57100000D03*
X155975000Y-56000000D03*
D48*
X138950098Y-72390000D03*
X149490000Y-59810000D03*
X151730000Y-79770000D03*
X153470000Y-83480000D03*
D47*
X142890000Y-77280000D03*
X142970000Y-78004500D03*
X145910000Y-83530000D03*
X145900000Y-79490000D03*
X143491719Y-81519809D03*
X132150000Y-91450000D03*
X139129124Y-86811999D03*
X150450000Y-84625000D03*
X153400000Y-87375000D03*
M02*
