M48
; DRILL file {KiCad 6.0.7-f9a2dced07~116~ubuntu20.04.1} date Sat 06 Aug 2022 08:12:24 PM WIB
; FORMAT={-:-/ absolute / inch / decimal}
; #@! TF.CreationDate,2022-08-06T20:12:24+07:00
; #@! TF.GenerationSoftware,Kicad,Pcbnew,6.0.7-f9a2dced07~116~ubuntu20.04.1
; #@! TF.FileFunction,NonPlated,1,4,NPTH
FMAT,2
INCH
; #@! TA.AperFunction,NonPlated,NPTH,ComponentDrill
T1C0.0256
; #@! TA.AperFunction,NonPlated,NPTH,ComponentDrill
T2C0.0669
%
G90
G05
T1
X6.1435Y-2.1244
X6.1435Y-2.352
X6.1435Y-3.2661
X6.1435Y-3.4937
T2
X1.7995Y-3.7812
X1.7995Y-4.0017
X1.8026Y-2.6898
X1.8026Y-2.9103
X1.8028Y-3.1909
X1.8028Y-3.4114
X1.803Y-4.8721
X1.803Y-5.0926
X1.8036Y-1.5968
X1.8036Y-1.8172
X1.8038Y-4.2909
X1.8038Y-4.5114
X1.8038Y-5.3933
X1.8038Y-5.6137
X1.8043Y-2.0992
X1.8043Y-2.3197
T0
M30
