M48
; DRILL file {KiCad (6.0.7)} date Mon Aug  8 23:44:24 2022
; FORMAT={-:-/ absolute / inch / decimal}
; #@! TF.CreationDate,2022-08-08T23:44:24-07:00
; #@! TF.GenerationSoftware,Kicad,Pcbnew,(6.0.7)
; #@! TF.FileFunction,Plated,1,4,PTH
FMAT,2
INCH
; #@! TA.AperFunction,Plated,PTH,ViaDrill
T1C0.0079
; #@! TA.AperFunction,Plated,PTH,ViaDrill
T2C0.0157
; #@! TA.AperFunction,Plated,PTH,ComponentDrill
T3C0.0197
; #@! TA.AperFunction,Plated,PTH,ViaDrill
T4C0.0236
; #@! TA.AperFunction,Plated,PTH,ComponentDrill
T5C0.0236
; #@! TA.AperFunction,Plated,PTH,ViaDrill
T6C0.0315
; #@! TA.AperFunction,Plated,PTH,ComponentDrill
T7C0.0315
; #@! TA.AperFunction,Plated,PTH,ComponentDrill
T8C0.0335
; #@! TA.AperFunction,Plated,PTH,ViaDrill
T9C0.0394
; #@! TA.AperFunction,Plated,PTH,ComponentDrill
T10C0.0394
; #@! TA.AperFunction,Plated,PTH,ComponentDrill
T11C0.0433
; #@! TA.AperFunction,Plated,PTH,ComponentDrill
T12C0.0453
; #@! TA.AperFunction,Plated,PTH,ViaDrill
T13C0.0472
; #@! TA.AperFunction,Plated,PTH,ComponentDrill
T14C0.1260
%
G90
G05
T1
X5.2028Y-3.6004
X5.2161Y-2.5083
X5.2205Y-2.3268
X5.2205Y-3.7713
X5.2307Y-3.1362
X5.2327Y-2.9673
X5.2366Y-3.2453
X5.237Y-2.7504
X5.2492Y-3.0665
X5.2508Y-3.5567
X5.2543Y-2.6126
X5.2673Y-1.9319
X5.3169Y-3.6697
X5.3173Y-2.6114
X5.3339Y-3.1594
X5.3358Y-2.6748
X5.3386Y-3.0669
X5.3492Y-3.615
X5.3894Y-2.5406
X5.4067Y-1.965
X5.4075Y-3.663
X5.4102Y-3.3406
X5.4102Y-3.402
X5.4142Y-2.9846
X5.4406Y-3.6272
X5.4449Y-3.3327
X5.45Y-3.4886
X5.4543Y-2.5583
X5.4775Y-3.4178
X5.4795Y-3.7665
X5.5094Y-2.4205
X5.5114Y-3.5248
X5.5276Y-3.5945
X5.5307Y-3.7043
X5.5591Y-1.9642
X5.5626Y-3.6508
X5.5669Y-3.5303
X5.5728Y-2.4386
X5.5768Y-2.1594
X5.5768Y-2.1988
X5.5768Y-2.2382
X5.5807Y-3.3406
X5.5807Y-3.3839
X5.5809Y-3.3055
X5.5825Y-3.2004
X5.5854Y-3.0102
X5.5917Y-3.4691
X5.6154Y-3.6051
X5.6161Y-2.1594
X5.6161Y-2.1988
X5.6161Y-2.2382
X5.6201Y-3.2992
X5.6201Y-3.3406
X5.6201Y-3.3839
X5.6256Y-3.0425
X5.6281Y-3.1815
X5.6287Y-3.071
X5.635Y-3.5378
X5.6421Y-2.3732
X5.6488Y-2.0539
X5.6493Y-3.2094
X5.6508Y-3.4683
X5.6555Y-2.1594
X5.6555Y-2.1988
X5.6555Y-2.2382
X5.6555Y-3.2992
X5.6555Y-3.3406
X5.6555Y-3.3839
X5.7441Y-3.1295
X5.7445Y-3.2886
X5.7906Y-2.3705
X5.8197Y-3.4283
X5.8406Y-3.3022
X5.8996Y-1.9819
X5.9232Y-3.3317
X6.0264Y-2.1933
X6.0394Y-3.44
X6.1376Y-2.2275
X6.1376Y-3.3693
X6.1431Y-2.2746
X6.1431Y-3.4163
X6.1585Y-2.2047
X6.1585Y-2.249
X6.1585Y-3.3465
X6.1585Y-3.3907
T2
X5.2339Y-2.1496
X5.2374Y-1.8555
X5.2559Y-4.7638
X5.3429Y-2.1134
X5.3433Y-1.8531
X5.3524Y-2.189
X5.3602Y-3.2413
X5.4094Y-2.037
X5.413Y-1.8654
X5.4323Y-3.1783
X5.4705Y-2.85
X5.4819Y-2.1229
X5.4831Y-3.4571
X5.4987Y-2.2848
X5.5118Y-3.248
X5.5789Y-2.0616
X5.5935Y-2.3311
X5.6087Y-2.4142
X5.6205Y-2.0244
X5.6547Y-2.3319
X5.7008Y-1.9193
X5.747Y-3.3425
X5.7618Y-2.1988
X5.7717Y-2.1575
X5.7805Y-3.2274
X5.8079Y-2.0724
X5.8465Y-2.9232
X5.8627Y-2.0641
X5.8824Y-3.4331
X5.8829Y-3.5
X5.8829Y-3.564
X5.8854Y-2.3547
X5.9736Y-3.1406
X6.0421Y-3.2866
X6.0457Y-3.2508
T3
X2.3642Y-2.5079
X2.3918Y-2.4411
X2.3918Y-2.5747
X2.4429Y-5.6535
X2.4587Y-2.4134
X2.4587Y-2.6024
X2.4706Y-5.5867
X2.4706Y-5.7204
X2.5255Y-2.4411
X2.5255Y-2.5747
X2.5374Y-5.5591
X2.5374Y-5.748
X2.5531Y-2.5079
X2.6042Y-5.5867
X2.6042Y-5.7204
X2.6319Y-5.6535
X4.7005Y-4.435
X4.7282Y-4.3682
X4.7282Y-4.5018
X4.795Y-4.3405
X4.795Y-4.5295
X4.8618Y-4.3682
X4.8618Y-4.5018
X4.8895Y-4.435
X5.3356Y-1.6575
X5.3633Y-1.5907
X5.3633Y-1.7243
X5.4301Y-1.563
X5.4301Y-1.752
X5.4969Y-1.5907
X5.4969Y-1.7243
X5.5246Y-1.6575
T4
X5.2362Y-5.0197
X6.0453Y-3.5118
X6.0541Y-2.3819
X6.0561Y-2.0994
T6
X5.7028Y-2.4911
X5.8205Y-2.2989
X5.8827Y-2.1224
X6.0Y-2.4626
X6.2835Y-4.7205
T7
X2.0091Y-3.2012
X2.0091Y-3.3012
X2.0091Y-3.4012
X2.0101Y-4.3011
X2.0101Y-4.4011
X2.0101Y-4.5011
X2.0101Y-5.4035
X2.0101Y-5.5035
X2.0101Y-5.6035
X2.0106Y-2.1095
X2.0106Y-2.2095
X2.0106Y-2.3095
T8
X2.0058Y-3.7915
X2.0058Y-3.8915
X2.0058Y-3.9915
X2.0089Y-2.7001
X2.0089Y-2.8001
X2.0089Y-2.9001
X2.0093Y-4.8823
X2.0093Y-4.9823
X2.0093Y-5.0823
X2.0099Y-1.607
X2.0099Y-1.707
X2.0099Y-1.807
T9
X2.25Y-1.7264
X2.2697Y-2.8287
X2.2795Y-5.0039
X2.2992Y-5.2795
X2.3012Y-3.0753
X2.3012Y-3.9154
X2.3051Y-4.1791
X2.3091Y-1.982
X5.7377Y-2.6421
X5.9232Y-2.878
X6.0256Y-2.9094
X6.0276Y-2.7126
X6.1181Y-3.1201
X6.128Y-2.5138
X6.2106Y-2.9055
T10
X2.675Y-1.65
X2.675Y-1.75
X2.675Y-1.85
X2.675Y-1.95
X2.675Y-2.05
X2.675Y-2.15
X2.675Y-2.25
X2.675Y-2.35
X2.675Y-2.45
X2.675Y-2.55
X2.675Y-2.65
X2.675Y-2.75
X2.675Y-2.85
X2.675Y-2.95
X2.675Y-3.05
X2.675Y-3.15
X2.675Y-3.25
X2.675Y-3.35
X2.675Y-3.45
X2.675Y-3.55
X2.675Y-3.65
X2.675Y-3.75
X2.675Y-3.85
X2.675Y-3.95
X2.675Y-4.05
X2.675Y-4.15
X2.675Y-4.25
X2.675Y-4.35
X2.675Y-4.45
X2.675Y-4.55
X2.675Y-4.65
X2.675Y-4.75
X2.775Y-1.65
X2.775Y-1.75
X2.775Y-1.85
X2.775Y-1.95
X2.775Y-2.05
X2.775Y-2.15
X2.775Y-2.25
X2.775Y-2.35
X2.775Y-2.45
X2.775Y-2.55
X2.775Y-2.65
X2.775Y-2.75
X2.775Y-2.85
X2.775Y-2.95
X2.775Y-3.05
X2.775Y-3.15
X2.775Y-3.25
X2.775Y-3.35
X2.775Y-3.45
X2.775Y-3.55
X2.775Y-3.65
X2.775Y-3.75
X2.775Y-3.85
X2.775Y-3.95
X2.775Y-4.05
X2.775Y-4.15
X2.775Y-4.25
X2.775Y-4.35
X2.775Y-4.45
X2.775Y-4.55
X2.775Y-4.65
X2.775Y-4.75
X3.15Y-1.645
X3.15Y-1.745
X3.15Y-1.845
X3.15Y-1.945
X3.15Y-2.045
X3.15Y-2.145
X3.15Y-2.245
X3.15Y-2.345
X3.15Y-2.445
X3.15Y-2.545
X3.15Y-2.645
X3.15Y-2.745
X3.15Y-2.845
X3.15Y-2.945
X3.15Y-3.045
X3.15Y-3.145
X3.15Y-3.245
X3.15Y-3.345
X3.15Y-3.445
X3.15Y-3.545
X3.15Y-3.645
X3.15Y-3.745
X3.15Y-3.845
X3.15Y-3.945
X3.15Y-4.045
X3.15Y-4.145
X3.6866Y-1.5498
X3.7866Y-1.5498
X3.8866Y-1.5498
X3.8976Y-5.2323
X3.8976Y-5.3323
X3.8976Y-5.4323
X3.8976Y-5.5323
X3.8976Y-5.6323
X3.8976Y-5.7323
X3.9866Y-1.5498
X4.2319Y-1.5476
X4.3319Y-1.5476
X4.4319Y-1.5476
X4.5319Y-1.5476
X4.8917Y-1.7028
X4.8917Y-1.8504
X5.065Y-1.65
X5.065Y-1.75
X5.065Y-1.85
X5.065Y-1.95
X5.065Y-2.05
X5.065Y-2.15
X5.065Y-2.25
X5.065Y-2.35
X5.065Y-2.45
X5.065Y-2.55
X5.065Y-2.65
X5.065Y-2.75
X5.065Y-2.85
X5.065Y-2.95
X5.065Y-3.05
X5.065Y-3.15
X5.065Y-3.25
X5.065Y-3.35
X5.065Y-3.45
X5.065Y-3.55
X5.065Y-3.65
X5.065Y-3.75
X5.065Y-3.85
X5.065Y-3.95
X5.065Y-4.05
X5.065Y-4.15
X5.065Y-4.25
X5.065Y-4.35
X5.065Y-4.45
X5.065Y-4.55
X5.065Y-4.65
X5.065Y-4.75
X5.165Y-1.65
X5.165Y-1.75
X5.165Y-1.85
X5.165Y-1.95
X5.165Y-2.05
X5.165Y-2.15
X5.165Y-2.25
X5.165Y-2.35
X5.165Y-2.45
X5.165Y-2.55
X5.165Y-2.65
X5.165Y-2.75
X5.165Y-2.85
X5.165Y-2.95
X5.165Y-3.05
X5.165Y-3.15
X5.165Y-3.25
X5.165Y-3.35
X5.165Y-3.45
X5.165Y-3.55
X5.165Y-3.65
X5.165Y-3.75
X5.165Y-3.85
X5.165Y-3.95
X5.165Y-4.05
X5.165Y-4.15
X5.165Y-4.25
X5.165Y-4.35
X5.165Y-4.45
X5.165Y-4.55
X5.165Y-4.65
X5.165Y-4.75
X5.2067Y-5.2323
X5.2067Y-5.3323
X5.2067Y-5.4323
X5.2067Y-5.5323
X5.2067Y-5.6323
X5.2067Y-5.7323
T11
X1.9055Y-3.2012
X1.9055Y-3.4012
X1.9065Y-4.3011
X1.9065Y-4.5011
X1.9065Y-5.4035
X1.9065Y-5.6035
X1.9071Y-2.1095
X1.9071Y-2.3095
T12
X1.9026Y-3.7915
X1.9026Y-3.9915
X1.9058Y-2.7001
X1.9058Y-2.9001
X1.9061Y-4.8823
X1.9061Y-5.0823
X1.9067Y-1.607
X1.9067Y-1.807
T13
X6.0906Y-4.0157
X6.1024Y-3.8287
X6.1024Y-3.9094
X6.2904Y-2.6791
T14
X2.4587Y-2.5079
X2.5374Y-5.6535
X4.795Y-4.435
X5.4301Y-1.6575
T5
G00X6.1022Y-2.0681
M15
G01X6.1455Y-2.0681
M16
G05
G00X6.1022Y-2.4083
M15
G01X6.1455Y-2.4083
M16
G05
G00X6.1022Y-3.2098
M15
G01X6.1455Y-3.2098
M16
G05
G00X6.1022Y-3.55
M15
G01X6.1455Y-3.55
M16
G05
G00X6.2766Y-2.0681
M15
G01X6.3002Y-2.0681
M16
G05
G00X6.2766Y-2.4083
M15
G01X6.3002Y-2.4083
M16
G05
G00X6.2766Y-3.2098
M15
G01X6.3002Y-3.2098
M16
G05
G00X6.2766Y-3.55
M15
G01X6.3002Y-3.55
M16
G05
T0
M30
