%TF.GenerationSoftware,KiCad,Pcbnew,5.99.0-unknown-0e3b001c51~134~ubuntu20.04.1*%
%TF.CreationDate,2021-10-04T04:58:42+07:00*%
%TF.ProjectId,adatface_baseboard,61646174-6661-4636-955f-62617365626f,rev?*%
%TF.SameCoordinates,Original*%
%TF.FileFunction,Soldermask,Top*%
%TF.FilePolarity,Negative*%
%FSLAX46Y46*%
G04 Gerber Fmt 4.6, Leading zero omitted, Abs format (unit mm)*
G04 Created by KiCad (PCBNEW 5.99.0-unknown-0e3b001c51~134~ubuntu20.04.1) date 2021-10-04 04:58:42*
%MOMM*%
%LPD*%
G01*
G04 APERTURE LIST*
G04 Aperture macros list*
%AMRoundRect*
0 Rectangle with rounded corners*
0 $1 Rounding radius*
0 $2 $3 $4 $5 $6 $7 $8 $9 X,Y pos of 4 corners*
0 Add a 4 corners polygon primitive as box body*
4,1,4,$2,$3,$4,$5,$6,$7,$8,$9,$2,$3,0*
0 Add four circle primitives for the rounded corners*
1,1,$1+$1,$2,$3*
1,1,$1+$1,$4,$5*
1,1,$1+$1,$6,$7*
1,1,$1+$1,$8,$9*
0 Add four rect primitives between the rounded corners*
20,1,$1+$1,$2,$3,$4,$5,0*
20,1,$1+$1,$4,$5,$6,$7,0*
20,1,$1+$1,$6,$7,$8,$9,0*
20,1,$1+$1,$8,$9,$2,$3,0*%
G04 Aperture macros list end*
%ADD10RoundRect,0.200000X-0.850000X-0.850000X0.850000X-0.850000X0.850000X0.850000X-0.850000X0.850000X0*%
%ADD11RoundRect,0.418750X0.218750X0.256250X-0.218750X0.256250X-0.218750X-0.256250X0.218750X-0.256250X0*%
%ADD12C,1.708000*%
%ADD13C,2.050000*%
%ADD14RoundRect,0.200000X-0.679000X0.679000X-0.679000X-0.679000X0.679000X-0.679000X0.679000X0.679000X0*%
%ADD15C,1.758000*%
%ADD16C,2.125000*%
%ADD17RoundRect,0.443750X-0.456250X0.243750X-0.456250X-0.243750X0.456250X-0.243750X0.456250X0.243750X0*%
%ADD18RoundRect,0.418750X-0.256250X0.218750X-0.256250X-0.218750X0.256250X-0.218750X0.256250X0.218750X0*%
%ADD19RoundRect,0.450000X0.625000X-0.375000X0.625000X0.375000X-0.625000X0.375000X-0.625000X-0.375000X0*%
%ADD20RoundRect,0.200000X-0.530000X-0.325000X0.530000X-0.325000X0.530000X0.325000X-0.530000X0.325000X0*%
%ADD21C,1.200000*%
%ADD22C,6.800000*%
%ADD23RoundRect,0.418750X0.256250X-0.218750X0.256250X0.218750X-0.256250X0.218750X-0.256250X-0.218750X0*%
%ADD24RoundRect,0.418750X-0.218750X-0.256250X0.218750X-0.256250X0.218750X0.256250X-0.218750X0.256250X0*%
%ADD25RoundRect,0.443750X-0.243750X-0.456250X0.243750X-0.456250X0.243750X0.456250X-0.243750X0.456250X0*%
%ADD26O,2.100000X2.100000*%
%ADD27C,1.900000*%
%ADD28C,1.050000*%
%ADD29RoundRect,0.200000X0.575000X-0.150000X0.575000X0.150000X-0.575000X0.150000X-0.575000X-0.150000X0*%
%ADD30O,2.500000X1.400000*%
%ADD31O,2.000000X1.400000*%
%ADD32RoundRect,0.200000X1.250000X0.900000X-1.250000X0.900000X-1.250000X-0.900000X1.250000X-0.900000X0*%
%ADD33RoundRect,0.262500X-0.375000X-0.062500X0.375000X-0.062500X0.375000X0.062500X-0.375000X0.062500X0*%
%ADD34RoundRect,0.262500X-0.062500X-0.375000X0.062500X-0.375000X0.062500X0.375000X-0.062500X0.375000X0*%
%ADD35RoundRect,0.200000X-1.650000X-1.650000X1.650000X-1.650000X1.650000X1.650000X-1.650000X1.650000X0*%
G04 APERTURE END LIST*
D10*
%TO.C,J9*%
X124250000Y-43250000D03*
%TD*%
%TO.C,J8*%
X124250000Y-47000000D03*
%TD*%
D11*
%TO.C,C10*%
X152087500Y-90500000D03*
X150512500Y-90500000D03*
%TD*%
%TO.C,R4*%
X136587500Y-114181666D03*
X135012500Y-114181666D03*
%TD*%
D12*
%TO.C,U1*%
X51056023Y-137249033D03*
X51056023Y-139789033D03*
X51056023Y-142329033D03*
D13*
X48426023Y-137249033D03*
X48426023Y-142329033D03*
%TD*%
D14*
%TO.C,TR2*%
X51050408Y-40817745D03*
D15*
X51050408Y-43357745D03*
X51050408Y-45897745D03*
D16*
X48430408Y-40817745D03*
X48430408Y-45897745D03*
%TD*%
D17*
%TO.C,L3*%
X58450000Y-79912500D03*
X58450000Y-81787500D03*
%TD*%
D14*
%TO.C,TR3*%
X51026111Y-68581385D03*
D15*
X51026111Y-71121385D03*
X51026111Y-73661385D03*
D16*
X48406111Y-68581385D03*
X48406111Y-73661385D03*
%TD*%
D18*
%TO.C,C9*%
X152400000Y-59562500D03*
X152400000Y-61137500D03*
%TD*%
D19*
%TO.C,FB1*%
X160500000Y-102150000D03*
X160500000Y-99350000D03*
%TD*%
D11*
%TO.C,R8*%
X136587500Y-101027811D03*
X135012500Y-101027811D03*
%TD*%
D18*
%TO.C,C5*%
X55650000Y-127062500D03*
X55650000Y-128637500D03*
%TD*%
D20*
%TO.C,U7*%
X153050000Y-70437500D03*
X153050000Y-71387500D03*
X153050000Y-72337500D03*
X155250000Y-72337500D03*
X155250000Y-70437500D03*
%TD*%
D21*
%TO.C,H3*%
X60050000Y-63700000D03*
X64147056Y-62002944D03*
X64850000Y-63700000D03*
X60752944Y-62002944D03*
X64147056Y-65397056D03*
D22*
X62450000Y-63700000D03*
D21*
X62450000Y-66100000D03*
X60752944Y-65397056D03*
X62450000Y-61300000D03*
%TD*%
%TO.C,H4*%
X121750000Y-114975000D03*
X123447056Y-110877944D03*
X124150000Y-112575000D03*
X123447056Y-114272056D03*
X120052944Y-110877944D03*
D22*
X121750000Y-112575000D03*
D21*
X121750000Y-110175000D03*
X119350000Y-112575000D03*
X120052944Y-114272056D03*
%TD*%
D11*
%TO.C,D4*%
X157787500Y-114141666D03*
X156212500Y-114141666D03*
%TD*%
%TO.C,R13*%
X152075000Y-87200000D03*
X150500000Y-87200000D03*
%TD*%
%TO.C,D5*%
X157787500Y-117033332D03*
X156212500Y-117033332D03*
%TD*%
D18*
%TO.C,C7*%
X55450000Y-71862500D03*
X55450000Y-73437500D03*
%TD*%
D11*
%TO.C,R14*%
X152512500Y-82675000D03*
X150937500Y-82675000D03*
%TD*%
%TO.C,C12*%
X138757500Y-82500000D03*
X137182500Y-82500000D03*
%TD*%
D23*
%TO.C,R17*%
X144800000Y-51187500D03*
X144800000Y-49612500D03*
%TD*%
D18*
%TO.C,C11*%
X150450000Y-70162500D03*
X150450000Y-71737500D03*
%TD*%
D17*
%TO.C,L4*%
X58550000Y-107875000D03*
X58550000Y-109750000D03*
%TD*%
D24*
%TO.C,R18*%
X145262500Y-80850000D03*
X146837500Y-80850000D03*
%TD*%
D12*
%TO.C,U2*%
X51070408Y-53580245D03*
X51070408Y-56120245D03*
X51070408Y-58660245D03*
D13*
X48440408Y-53580245D03*
X48440408Y-58660245D03*
%TD*%
D11*
%TO.C,D1*%
X157787500Y-128600000D03*
X156212500Y-128600000D03*
%TD*%
D23*
%TO.C,C3*%
X55650000Y-83425000D03*
X55650000Y-81850000D03*
%TD*%
D25*
%TO.C,C21*%
X156562500Y-97250000D03*
X158437500Y-97250000D03*
%TD*%
D17*
%TO.C,L1*%
X58400000Y-135912500D03*
X58400000Y-137787500D03*
%TD*%
D10*
%TO.C,J3*%
X128650000Y-41910000D03*
D26*
X131190000Y-41910000D03*
X128650000Y-44450000D03*
X131190000Y-44450000D03*
X128650000Y-46990000D03*
X131190000Y-46990000D03*
X128650000Y-49530000D03*
X131190000Y-49530000D03*
X128650000Y-52070000D03*
X131190000Y-52070000D03*
X128650000Y-54610000D03*
X131190000Y-54610000D03*
X128650000Y-57150000D03*
X131190000Y-57150000D03*
X128650000Y-59690000D03*
X131190000Y-59690000D03*
X128650000Y-62230000D03*
X131190000Y-62230000D03*
X128650000Y-64770000D03*
X131190000Y-64770000D03*
X128650000Y-67310000D03*
X131190000Y-67310000D03*
X128650000Y-69850000D03*
X131190000Y-69850000D03*
X128650000Y-72390000D03*
X131190000Y-72390000D03*
X128650000Y-74930000D03*
X131190000Y-74930000D03*
X128650000Y-77470000D03*
X131190000Y-77470000D03*
X128650000Y-80010000D03*
X131190000Y-80010000D03*
X128650000Y-82550000D03*
X131190000Y-82550000D03*
X128650000Y-85090000D03*
X131190000Y-85090000D03*
X128650000Y-87630000D03*
X131190000Y-87630000D03*
X128650000Y-90170000D03*
X131190000Y-90170000D03*
X128650000Y-92710000D03*
X131190000Y-92710000D03*
X128650000Y-95250000D03*
X131190000Y-95250000D03*
X128650000Y-97790000D03*
X131190000Y-97790000D03*
X128650000Y-100330000D03*
X131190000Y-100330000D03*
X128650000Y-102870000D03*
X131190000Y-102870000D03*
X128650000Y-105410000D03*
X131190000Y-105410000D03*
X128650000Y-107950000D03*
X131190000Y-107950000D03*
X128650000Y-110490000D03*
X131190000Y-110490000D03*
X128650000Y-113030000D03*
X131190000Y-113030000D03*
X128650000Y-115570000D03*
X131190000Y-115570000D03*
X128650000Y-118110000D03*
X131190000Y-118110000D03*
X128650000Y-120650000D03*
X131190000Y-120650000D03*
%TD*%
D11*
%TO.C,C14*%
X138507500Y-53690000D03*
X136932500Y-53690000D03*
%TD*%
D23*
%TO.C,C2*%
X55650000Y-55637500D03*
X55650000Y-54062500D03*
%TD*%
D11*
%TO.C,R3*%
X136587500Y-111290000D03*
X135012500Y-111290000D03*
%TD*%
D10*
%TO.C,J6*%
X99000000Y-132900000D03*
D26*
X99000000Y-135440000D03*
X99000000Y-137980000D03*
X99000000Y-140520000D03*
X99000000Y-143060000D03*
X99000000Y-145600000D03*
%TD*%
D24*
%TO.C,R12*%
X156862500Y-63850000D03*
X158437500Y-63850000D03*
%TD*%
D27*
%TO.C,TP5*%
X157800000Y-68050000D03*
%TD*%
D28*
%TO.C,J4*%
X156045000Y-82960000D03*
X156045000Y-88740000D03*
D29*
X154980000Y-89200000D03*
X154980000Y-88400000D03*
X154980000Y-87100000D03*
X154980000Y-86100000D03*
X154980000Y-85600000D03*
X154980000Y-84600000D03*
X154980000Y-83300000D03*
X154980000Y-82500000D03*
X154980000Y-82800000D03*
X154980000Y-83600000D03*
X154980000Y-84100000D03*
X154980000Y-85100000D03*
X154980000Y-86600000D03*
X154980000Y-87600000D03*
X154980000Y-88100000D03*
X154980000Y-88900000D03*
D30*
X155545000Y-90170000D03*
D31*
X159725000Y-90170000D03*
X159725000Y-81530000D03*
D30*
X155545000Y-81530000D03*
%TD*%
D23*
%TO.C,C1*%
X55650000Y-139387500D03*
X55650000Y-137812500D03*
%TD*%
D11*
%TO.C,D2*%
X157787500Y-122816664D03*
X156212500Y-122816664D03*
%TD*%
D32*
%TO.C,D12*%
X158900000Y-48900000D03*
X154900000Y-48900000D03*
%TD*%
D18*
%TO.C,R24*%
X146300000Y-61637500D03*
X146300000Y-63212500D03*
%TD*%
D11*
%TO.C,R15*%
X150637500Y-58300000D03*
X149062500Y-58300000D03*
%TD*%
%TO.C,D9*%
X146812500Y-108751964D03*
X145237500Y-108751964D03*
%TD*%
%TO.C,R9*%
X136587500Y-103593358D03*
X135012500Y-103593358D03*
%TD*%
%TO.C,R1*%
X136587500Y-128640000D03*
X135012500Y-128640000D03*
%TD*%
D12*
%TO.C,U3*%
X51030000Y-81310000D03*
X51030000Y-83850000D03*
X51030000Y-86390000D03*
D13*
X48400000Y-81310000D03*
X48400000Y-86390000D03*
%TD*%
D18*
%TO.C,C8*%
X56136737Y-99533043D03*
X56136737Y-101108043D03*
%TD*%
D23*
%TO.C,R26*%
X148510000Y-77425000D03*
X148510000Y-75850000D03*
%TD*%
D11*
%TO.C,D6*%
X157787500Y-119924998D03*
X156212500Y-119924998D03*
%TD*%
%TO.C,R5*%
X136587500Y-117073332D03*
X135012500Y-117073332D03*
%TD*%
%TO.C,R23*%
X150687500Y-61100000D03*
X149112500Y-61100000D03*
%TD*%
D23*
%TO.C,C18*%
X147550000Y-55457500D03*
X147550000Y-53882500D03*
%TD*%
D11*
%TO.C,R11*%
X136587500Y-106158905D03*
X135012500Y-106158905D03*
%TD*%
D24*
%TO.C,R16*%
X149432500Y-55070000D03*
X151007500Y-55070000D03*
%TD*%
D11*
%TO.C,R19*%
X150487500Y-49100000D03*
X148912500Y-49100000D03*
%TD*%
%TO.C,D10*%
X146812500Y-106174642D03*
X145237500Y-106174642D03*
%TD*%
%TO.C,R10*%
X136587500Y-108724452D03*
X135012500Y-108724452D03*
%TD*%
%TO.C,D7*%
X146812500Y-101020000D03*
X145237500Y-101020000D03*
%TD*%
D21*
%TO.C,H2*%
X62752944Y-141902944D03*
X66850000Y-143600000D03*
X64450000Y-146000000D03*
X66147056Y-145297056D03*
X64450000Y-141200000D03*
X66147056Y-141902944D03*
X62752944Y-145297056D03*
X62050000Y-143600000D03*
D22*
X64450000Y-143600000D03*
%TD*%
D10*
%TO.C,J1*%
X132250000Y-132900000D03*
D26*
X132250000Y-135440000D03*
X132250000Y-137980000D03*
X132250000Y-140520000D03*
X132250000Y-143060000D03*
X132250000Y-145600000D03*
%TD*%
D23*
%TO.C,C4*%
X55525979Y-111307392D03*
X55525979Y-109732392D03*
%TD*%
D11*
%TO.C,D11*%
X157787500Y-125708330D03*
X156212500Y-125708330D03*
%TD*%
D23*
%TO.C,C16*%
X146825000Y-84687500D03*
X146825000Y-83112500D03*
%TD*%
D11*
%TO.C,C17*%
X140237500Y-51740000D03*
X138662500Y-51740000D03*
%TD*%
%TO.C,D3*%
X157787500Y-111250000D03*
X156212500Y-111250000D03*
%TD*%
D18*
%TO.C,C6*%
X55500000Y-43887500D03*
X55500000Y-45462500D03*
%TD*%
D14*
%TO.C,TR4*%
X50946530Y-96303594D03*
D15*
X50946530Y-98843594D03*
X50946530Y-101383594D03*
D16*
X48326530Y-96303594D03*
X48326530Y-101383594D03*
%TD*%
D11*
%TO.C,R6*%
X136587500Y-119964998D03*
X135012500Y-119964998D03*
%TD*%
%TO.C,R25*%
X151712500Y-77362500D03*
X150137500Y-77362500D03*
%TD*%
D10*
%TO.C,J7*%
X79450000Y-49475000D03*
D26*
X79450000Y-52015000D03*
X79450000Y-54555000D03*
X79450000Y-57095000D03*
X79450000Y-59635000D03*
X79450000Y-62175000D03*
X79450000Y-64715000D03*
X79450000Y-67255000D03*
X79450000Y-69795000D03*
X79450000Y-72335000D03*
X79450000Y-74875000D03*
X79450000Y-77415000D03*
X79450000Y-79955000D03*
X79450000Y-82495000D03*
X79450000Y-85035000D03*
X79450000Y-87575000D03*
X79450000Y-90115000D03*
X79450000Y-92655000D03*
X79450000Y-95195000D03*
X79450000Y-97735000D03*
X79450000Y-100275000D03*
X79450000Y-102815000D03*
X79450000Y-105355000D03*
%TD*%
D11*
%TO.C,C15*%
X140997500Y-80730000D03*
X139422500Y-80730000D03*
%TD*%
D24*
%TO.C,R7*%
X156975000Y-79250000D03*
X158550000Y-79250000D03*
%TD*%
%TO.C,C20*%
X156712500Y-99250000D03*
X158287500Y-99250000D03*
%TD*%
D22*
%TO.C,H1*%
X137925000Y-42100000D03*
D21*
X137925000Y-39700000D03*
X137925000Y-44500000D03*
X140325000Y-42100000D03*
X139622056Y-43797056D03*
X136227944Y-40402944D03*
X135525000Y-42100000D03*
X136227944Y-43797056D03*
X139622056Y-40402944D03*
%TD*%
D11*
%TO.C,R21*%
X136587500Y-125748330D03*
X135012500Y-125748330D03*
%TD*%
D12*
%TO.C,U4*%
X51056023Y-109249033D03*
X51056023Y-111789033D03*
X51056023Y-114329033D03*
D13*
X48426023Y-109249033D03*
X48426023Y-114329033D03*
%TD*%
D18*
%TO.C,C13*%
X157750000Y-70462500D03*
X157750000Y-72037500D03*
%TD*%
D11*
%TO.C,D8*%
X146812500Y-103597321D03*
X145237500Y-103597321D03*
%TD*%
D14*
%TO.C,TR1*%
X51036023Y-124011533D03*
D15*
X51036023Y-126551533D03*
X51036023Y-129091533D03*
D16*
X48416023Y-124011533D03*
X48416023Y-129091533D03*
%TD*%
D10*
%TO.C,J2*%
X68650000Y-41850000D03*
D26*
X71190000Y-41850000D03*
X68650000Y-44390000D03*
X71190000Y-44390000D03*
X68650000Y-46930000D03*
X71190000Y-46930000D03*
X68650000Y-49470000D03*
X71190000Y-49470000D03*
X68650000Y-52010000D03*
X71190000Y-52010000D03*
X68650000Y-54550000D03*
X71190000Y-54550000D03*
X68650000Y-57090000D03*
X71190000Y-57090000D03*
X68650000Y-59630000D03*
X71190000Y-59630000D03*
X68650000Y-62170000D03*
X71190000Y-62170000D03*
X68650000Y-64710000D03*
X71190000Y-64710000D03*
X68650000Y-67250000D03*
X71190000Y-67250000D03*
X68650000Y-69790000D03*
X71190000Y-69790000D03*
X68650000Y-72330000D03*
X71190000Y-72330000D03*
X68650000Y-74870000D03*
X71190000Y-74870000D03*
X68650000Y-77410000D03*
X71190000Y-77410000D03*
X68650000Y-79950000D03*
X71190000Y-79950000D03*
X68650000Y-82490000D03*
X71190000Y-82490000D03*
X68650000Y-85030000D03*
X71190000Y-85030000D03*
X68650000Y-87570000D03*
X71190000Y-87570000D03*
X68650000Y-90110000D03*
X71190000Y-90110000D03*
X68650000Y-92650000D03*
X71190000Y-92650000D03*
X68650000Y-95190000D03*
X71190000Y-95190000D03*
X68650000Y-97730000D03*
X71190000Y-97730000D03*
X68650000Y-100270000D03*
X71190000Y-100270000D03*
X68650000Y-102810000D03*
X71190000Y-102810000D03*
X68650000Y-105350000D03*
X71190000Y-105350000D03*
X68650000Y-107890000D03*
X71190000Y-107890000D03*
X68650000Y-110430000D03*
X71190000Y-110430000D03*
X68650000Y-112970000D03*
X71190000Y-112970000D03*
X68650000Y-115510000D03*
X71190000Y-115510000D03*
X68650000Y-118050000D03*
X71190000Y-118050000D03*
X68650000Y-120590000D03*
X71190000Y-120590000D03*
%TD*%
D33*
%TO.C,U5*%
X140212500Y-54100000D03*
X140212500Y-54600000D03*
X140212500Y-55100000D03*
X140212500Y-55600000D03*
X140212500Y-56100000D03*
X140212500Y-56600000D03*
X140212500Y-57100000D03*
X140212500Y-57600000D03*
D34*
X140900000Y-58287500D03*
X141400000Y-58287500D03*
X141900000Y-58287500D03*
X142400000Y-58287500D03*
X142900000Y-58287500D03*
X143400000Y-58287500D03*
X143900000Y-58287500D03*
X144400000Y-58287500D03*
D33*
X145087500Y-57600000D03*
X145087500Y-57100000D03*
X145087500Y-56600000D03*
X145087500Y-56100000D03*
X145087500Y-55600000D03*
X145087500Y-55100000D03*
X145087500Y-54600000D03*
X145087500Y-54100000D03*
D34*
X144400000Y-53412500D03*
X143900000Y-53412500D03*
X143400000Y-53412500D03*
X142900000Y-53412500D03*
X142400000Y-53412500D03*
X141900000Y-53412500D03*
X141400000Y-53412500D03*
X140900000Y-53412500D03*
D35*
X142650000Y-55850000D03*
%TD*%
D25*
%TO.C,C19*%
X156312500Y-102000000D03*
X158187500Y-102000000D03*
%TD*%
D11*
%TO.C,R2*%
X136587500Y-122856664D03*
X135012500Y-122856664D03*
%TD*%
D28*
%TO.C,J5*%
X156045000Y-53960000D03*
X156045000Y-59740000D03*
D29*
X154980000Y-60200000D03*
X154980000Y-59400000D03*
X154980000Y-58100000D03*
X154980000Y-57100000D03*
X154980000Y-56600000D03*
X154980000Y-55600000D03*
X154980000Y-54300000D03*
X154980000Y-53500000D03*
X154980000Y-53800000D03*
X154980000Y-54600000D03*
X154980000Y-55100000D03*
X154980000Y-56100000D03*
X154980000Y-57600000D03*
X154980000Y-58600000D03*
X154980000Y-59100000D03*
X154980000Y-59900000D03*
D30*
X155545000Y-52530000D03*
D31*
X159725000Y-61170000D03*
X159725000Y-52530000D03*
D30*
X155545000Y-61170000D03*
%TD*%
D33*
%TO.C,U6*%
X140262500Y-83125000D03*
X140262500Y-83625000D03*
X140262500Y-84125000D03*
X140262500Y-84625000D03*
X140262500Y-85125000D03*
X140262500Y-85625000D03*
X140262500Y-86125000D03*
X140262500Y-86625000D03*
D34*
X140950000Y-87312500D03*
X141450000Y-87312500D03*
X141950000Y-87312500D03*
X142450000Y-87312500D03*
X142950000Y-87312500D03*
X143450000Y-87312500D03*
X143950000Y-87312500D03*
X144450000Y-87312500D03*
D33*
X145137500Y-86625000D03*
X145137500Y-86125000D03*
X145137500Y-85625000D03*
X145137500Y-85125000D03*
X145137500Y-84625000D03*
X145137500Y-84125000D03*
X145137500Y-83625000D03*
X145137500Y-83125000D03*
D34*
X144450000Y-82437500D03*
X143950000Y-82437500D03*
X143450000Y-82437500D03*
X142950000Y-82437500D03*
X142450000Y-82437500D03*
X141950000Y-82437500D03*
X141450000Y-82437500D03*
X140950000Y-82437500D03*
D35*
X142700000Y-84875000D03*
%TD*%
D32*
%TO.C,D13*%
X159000000Y-94000000D03*
X155000000Y-94000000D03*
%TD*%
D11*
%TO.C,R20*%
X152050000Y-88900000D03*
X150475000Y-88900000D03*
%TD*%
D17*
%TO.C,L2*%
X58650000Y-52156250D03*
X58650000Y-54031250D03*
%TD*%
M02*
