%TF.GenerationSoftware,KiCad,Pcbnew,6.0.7-f9a2dced07~116~ubuntu20.04.1*%
%TF.CreationDate,2022-08-06T20:12:24+07:00*%
%TF.ProjectId,adatface_baseboard,61646174-6661-4636-955f-62617365626f,rev?*%
%TF.SameCoordinates,Original*%
%TF.FileFunction,Soldermask,Bot*%
%TF.FilePolarity,Negative*%
%FSLAX46Y46*%
G04 Gerber Fmt 4.6, Leading zero omitted, Abs format (unit mm)*
G04 Created by KiCad (PCBNEW 6.0.7-f9a2dced07~116~ubuntu20.04.1) date 2022-08-06 20:12:24*
%MOMM*%
%LPD*%
G01*
G04 APERTURE LIST*
G04 Aperture macros list*
%AMRoundRect*
0 Rectangle with rounded corners*
0 $1 Rounding radius*
0 $2 $3 $4 $5 $6 $7 $8 $9 X,Y pos of 4 corners*
0 Add a 4 corners polygon primitive as box body*
4,1,4,$2,$3,$4,$5,$6,$7,$8,$9,$2,$3,0*
0 Add four circle primitives for the rounded corners*
1,1,$1+$1,$2,$3*
1,1,$1+$1,$4,$5*
1,1,$1+$1,$6,$7*
1,1,$1+$1,$8,$9*
0 Add four rect primitives between the rounded corners*
20,1,$1+$1,$2,$3,$4,$5,0*
20,1,$1+$1,$4,$5,$6,$7,0*
20,1,$1+$1,$6,$7,$8,$9,0*
20,1,$1+$1,$8,$9,$2,$3,0*%
G04 Aperture macros list end*
%ADD10C,2.100000*%
%ADD11C,1.708000*%
%ADD12C,1.700000*%
%ADD13C,2.050000*%
%ADD14RoundRect,0.200000X-0.679000X0.679000X-0.679000X-0.679000X0.679000X-0.679000X0.679000X0.679000X0*%
%ADD15C,1.758000*%
%ADD16C,2.125000*%
%ADD17C,1.200000*%
%ADD18C,6.800000*%
%ADD19RoundRect,0.200000X-0.850000X-0.850000X0.850000X-0.850000X0.850000X0.850000X-0.850000X0.850000X0*%
%ADD20O,2.100000X2.100000*%
%ADD21C,1.050000*%
%ADD22O,2.500000X1.400000*%
%ADD23O,2.000000X1.400000*%
%ADD24RoundRect,0.200000X0.850000X0.850000X-0.850000X0.850000X-0.850000X-0.850000X0.850000X-0.850000X0*%
G04 APERTURE END LIST*
D10*
%TO.C,U1*%
X45816023Y-142589033D03*
X45816023Y-136989033D03*
D11*
X51056023Y-137249033D03*
D12*
X51056023Y-139789033D03*
D11*
X51056023Y-142329033D03*
D13*
X48426023Y-137249033D03*
X48426023Y-142329033D03*
%TD*%
D10*
%TO.C,TR2*%
X45810408Y-40557745D03*
X45810408Y-46157745D03*
D14*
X51050408Y-40817745D03*
D15*
X51050408Y-43357745D03*
X51050408Y-45897745D03*
D16*
X48430408Y-40817745D03*
X48430408Y-45897745D03*
%TD*%
D10*
%TO.C,TR3*%
X45786111Y-68321385D03*
X45786111Y-73921385D03*
D14*
X51026111Y-68581385D03*
D15*
X51026111Y-71121385D03*
X51026111Y-73661385D03*
D16*
X48406111Y-68581385D03*
X48406111Y-73661385D03*
%TD*%
D17*
%TO.C,H3*%
X60050000Y-63700000D03*
X64147056Y-62002944D03*
X64850000Y-63700000D03*
X60752944Y-62002944D03*
X64147056Y-65397056D03*
D18*
X62450000Y-63700000D03*
D17*
X62450000Y-66100000D03*
X60752944Y-65397056D03*
X62450000Y-61300000D03*
%TD*%
%TO.C,H4*%
X121793000Y-115049000D03*
X123490056Y-110951944D03*
X124193000Y-112649000D03*
X123490056Y-114346056D03*
X120095944Y-110951944D03*
D18*
X121793000Y-112649000D03*
D17*
X121793000Y-110249000D03*
X119393000Y-112649000D03*
X120095944Y-114346056D03*
%TD*%
D10*
%TO.C,U2*%
X45830408Y-58920245D03*
X45830408Y-53320245D03*
D11*
X51070408Y-53580245D03*
D12*
X51070408Y-56120245D03*
D11*
X51070408Y-58660245D03*
D13*
X48440408Y-53580245D03*
X48440408Y-58660245D03*
%TD*%
D19*
%TO.C,J3*%
X128650000Y-41910000D03*
D20*
X131190000Y-41910000D03*
X128650000Y-44450000D03*
X131190000Y-44450000D03*
X128650000Y-46990000D03*
X131190000Y-46990000D03*
X128650000Y-49530000D03*
X131190000Y-49530000D03*
X128650000Y-52070000D03*
X131190000Y-52070000D03*
X128650000Y-54610000D03*
X131190000Y-54610000D03*
X128650000Y-57150000D03*
X131190000Y-57150000D03*
X128650000Y-59690000D03*
X131190000Y-59690000D03*
X128650000Y-62230000D03*
X131190000Y-62230000D03*
X128650000Y-64770000D03*
X131190000Y-64770000D03*
X128650000Y-67310000D03*
X131190000Y-67310000D03*
X128650000Y-69850000D03*
X131190000Y-69850000D03*
X128650000Y-72390000D03*
X131190000Y-72390000D03*
X128650000Y-74930000D03*
X131190000Y-74930000D03*
X128650000Y-77470000D03*
X131190000Y-77470000D03*
X128650000Y-80010000D03*
X131190000Y-80010000D03*
X128650000Y-82550000D03*
X131190000Y-82550000D03*
X128650000Y-85090000D03*
X131190000Y-85090000D03*
X128650000Y-87630000D03*
X131190000Y-87630000D03*
X128650000Y-90170000D03*
X131190000Y-90170000D03*
X128650000Y-92710000D03*
X131190000Y-92710000D03*
X128650000Y-95250000D03*
X131190000Y-95250000D03*
X128650000Y-97790000D03*
X131190000Y-97790000D03*
X128650000Y-100330000D03*
X131190000Y-100330000D03*
X128650000Y-102870000D03*
X131190000Y-102870000D03*
X128650000Y-105410000D03*
X131190000Y-105410000D03*
X128650000Y-107950000D03*
X131190000Y-107950000D03*
X128650000Y-110490000D03*
X131190000Y-110490000D03*
X128650000Y-113030000D03*
X131190000Y-113030000D03*
X128650000Y-115570000D03*
X131190000Y-115570000D03*
X128650000Y-118110000D03*
X131190000Y-118110000D03*
X128650000Y-120650000D03*
X131190000Y-120650000D03*
%TD*%
D19*
%TO.C,J7*%
X80010000Y-41783000D03*
D20*
X80010000Y-44323000D03*
X80010000Y-46863000D03*
X80010000Y-49403000D03*
X80010000Y-51943000D03*
X80010000Y-54483000D03*
X80010000Y-57023000D03*
X80010000Y-59563000D03*
X80010000Y-62103000D03*
X80010000Y-64643000D03*
X80010000Y-67183000D03*
X80010000Y-69723000D03*
X80010000Y-72263000D03*
X80010000Y-74803000D03*
X80010000Y-77343000D03*
X80010000Y-79883000D03*
X80010000Y-82423000D03*
X80010000Y-84963000D03*
X80010000Y-87503000D03*
X80010000Y-90043000D03*
X80010000Y-92583000D03*
X80010000Y-95123000D03*
X80010000Y-97663000D03*
X80010000Y-100203000D03*
X80010000Y-102743000D03*
X80010000Y-105283000D03*
%TD*%
D19*
%TO.C,J6*%
X99000000Y-132900000D03*
D20*
X99000000Y-135440000D03*
X99000000Y-137980000D03*
X99000000Y-140520000D03*
X99000000Y-143060000D03*
X99000000Y-145600000D03*
%TD*%
D21*
%TO.C,J4*%
X156045000Y-82960000D03*
X156045000Y-88740000D03*
D22*
X155545000Y-90170000D03*
D23*
X159725000Y-90170000D03*
X159725000Y-81530000D03*
D22*
X155545000Y-81530000D03*
%TD*%
D10*
%TO.C,U3*%
X45790000Y-86650000D03*
X45790000Y-81050000D03*
D11*
X51030000Y-81310000D03*
D12*
X51030000Y-83850000D03*
D11*
X51030000Y-86390000D03*
D13*
X48400000Y-81310000D03*
X48400000Y-86390000D03*
%TD*%
D24*
%TO.C,J9*%
X124250000Y-43250000D03*
%TD*%
D17*
%TO.C,H2*%
X62752944Y-141902944D03*
X66850000Y-143600000D03*
X64450000Y-146000000D03*
X66147056Y-145297056D03*
X64450000Y-141200000D03*
X66147056Y-141902944D03*
X62752944Y-145297056D03*
X62050000Y-143600000D03*
D18*
X64450000Y-143600000D03*
%TD*%
D19*
%TO.C,J1*%
X132250000Y-132900000D03*
D20*
X132250000Y-135440000D03*
X132250000Y-137980000D03*
X132250000Y-140520000D03*
X132250000Y-143060000D03*
X132250000Y-145600000D03*
%TD*%
D10*
%TO.C,TR4*%
X45706530Y-96043594D03*
X45706530Y-101643594D03*
D14*
X50946530Y-96303594D03*
D15*
X50946530Y-98843594D03*
X50946530Y-101383594D03*
D16*
X48326530Y-96303594D03*
X48326530Y-101383594D03*
%TD*%
D24*
%TO.C,J8*%
X124250000Y-47000000D03*
%TD*%
D18*
%TO.C,H1*%
X137925000Y-42100000D03*
D17*
X137925000Y-39700000D03*
X137925000Y-44500000D03*
X140325000Y-42100000D03*
X139622056Y-43797056D03*
X136227944Y-40402944D03*
X135525000Y-42100000D03*
X136227944Y-43797056D03*
X139622056Y-40402944D03*
%TD*%
D10*
%TO.C,U4*%
X45816023Y-108989033D03*
X45816023Y-114589033D03*
D11*
X51056023Y-109249033D03*
D12*
X51056023Y-111789033D03*
D11*
X51056023Y-114329033D03*
D13*
X48426023Y-109249033D03*
X48426023Y-114329033D03*
%TD*%
D10*
%TO.C,TR1*%
X45796023Y-123751533D03*
X45796023Y-129351533D03*
D14*
X51036023Y-124011533D03*
D15*
X51036023Y-126551533D03*
X51036023Y-129091533D03*
D16*
X48416023Y-124011533D03*
X48416023Y-129091533D03*
%TD*%
D19*
%TO.C,J2*%
X67945000Y-41910000D03*
D20*
X70485000Y-41910000D03*
X67945000Y-44450000D03*
X70485000Y-44450000D03*
X67945000Y-46990000D03*
X70485000Y-46990000D03*
X67945000Y-49530000D03*
X70485000Y-49530000D03*
X67945000Y-52070000D03*
X70485000Y-52070000D03*
X67945000Y-54610000D03*
X70485000Y-54610000D03*
X67945000Y-57150000D03*
X70485000Y-57150000D03*
X67945000Y-59690000D03*
X70485000Y-59690000D03*
X67945000Y-62230000D03*
X70485000Y-62230000D03*
X67945000Y-64770000D03*
X70485000Y-64770000D03*
X67945000Y-67310000D03*
X70485000Y-67310000D03*
X67945000Y-69850000D03*
X70485000Y-69850000D03*
X67945000Y-72390000D03*
X70485000Y-72390000D03*
X67945000Y-74930000D03*
X70485000Y-74930000D03*
X67945000Y-77470000D03*
X70485000Y-77470000D03*
X67945000Y-80010000D03*
X70485000Y-80010000D03*
X67945000Y-82550000D03*
X70485000Y-82550000D03*
X67945000Y-85090000D03*
X70485000Y-85090000D03*
X67945000Y-87630000D03*
X70485000Y-87630000D03*
X67945000Y-90170000D03*
X70485000Y-90170000D03*
X67945000Y-92710000D03*
X70485000Y-92710000D03*
X67945000Y-95250000D03*
X70485000Y-95250000D03*
X67945000Y-97790000D03*
X70485000Y-97790000D03*
X67945000Y-100330000D03*
X70485000Y-100330000D03*
X67945000Y-102870000D03*
X70485000Y-102870000D03*
X67945000Y-105410000D03*
X70485000Y-105410000D03*
X67945000Y-107950000D03*
X70485000Y-107950000D03*
X67945000Y-110490000D03*
X70485000Y-110490000D03*
X67945000Y-113030000D03*
X70485000Y-113030000D03*
X67945000Y-115570000D03*
X70485000Y-115570000D03*
X67945000Y-118110000D03*
X70485000Y-118110000D03*
X67945000Y-120650000D03*
X70485000Y-120650000D03*
%TD*%
D21*
%TO.C,J5*%
X156045000Y-53960000D03*
X156045000Y-59740000D03*
D22*
X155545000Y-52530000D03*
D23*
X159725000Y-61170000D03*
X159725000Y-52530000D03*
D22*
X155545000Y-61170000D03*
%TD*%
M02*
