M48
; DRILL file {KiCad 5.99.0-unknown-0e3b001c51~134~ubuntu20.04.1} date Sen 04 Okt 2021 04:58:42 
; FORMAT={-:-/ absolute / inch / decimal}
; #@! TF.CreationDate,2021-10-04T04:58:42+07:00
; #@! TF.GenerationSoftware,Kicad,Pcbnew,5.99.0-unknown-0e3b001c51~134~ubuntu20.04.1
; #@! TF.FileFunction,Plated,1,4,PTH
FMAT,2
INCH
; #@! TA.AperFunction,Plated,PTH,ViaDrill
T1C0.0079
; #@! TA.AperFunction,Plated,PTH,ViaDrill
T2C0.0157
; #@! TA.AperFunction,Plated,PTH,ComponentDrill
T3C0.0197
; #@! TA.AperFunction,Plated,PTH,ViaDrill
T4C0.0236
; #@! TA.AperFunction,Plated,PTH,ComponentDrill
T5C0.0236
; #@! TA.AperFunction,Plated,PTH,ViaDrill
T6C0.0315
; #@! TA.AperFunction,Plated,PTH,ComponentDrill
T7C0.0315
; #@! TA.AperFunction,Plated,PTH,ComponentDrill
T8C0.0335
; #@! TA.AperFunction,Plated,PTH,ViaDrill
T9C0.0394
; #@! TA.AperFunction,Plated,PTH,ComponentDrill
T10C0.0394
; #@! TA.AperFunction,Plated,PTH,ComponentDrill
T11C0.0433
; #@! TA.AperFunction,Plated,PTH,ComponentDrill
T12C0.0453
; #@! TA.AperFunction,Plated,PTH,ViaDrill
T13C0.0472
; #@! TA.AperFunction,Plated,PTH,ComponentDrill
T14C0.1260
%
G90
G05
T1
X5.3583Y-2.189
X5.4843Y-1.9528
X5.5541Y-3.0472
X5.5768Y-2.1594
X5.5768Y-2.1988
X5.5768Y-2.2382
X5.5807Y-3.3406
X5.5807Y-3.3839
X5.5809Y-3.3055
X5.5871Y-3.215
X5.5876Y-3.4685
X5.5945Y-3.0748
X5.6161Y-2.1594
X5.6161Y-2.1988
X5.6161Y-2.2382
X5.6201Y-3.2992
X5.6201Y-3.3406
X5.6201Y-3.3839
X5.6235Y-3.2129
X5.6476Y-3.4675
X5.6496Y-3.2126
X5.6555Y-2.1594
X5.6555Y-2.1988
X5.6555Y-2.2382
X5.6555Y-3.2992
X5.6555Y-3.3406
X5.6555Y-3.3839
X5.7441Y-3.1295
X5.7445Y-3.2886
X5.8406Y-3.3022
X5.8681Y-2.2116
X5.9232Y-3.3317
X6.0531Y-3.4488
X6.1378Y-2.2087
X6.1378Y-2.248
X6.1585Y-3.3504
X6.1585Y-3.3898
T2
X5.2559Y-4.7638
X5.3228Y-3.2677
X5.3429Y-2.1134
X5.3496Y-3.248
X5.4094Y-2.037
X5.413Y-1.8654
X5.4323Y-3.1783
X5.4705Y-2.85
X5.4803Y-3.4567
X5.4823Y-2.1274
X5.498Y-2.2894
X5.5118Y-3.248
X5.5581Y-2.4203
X5.5815Y-2.3445
X5.5856Y-2.066
X5.6251Y-2.0407
X5.6474Y-2.3371
X5.6485Y-2.059
X5.7008Y-1.9193
X5.747Y-3.3425
X5.7602Y-2.161
X5.7618Y-2.1988
X5.7805Y-3.2274
X5.8079Y-2.0724
X5.8465Y-2.9232
X5.8627Y-2.0641
X5.8824Y-3.4331
X5.8829Y-3.5
X5.8829Y-3.564
X5.8854Y-2.3547
X5.9736Y-3.1406
X6.0421Y-3.2866
T3
X2.3642Y-2.5079
X2.3918Y-2.4411
X2.3918Y-2.5747
X2.4429Y-5.6535
X2.4587Y-2.4134
X2.4587Y-2.6024
X2.4706Y-5.5867
X2.4706Y-5.7204
X2.5255Y-2.4411
X2.5255Y-2.5747
X2.5374Y-5.5591
X2.5374Y-5.748
X2.5531Y-2.5079
X2.6042Y-5.5867
X2.6042Y-5.7204
X2.6319Y-5.6535
X4.6988Y-4.4321
X4.7265Y-4.3653
X4.7265Y-4.4989
X4.7933Y-4.3376
X4.7933Y-4.5266
X4.8601Y-4.3653
X4.8601Y-4.4989
X4.8878Y-4.4321
X5.3356Y-1.6575
X5.3633Y-1.5907
X5.3633Y-1.7243
X5.4301Y-1.563
X5.4301Y-1.752
X5.4969Y-1.5907
X5.4969Y-1.7243
X5.5246Y-1.6575
T4
X5.2362Y-5.0197
X6.0433Y-3.5064
X6.0442Y-3.2543
X6.059Y-2.1117
X6.061Y-2.3647
T6
X5.7028Y-2.4911
X5.8205Y-2.2989
X5.8827Y-2.1224
X6.0Y-2.4626
X6.2835Y-4.7205
T7
X2.0091Y-3.2012
X2.0091Y-3.3012
X2.0091Y-3.4012
X2.0101Y-4.3011
X2.0101Y-4.4011
X2.0101Y-4.5011
X2.0101Y-5.4035
X2.0101Y-5.5035
X2.0101Y-5.6035
X2.0106Y-2.1095
X2.0106Y-2.2095
X2.0106Y-2.3095
T8
X2.0058Y-3.7915
X2.0058Y-3.8915
X2.0058Y-3.9915
X2.0089Y-2.7001
X2.0089Y-2.8001
X2.0089Y-2.9001
X2.0093Y-4.8823
X2.0093Y-4.9823
X2.0093Y-5.0823
X2.0099Y-1.607
X2.0099Y-1.707
X2.0099Y-1.807
T9
X2.25Y-1.7264
X2.2697Y-2.8287
X2.2795Y-5.0039
X2.2992Y-5.2795
X2.3012Y-3.0753
X2.3012Y-3.9154
X2.3051Y-4.1791
X2.3091Y-1.982
X5.7377Y-2.6421
X5.9232Y-2.878
X6.0256Y-2.9094
X6.0276Y-2.7126
X6.1181Y-3.1201
X6.128Y-2.5138
X6.2106Y-2.9055
T10
X2.7028Y-1.6476
X2.7028Y-1.7476
X2.7028Y-1.8476
X2.7028Y-1.9476
X2.7028Y-2.0476
X2.7028Y-2.1476
X2.7028Y-2.2476
X2.7028Y-2.3476
X2.7028Y-2.4476
X2.7028Y-2.5476
X2.7028Y-2.6476
X2.7028Y-2.7476
X2.7028Y-2.8476
X2.7028Y-2.9476
X2.7028Y-3.0476
X2.7028Y-3.1476
X2.7028Y-3.2476
X2.7028Y-3.3476
X2.7028Y-3.4476
X2.7028Y-3.5476
X2.7028Y-3.6476
X2.7028Y-3.7476
X2.7028Y-3.8476
X2.7028Y-3.9476
X2.7028Y-4.0476
X2.7028Y-4.1476
X2.7028Y-4.2476
X2.7028Y-4.3476
X2.7028Y-4.4476
X2.7028Y-4.5476
X2.7028Y-4.6476
X2.7028Y-4.7476
X2.8028Y-1.6476
X2.8028Y-1.7476
X2.8028Y-1.8476
X2.8028Y-1.9476
X2.8028Y-2.0476
X2.8028Y-2.1476
X2.8028Y-2.2476
X2.8028Y-2.3476
X2.8028Y-2.4476
X2.8028Y-2.5476
X2.8028Y-2.6476
X2.8028Y-2.7476
X2.8028Y-2.8476
X2.8028Y-2.9476
X2.8028Y-3.0476
X2.8028Y-3.1476
X2.8028Y-3.2476
X2.8028Y-3.3476
X2.8028Y-3.4476
X2.8028Y-3.5476
X2.8028Y-3.6476
X2.8028Y-3.7476
X2.8028Y-3.8476
X2.8028Y-3.9476
X2.8028Y-4.0476
X2.8028Y-4.1476
X2.8028Y-4.2476
X2.8028Y-4.3476
X2.8028Y-4.4476
X2.8028Y-4.5476
X2.8028Y-4.6476
X2.8028Y-4.7476
X3.128Y-1.9478
X3.128Y-2.0478
X3.128Y-2.1478
X3.128Y-2.2478
X3.128Y-2.3478
X3.128Y-2.4478
X3.128Y-2.5478
X3.128Y-2.6478
X3.128Y-2.7478
X3.128Y-2.8478
X3.128Y-2.9478
X3.128Y-3.0478
X3.128Y-3.1478
X3.128Y-3.2478
X3.128Y-3.3478
X3.128Y-3.4478
X3.128Y-3.5478
X3.128Y-3.6478
X3.128Y-3.7478
X3.128Y-3.8478
X3.128Y-3.9478
X3.128Y-4.0478
X3.128Y-4.1478
X3.8976Y-5.2323
X3.8976Y-5.3323
X3.8976Y-5.4323
X3.8976Y-5.5323
X3.8976Y-5.6323
X3.8976Y-5.7323
X4.8917Y-1.7028
X4.8917Y-1.8504
X5.065Y-1.65
X5.065Y-1.75
X5.065Y-1.85
X5.065Y-1.95
X5.065Y-2.05
X5.065Y-2.15
X5.065Y-2.25
X5.065Y-2.35
X5.065Y-2.45
X5.065Y-2.55
X5.065Y-2.65
X5.065Y-2.75
X5.065Y-2.85
X5.065Y-2.95
X5.065Y-3.05
X5.065Y-3.15
X5.065Y-3.25
X5.065Y-3.35
X5.065Y-3.45
X5.065Y-3.55
X5.065Y-3.65
X5.065Y-3.75
X5.065Y-3.85
X5.065Y-3.95
X5.065Y-4.05
X5.065Y-4.15
X5.065Y-4.25
X5.065Y-4.35
X5.065Y-4.45
X5.065Y-4.55
X5.065Y-4.65
X5.065Y-4.75
X5.165Y-1.65
X5.165Y-1.75
X5.165Y-1.85
X5.165Y-1.95
X5.165Y-2.05
X5.165Y-2.15
X5.165Y-2.25
X5.165Y-2.35
X5.165Y-2.45
X5.165Y-2.55
X5.165Y-2.65
X5.165Y-2.75
X5.165Y-2.85
X5.165Y-2.95
X5.165Y-3.05
X5.165Y-3.15
X5.165Y-3.25
X5.165Y-3.35
X5.165Y-3.45
X5.165Y-3.55
X5.165Y-3.65
X5.165Y-3.75
X5.165Y-3.85
X5.165Y-3.95
X5.165Y-4.05
X5.165Y-4.15
X5.165Y-4.25
X5.165Y-4.35
X5.165Y-4.45
X5.165Y-4.55
X5.165Y-4.65
X5.165Y-4.75
X5.2067Y-5.2323
X5.2067Y-5.3323
X5.2067Y-5.4323
X5.2067Y-5.5323
X5.2067Y-5.6323
X5.2067Y-5.7323
T11
X1.9055Y-3.2012
X1.9055Y-3.4012
X1.9065Y-4.3011
X1.9065Y-4.5011
X1.9065Y-5.4035
X1.9065Y-5.6035
X1.9071Y-2.1095
X1.9071Y-2.3095
T12
X1.9026Y-3.7915
X1.9026Y-3.9915
X1.9058Y-2.7001
X1.9058Y-2.9001
X1.9061Y-4.8823
X1.9061Y-5.0823
X1.9067Y-1.607
X1.9067Y-1.807
T13
X6.0906Y-4.0157
X6.1024Y-3.8287
X6.1024Y-3.9094
X6.2904Y-2.6791
T14
X2.4587Y-2.5079
X2.5374Y-5.6535
X4.7933Y-4.4321
X5.4301Y-1.6575
T5
G00X6.1022Y-2.0681
M15
G01X6.1455Y-2.0681
M16
G05
G00X6.1022Y-2.4083
M15
G01X6.1455Y-2.4083
M16
G05
G00X6.1022Y-3.2098
M15
G01X6.1455Y-3.2098
M16
G05
G00X6.1022Y-3.55
M15
G01X6.1455Y-3.55
M16
G05
G00X6.2766Y-2.0681
M15
G01X6.3002Y-2.0681
M16
G05
G00X6.2766Y-2.4083
M15
G01X6.3002Y-2.4083
M16
G05
G00X6.2766Y-3.2098
M15
G01X6.3002Y-3.2098
M16
G05
G00X6.2766Y-3.55
M15
G01X6.3002Y-3.55
M16
G05
T0
M30
