%TF.GenerationSoftware,KiCad,Pcbnew,5.99.0-unknown-0e3b001c51~134~ubuntu20.04.1*%
%TF.CreationDate,2021-10-04T04:58:42+07:00*%
%TF.ProjectId,adatface_baseboard,61646174-6661-4636-955f-62617365626f,rev?*%
%TF.SameCoordinates,Original*%
%TF.FileFunction,Soldermask,Bot*%
%TF.FilePolarity,Negative*%
%FSLAX46Y46*%
G04 Gerber Fmt 4.6, Leading zero omitted, Abs format (unit mm)*
G04 Created by KiCad (PCBNEW 5.99.0-unknown-0e3b001c51~134~ubuntu20.04.1) date 2021-10-04 04:58:42*
%MOMM*%
%LPD*%
G01*
G04 APERTURE LIST*
G04 Aperture macros list*
%AMRoundRect*
0 Rectangle with rounded corners*
0 $1 Rounding radius*
0 $2 $3 $4 $5 $6 $7 $8 $9 X,Y pos of 4 corners*
0 Add a 4 corners polygon primitive as box body*
4,1,4,$2,$3,$4,$5,$6,$7,$8,$9,$2,$3,0*
0 Add four circle primitives for the rounded corners*
1,1,$1+$1,$2,$3*
1,1,$1+$1,$4,$5*
1,1,$1+$1,$6,$7*
1,1,$1+$1,$8,$9*
0 Add four rect primitives between the rounded corners*
20,1,$1+$1,$2,$3,$4,$5,0*
20,1,$1+$1,$4,$5,$6,$7,0*
20,1,$1+$1,$6,$7,$8,$9,0*
20,1,$1+$1,$8,$9,$2,$3,0*%
G04 Aperture macros list end*
%ADD10RoundRect,0.200000X-0.850000X-0.850000X0.850000X-0.850000X0.850000X0.850000X-0.850000X0.850000X0*%
%ADD11C,1.708000*%
%ADD12C,2.050000*%
%ADD13RoundRect,0.200000X-0.679000X0.679000X-0.679000X-0.679000X0.679000X-0.679000X0.679000X0.679000X0*%
%ADD14C,1.758000*%
%ADD15C,2.125000*%
%ADD16C,1.200000*%
%ADD17C,6.800000*%
%ADD18O,2.100000X2.100000*%
%ADD19C,1.050000*%
%ADD20O,2.500000X1.400000*%
%ADD21O,2.000000X1.400000*%
G04 APERTURE END LIST*
D10*
%TO.C,J9*%
X124250000Y-43250000D03*
%TD*%
%TO.C,J8*%
X124250000Y-47000000D03*
%TD*%
D11*
%TO.C,U1*%
X51056023Y-137249033D03*
X51056023Y-139789033D03*
X51056023Y-142329033D03*
D12*
X48426023Y-137249033D03*
X48426023Y-142329033D03*
%TD*%
D13*
%TO.C,TR2*%
X51050408Y-40817745D03*
D14*
X51050408Y-43357745D03*
X51050408Y-45897745D03*
D15*
X48430408Y-40817745D03*
X48430408Y-45897745D03*
%TD*%
D13*
%TO.C,TR3*%
X51026111Y-68581385D03*
D14*
X51026111Y-71121385D03*
X51026111Y-73661385D03*
D15*
X48406111Y-68581385D03*
X48406111Y-73661385D03*
%TD*%
D16*
%TO.C,H3*%
X60050000Y-63700000D03*
X64147056Y-62002944D03*
X64850000Y-63700000D03*
X60752944Y-62002944D03*
X64147056Y-65397056D03*
D17*
X62450000Y-63700000D03*
D16*
X62450000Y-66100000D03*
X60752944Y-65397056D03*
X62450000Y-61300000D03*
%TD*%
%TO.C,H4*%
X121750000Y-114975000D03*
X123447056Y-110877944D03*
X124150000Y-112575000D03*
X123447056Y-114272056D03*
X120052944Y-110877944D03*
D17*
X121750000Y-112575000D03*
D16*
X121750000Y-110175000D03*
X119350000Y-112575000D03*
X120052944Y-114272056D03*
%TD*%
D11*
%TO.C,U2*%
X51070408Y-53580245D03*
X51070408Y-56120245D03*
X51070408Y-58660245D03*
D12*
X48440408Y-53580245D03*
X48440408Y-58660245D03*
%TD*%
D10*
%TO.C,J3*%
X128650000Y-41910000D03*
D18*
X131190000Y-41910000D03*
X128650000Y-44450000D03*
X131190000Y-44450000D03*
X128650000Y-46990000D03*
X131190000Y-46990000D03*
X128650000Y-49530000D03*
X131190000Y-49530000D03*
X128650000Y-52070000D03*
X131190000Y-52070000D03*
X128650000Y-54610000D03*
X131190000Y-54610000D03*
X128650000Y-57150000D03*
X131190000Y-57150000D03*
X128650000Y-59690000D03*
X131190000Y-59690000D03*
X128650000Y-62230000D03*
X131190000Y-62230000D03*
X128650000Y-64770000D03*
X131190000Y-64770000D03*
X128650000Y-67310000D03*
X131190000Y-67310000D03*
X128650000Y-69850000D03*
X131190000Y-69850000D03*
X128650000Y-72390000D03*
X131190000Y-72390000D03*
X128650000Y-74930000D03*
X131190000Y-74930000D03*
X128650000Y-77470000D03*
X131190000Y-77470000D03*
X128650000Y-80010000D03*
X131190000Y-80010000D03*
X128650000Y-82550000D03*
X131190000Y-82550000D03*
X128650000Y-85090000D03*
X131190000Y-85090000D03*
X128650000Y-87630000D03*
X131190000Y-87630000D03*
X128650000Y-90170000D03*
X131190000Y-90170000D03*
X128650000Y-92710000D03*
X131190000Y-92710000D03*
X128650000Y-95250000D03*
X131190000Y-95250000D03*
X128650000Y-97790000D03*
X131190000Y-97790000D03*
X128650000Y-100330000D03*
X131190000Y-100330000D03*
X128650000Y-102870000D03*
X131190000Y-102870000D03*
X128650000Y-105410000D03*
X131190000Y-105410000D03*
X128650000Y-107950000D03*
X131190000Y-107950000D03*
X128650000Y-110490000D03*
X131190000Y-110490000D03*
X128650000Y-113030000D03*
X131190000Y-113030000D03*
X128650000Y-115570000D03*
X131190000Y-115570000D03*
X128650000Y-118110000D03*
X131190000Y-118110000D03*
X128650000Y-120650000D03*
X131190000Y-120650000D03*
%TD*%
D10*
%TO.C,J6*%
X99000000Y-132900000D03*
D18*
X99000000Y-135440000D03*
X99000000Y-137980000D03*
X99000000Y-140520000D03*
X99000000Y-143060000D03*
X99000000Y-145600000D03*
%TD*%
D19*
%TO.C,J4*%
X156045000Y-82960000D03*
X156045000Y-88740000D03*
D20*
X155545000Y-90170000D03*
D21*
X159725000Y-90170000D03*
X159725000Y-81530000D03*
D20*
X155545000Y-81530000D03*
%TD*%
D11*
%TO.C,U3*%
X51030000Y-81310000D03*
X51030000Y-83850000D03*
X51030000Y-86390000D03*
D12*
X48400000Y-81310000D03*
X48400000Y-86390000D03*
%TD*%
D16*
%TO.C,H2*%
X62752944Y-141902944D03*
X66850000Y-143600000D03*
X64450000Y-146000000D03*
X66147056Y-145297056D03*
X64450000Y-141200000D03*
X66147056Y-141902944D03*
X62752944Y-145297056D03*
X62050000Y-143600000D03*
D17*
X64450000Y-143600000D03*
%TD*%
D10*
%TO.C,J1*%
X132250000Y-132900000D03*
D18*
X132250000Y-135440000D03*
X132250000Y-137980000D03*
X132250000Y-140520000D03*
X132250000Y-143060000D03*
X132250000Y-145600000D03*
%TD*%
D13*
%TO.C,TR4*%
X50946530Y-96303594D03*
D14*
X50946530Y-98843594D03*
X50946530Y-101383594D03*
D15*
X48326530Y-96303594D03*
X48326530Y-101383594D03*
%TD*%
D10*
%TO.C,J7*%
X79450000Y-49475000D03*
D18*
X79450000Y-52015000D03*
X79450000Y-54555000D03*
X79450000Y-57095000D03*
X79450000Y-59635000D03*
X79450000Y-62175000D03*
X79450000Y-64715000D03*
X79450000Y-67255000D03*
X79450000Y-69795000D03*
X79450000Y-72335000D03*
X79450000Y-74875000D03*
X79450000Y-77415000D03*
X79450000Y-79955000D03*
X79450000Y-82495000D03*
X79450000Y-85035000D03*
X79450000Y-87575000D03*
X79450000Y-90115000D03*
X79450000Y-92655000D03*
X79450000Y-95195000D03*
X79450000Y-97735000D03*
X79450000Y-100275000D03*
X79450000Y-102815000D03*
X79450000Y-105355000D03*
%TD*%
D17*
%TO.C,H1*%
X137925000Y-42100000D03*
D16*
X137925000Y-39700000D03*
X137925000Y-44500000D03*
X140325000Y-42100000D03*
X139622056Y-43797056D03*
X136227944Y-40402944D03*
X135525000Y-42100000D03*
X136227944Y-43797056D03*
X139622056Y-40402944D03*
%TD*%
D11*
%TO.C,U4*%
X51056023Y-109249033D03*
X51056023Y-111789033D03*
X51056023Y-114329033D03*
D12*
X48426023Y-109249033D03*
X48426023Y-114329033D03*
%TD*%
D13*
%TO.C,TR1*%
X51036023Y-124011533D03*
D14*
X51036023Y-126551533D03*
X51036023Y-129091533D03*
D15*
X48416023Y-124011533D03*
X48416023Y-129091533D03*
%TD*%
D10*
%TO.C,J2*%
X68650000Y-41850000D03*
D18*
X71190000Y-41850000D03*
X68650000Y-44390000D03*
X71190000Y-44390000D03*
X68650000Y-46930000D03*
X71190000Y-46930000D03*
X68650000Y-49470000D03*
X71190000Y-49470000D03*
X68650000Y-52010000D03*
X71190000Y-52010000D03*
X68650000Y-54550000D03*
X71190000Y-54550000D03*
X68650000Y-57090000D03*
X71190000Y-57090000D03*
X68650000Y-59630000D03*
X71190000Y-59630000D03*
X68650000Y-62170000D03*
X71190000Y-62170000D03*
X68650000Y-64710000D03*
X71190000Y-64710000D03*
X68650000Y-67250000D03*
X71190000Y-67250000D03*
X68650000Y-69790000D03*
X71190000Y-69790000D03*
X68650000Y-72330000D03*
X71190000Y-72330000D03*
X68650000Y-74870000D03*
X71190000Y-74870000D03*
X68650000Y-77410000D03*
X71190000Y-77410000D03*
X68650000Y-79950000D03*
X71190000Y-79950000D03*
X68650000Y-82490000D03*
X71190000Y-82490000D03*
X68650000Y-85030000D03*
X71190000Y-85030000D03*
X68650000Y-87570000D03*
X71190000Y-87570000D03*
X68650000Y-90110000D03*
X71190000Y-90110000D03*
X68650000Y-92650000D03*
X71190000Y-92650000D03*
X68650000Y-95190000D03*
X71190000Y-95190000D03*
X68650000Y-97730000D03*
X71190000Y-97730000D03*
X68650000Y-100270000D03*
X71190000Y-100270000D03*
X68650000Y-102810000D03*
X71190000Y-102810000D03*
X68650000Y-105350000D03*
X71190000Y-105350000D03*
X68650000Y-107890000D03*
X71190000Y-107890000D03*
X68650000Y-110430000D03*
X71190000Y-110430000D03*
X68650000Y-112970000D03*
X71190000Y-112970000D03*
X68650000Y-115510000D03*
X71190000Y-115510000D03*
X68650000Y-118050000D03*
X71190000Y-118050000D03*
X68650000Y-120590000D03*
X71190000Y-120590000D03*
%TD*%
D19*
%TO.C,J5*%
X156045000Y-53960000D03*
X156045000Y-59740000D03*
D20*
X155545000Y-52530000D03*
D21*
X159725000Y-61170000D03*
X159725000Y-52530000D03*
D20*
X155545000Y-61170000D03*
%TD*%
M02*
