%TF.GenerationSoftware,KiCad,Pcbnew,5.99.0-unknown-0e3b001c51~134~ubuntu20.04.1*%
%TF.CreationDate,2021-10-04T04:58:42+07:00*%
%TF.ProjectId,adatface_baseboard,61646174-6661-4636-955f-62617365626f,rev?*%
%TF.SameCoordinates,Original*%
%TF.FileFunction,Legend,Bot*%
%TF.FilePolarity,Positive*%
%FSLAX46Y46*%
G04 Gerber Fmt 4.6, Leading zero omitted, Abs format (unit mm)*
G04 Created by KiCad (PCBNEW 5.99.0-unknown-0e3b001c51~134~ubuntu20.04.1) date 2021-10-04 04:58:42*
%MOMM*%
%LPD*%
G01*
G04 APERTURE LIST*
%ADD10C,0.200000*%
%ADD11C,0.350000*%
%ADD12O,1.700000X0.600000*%
%ADD13O,1.200000X0.600000*%
G04 APERTURE END LIST*
D10*
X143650000Y-54850000D03*
D11*
X155000000Y-97250000D03*
D10*
X141754384Y-83960199D03*
D11*
X150450000Y-73100000D03*
D10*
X143650000Y-55850000D03*
X142750000Y-85950000D03*
D11*
X148500000Y-74250000D03*
X144850000Y-63275000D03*
D10*
X142650000Y-56850000D03*
X136100000Y-55600000D03*
D11*
X153523548Y-82658530D03*
X155000000Y-99300000D03*
X153499120Y-89063400D03*
X159600000Y-119900000D03*
X144800000Y-48750000D03*
D10*
X141650000Y-54850000D03*
X141750000Y-84850000D03*
D11*
X135710000Y-53680000D03*
D10*
X141650000Y-55850000D03*
D11*
X153898677Y-53636600D03*
D10*
X142750000Y-83800000D03*
X143650000Y-84850000D03*
X141750000Y-85950000D03*
D11*
X137980000Y-80730000D03*
X137400000Y-51740000D03*
D10*
X143650000Y-85950000D03*
D11*
X154700000Y-102000000D03*
D10*
X142750000Y-84850000D03*
D11*
X149420000Y-53910000D03*
X149412500Y-87200000D03*
D10*
X143650000Y-56850000D03*
D11*
X135880000Y-82500000D03*
X146825000Y-81975000D03*
X149425000Y-90525000D03*
D10*
X139300000Y-49600000D03*
X143650000Y-83800000D03*
X141650000Y-56850000D03*
D11*
X155650000Y-63850000D03*
X147520000Y-52640000D03*
D10*
X142650000Y-55850000D03*
X142650000Y-54850000D03*
D11*
X155400000Y-79250000D03*
X152400000Y-62550000D03*
X157750000Y-73800000D03*
X147841950Y-58391950D03*
X153949120Y-60063400D03*
X58550000Y-106150000D03*
X57650000Y-71850000D03*
D10*
X143450000Y-88075000D03*
D11*
X139650000Y-58150000D03*
X143444882Y-59361800D03*
X139250000Y-54036600D03*
D10*
X141925000Y-88100000D03*
D11*
X58650000Y-50343750D03*
X58450000Y-78112500D03*
X141770974Y-59550794D03*
X153100000Y-68900000D03*
X57900000Y-127100000D03*
X153050000Y-73900000D03*
X140000000Y-82500000D03*
X58450000Y-99450000D03*
X139200000Y-87800000D03*
X58400000Y-134100000D03*
X57150000Y-43850000D03*
X146350000Y-55850000D03*
X145975000Y-84900000D03*
X159775000Y-68050000D03*
X145737840Y-67109048D03*
D10*
X142838164Y-81606489D03*
D11*
X141874979Y-52475614D03*
D10*
X141911363Y-81660000D03*
D11*
X142878067Y-51832956D03*
X133000000Y-127500000D03*
X133500000Y-121000000D03*
X141175000Y-61475000D03*
X137490000Y-47380000D03*
X143471811Y-52297841D03*
D10*
X149050000Y-56175000D03*
D11*
X148912500Y-52427598D03*
X146310000Y-54890000D03*
D10*
X148350000Y-83875000D03*
D11*
X149425000Y-88900000D03*
D10*
X155900000Y-57100000D03*
X155900000Y-56100000D03*
D11*
X138950098Y-72390000D03*
X149490000Y-59810000D03*
X151730000Y-79770000D03*
X153470000Y-83480000D03*
D10*
X141075000Y-77400000D03*
X142100000Y-78100000D03*
X145910000Y-83530000D03*
X145900000Y-79490000D03*
D11*
X135200000Y-83000000D03*
D10*
X143500000Y-81600000D03*
X150450000Y-84625000D03*
X153750000Y-87600000D03*
X156425000Y-86100000D03*
X156425000Y-85100000D03*
D11*
X124250000Y-43250000D03*
X124250000Y-47000000D03*
X51056023Y-137249033D03*
X51056023Y-139789033D03*
X51056023Y-142329033D03*
X48426023Y-137249033D03*
X48426023Y-142329033D03*
X51050408Y-40817745D03*
X51050408Y-43357745D03*
X51050408Y-45897745D03*
X48430408Y-40817745D03*
X48430408Y-45897745D03*
X51026111Y-68581385D03*
X51026111Y-71121385D03*
X51026111Y-73661385D03*
X48406111Y-68581385D03*
X48406111Y-73661385D03*
X60050000Y-63700000D03*
X64147056Y-62002944D03*
X64850000Y-63700000D03*
X60752944Y-62002944D03*
X64147056Y-65397056D03*
X62450000Y-63700000D03*
X62450000Y-66100000D03*
X60752944Y-65397056D03*
X62450000Y-61300000D03*
X121750000Y-114975000D03*
X123447056Y-110877944D03*
X124150000Y-112575000D03*
X123447056Y-114272056D03*
X120052944Y-110877944D03*
X121750000Y-112575000D03*
X121750000Y-110175000D03*
X119350000Y-112575000D03*
X120052944Y-114272056D03*
X51070408Y-53580245D03*
X51070408Y-56120245D03*
X51070408Y-58660245D03*
X48440408Y-53580245D03*
X48440408Y-58660245D03*
X128650000Y-41910000D03*
X131190000Y-41910000D03*
X128650000Y-44450000D03*
X131190000Y-44450000D03*
X128650000Y-46990000D03*
X131190000Y-46990000D03*
X128650000Y-49530000D03*
X131190000Y-49530000D03*
X128650000Y-52070000D03*
X131190000Y-52070000D03*
X128650000Y-54610000D03*
X131190000Y-54610000D03*
X128650000Y-57150000D03*
X131190000Y-57150000D03*
X128650000Y-59690000D03*
X131190000Y-59690000D03*
X128650000Y-62230000D03*
X131190000Y-62230000D03*
X128650000Y-64770000D03*
X131190000Y-64770000D03*
X128650000Y-67310000D03*
X131190000Y-67310000D03*
X128650000Y-69850000D03*
X131190000Y-69850000D03*
X128650000Y-72390000D03*
X131190000Y-72390000D03*
X128650000Y-74930000D03*
X131190000Y-74930000D03*
X128650000Y-77470000D03*
X131190000Y-77470000D03*
X128650000Y-80010000D03*
X131190000Y-80010000D03*
X128650000Y-82550000D03*
X131190000Y-82550000D03*
X128650000Y-85090000D03*
X131190000Y-85090000D03*
X128650000Y-87630000D03*
X131190000Y-87630000D03*
X128650000Y-90170000D03*
X131190000Y-90170000D03*
X128650000Y-92710000D03*
X131190000Y-92710000D03*
X128650000Y-95250000D03*
X131190000Y-95250000D03*
X128650000Y-97790000D03*
X131190000Y-97790000D03*
X128650000Y-100330000D03*
X131190000Y-100330000D03*
X128650000Y-102870000D03*
X131190000Y-102870000D03*
X128650000Y-105410000D03*
X131190000Y-105410000D03*
X128650000Y-107950000D03*
X131190000Y-107950000D03*
X128650000Y-110490000D03*
X131190000Y-110490000D03*
X128650000Y-113030000D03*
X131190000Y-113030000D03*
X128650000Y-115570000D03*
X131190000Y-115570000D03*
X128650000Y-118110000D03*
X131190000Y-118110000D03*
X128650000Y-120650000D03*
X131190000Y-120650000D03*
X99000000Y-132900000D03*
X99000000Y-135440000D03*
X99000000Y-137980000D03*
X99000000Y-140520000D03*
X99000000Y-143060000D03*
X99000000Y-145600000D03*
X156045000Y-82960000D03*
X156045000Y-88740000D03*
D12*
X155545000Y-90170000D03*
D13*
X159725000Y-90170000D03*
X159725000Y-81530000D03*
D12*
X155545000Y-81530000D03*
D11*
X51030000Y-81310000D03*
X51030000Y-83850000D03*
X51030000Y-86390000D03*
X48400000Y-81310000D03*
X48400000Y-86390000D03*
X62752944Y-141902944D03*
X66850000Y-143600000D03*
X64450000Y-146000000D03*
X66147056Y-145297056D03*
X64450000Y-141200000D03*
X66147056Y-141902944D03*
X62752944Y-145297056D03*
X62050000Y-143600000D03*
X64450000Y-143600000D03*
X132250000Y-132900000D03*
X132250000Y-135440000D03*
X132250000Y-137980000D03*
X132250000Y-140520000D03*
X132250000Y-143060000D03*
X132250000Y-145600000D03*
X50946530Y-96303594D03*
X50946530Y-98843594D03*
X50946530Y-101383594D03*
X48326530Y-96303594D03*
X48326530Y-101383594D03*
X79450000Y-49475000D03*
X79450000Y-52015000D03*
X79450000Y-54555000D03*
X79450000Y-57095000D03*
X79450000Y-59635000D03*
X79450000Y-62175000D03*
X79450000Y-64715000D03*
X79450000Y-67255000D03*
X79450000Y-69795000D03*
X79450000Y-72335000D03*
X79450000Y-74875000D03*
X79450000Y-77415000D03*
X79450000Y-79955000D03*
X79450000Y-82495000D03*
X79450000Y-85035000D03*
X79450000Y-87575000D03*
X79450000Y-90115000D03*
X79450000Y-92655000D03*
X79450000Y-95195000D03*
X79450000Y-97735000D03*
X79450000Y-100275000D03*
X79450000Y-102815000D03*
X79450000Y-105355000D03*
X137925000Y-42100000D03*
X137925000Y-39700000D03*
X137925000Y-44500000D03*
X140325000Y-42100000D03*
X139622056Y-43797056D03*
X136227944Y-40402944D03*
X135525000Y-42100000D03*
X136227944Y-43797056D03*
X139622056Y-40402944D03*
X51056023Y-109249033D03*
X51056023Y-111789033D03*
X51056023Y-114329033D03*
X48426023Y-109249033D03*
X48426023Y-114329033D03*
X51036023Y-124011533D03*
X51036023Y-126551533D03*
X51036023Y-129091533D03*
X48416023Y-124011533D03*
X48416023Y-129091533D03*
X68650000Y-41850000D03*
X71190000Y-41850000D03*
X68650000Y-44390000D03*
X71190000Y-44390000D03*
X68650000Y-46930000D03*
X71190000Y-46930000D03*
X68650000Y-49470000D03*
X71190000Y-49470000D03*
X68650000Y-52010000D03*
X71190000Y-52010000D03*
X68650000Y-54550000D03*
X71190000Y-54550000D03*
X68650000Y-57090000D03*
X71190000Y-57090000D03*
X68650000Y-59630000D03*
X71190000Y-59630000D03*
X68650000Y-62170000D03*
X71190000Y-62170000D03*
X68650000Y-64710000D03*
X71190000Y-64710000D03*
X68650000Y-67250000D03*
X71190000Y-67250000D03*
X68650000Y-69790000D03*
X71190000Y-69790000D03*
X68650000Y-72330000D03*
X71190000Y-72330000D03*
X68650000Y-74870000D03*
X71190000Y-74870000D03*
X68650000Y-77410000D03*
X71190000Y-77410000D03*
X68650000Y-79950000D03*
X71190000Y-79950000D03*
X68650000Y-82490000D03*
X71190000Y-82490000D03*
X68650000Y-85030000D03*
X71190000Y-85030000D03*
X68650000Y-87570000D03*
X71190000Y-87570000D03*
X68650000Y-90110000D03*
X71190000Y-90110000D03*
X68650000Y-92650000D03*
X71190000Y-92650000D03*
X68650000Y-95190000D03*
X71190000Y-95190000D03*
X68650000Y-97730000D03*
X71190000Y-97730000D03*
X68650000Y-100270000D03*
X71190000Y-100270000D03*
X68650000Y-102810000D03*
X71190000Y-102810000D03*
X68650000Y-105350000D03*
X71190000Y-105350000D03*
X68650000Y-107890000D03*
X71190000Y-107890000D03*
X68650000Y-110430000D03*
X71190000Y-110430000D03*
X68650000Y-112970000D03*
X71190000Y-112970000D03*
X68650000Y-115510000D03*
X71190000Y-115510000D03*
X68650000Y-118050000D03*
X71190000Y-118050000D03*
X68650000Y-120590000D03*
X71190000Y-120590000D03*
X156045000Y-53960000D03*
X156045000Y-59740000D03*
D12*
X155545000Y-52530000D03*
D13*
X159725000Y-61170000D03*
X159725000Y-52530000D03*
D12*
X155545000Y-61170000D03*
M02*
